<svg width="107" height="20" viewBox="0 0 107 20" fill="none" xmlns="http://www.w3.org/2000/svg">
<path d="M18.75 4.52715V15.167L14.375 18.75L7.59375 16.2812V18.7281L3.75469 13.7141L14.9438 14.588V5.0078L18.75 4.52715ZM15.0204 5.06243L8.74219 1.25V3.75156L2.97812 5.44476L1.25 7.6623V12.6982L3.72187 13.7906V7.33459L15.0204 5.06243Z" fill="#0078D4"/>
<path d="M25.696 14H24.2983L27.4389 5.27273H28.9602L32.1009 14H30.7031L28.2358 6.85795H28.1676L25.696 14ZM25.9304 10.5824H30.4645V11.6903H25.9304V10.5824ZM33.1225 14V13.1264L36.668 8.62216V8.5625H33.2376V7.45455H38.2575V8.38352L34.8484 12.8324V12.892H38.3768V14H33.1225ZM44.0263 11.2855V7.45455H45.3047V14H44.0518V12.8665H43.9837C43.8331 13.2159 43.5916 13.5071 43.2592 13.7401C42.9297 13.9702 42.5192 14.0852 42.0277 14.0852C41.6072 14.0852 41.2351 13.9929 40.9112 13.8082C40.5902 13.6207 40.3374 13.3438 40.1527 12.9773C39.9709 12.6108 39.88 12.1577 39.88 11.6179V7.45455H41.1541V11.4645C41.1541 11.9105 41.2777 12.2656 41.5249 12.5298C41.772 12.794 42.093 12.9261 42.4879 12.9261C42.7266 12.9261 42.9638 12.8665 43.1996 12.7472C43.4382 12.6278 43.6357 12.4474 43.7919 12.206C43.951 11.9645 44.0291 11.6577 44.0263 11.2855ZM47.0167 14V7.45455H48.2482V8.49432H48.3164C48.4357 8.14205 48.646 7.86506 48.9471 7.66335C49.2511 7.45881 49.5948 7.35653 49.9783 7.35653C50.0579 7.35653 50.1516 7.35937 50.2596 7.36506C50.3704 7.37074 50.457 7.37784 50.5195 7.38636V8.60511C50.4684 8.59091 50.3775 8.57528 50.2468 8.55824C50.1161 8.53835 49.9854 8.52841 49.8548 8.52841C49.5536 8.52841 49.2852 8.59233 49.0494 8.72017C48.8164 8.84517 48.6317 9.01989 48.4954 9.24432C48.359 9.46591 48.2908 9.71875 48.2908 10.0028V14H47.0167ZM54.2088 14.1321C53.5639 14.1321 53.0085 13.9943 52.5426 13.7188C52.0795 13.4403 51.7216 13.0497 51.4688 12.5469C51.2188 12.0412 51.0938 11.4489 51.0938 10.7699C51.0938 10.0994 51.2188 9.50852 51.4688 8.99716C51.7216 8.4858 52.0739 8.08665 52.5256 7.79972C52.9801 7.51278 53.5114 7.36932 54.1193 7.36932C54.4886 7.36932 54.8466 7.4304 55.1932 7.55256C55.5398 7.67472 55.8509 7.86648 56.1264 8.12784C56.402 8.3892 56.6193 8.72869 56.7784 9.14631C56.9375 9.56108 57.017 10.0653 57.017 10.6591V11.1108H51.8139V10.1562H55.7685C55.7685 9.82102 55.7003 9.52415 55.5639 9.26562C55.4276 9.00426 55.2358 8.7983 54.9886 8.64773C54.7443 8.49716 54.4574 8.42188 54.1278 8.42188C53.7699 8.42188 53.4574 8.50994 53.1903 8.68608C52.9261 8.85937 52.7216 9.08665 52.5767 9.3679C52.4347 9.64631 52.3636 9.94886 52.3636 10.2756V11.0213C52.3636 11.4588 52.4403 11.831 52.5938 12.1378C52.75 12.4446 52.9673 12.679 53.2457 12.8409C53.5241 13 53.8494 13.0795 54.2216 13.0795C54.4631 13.0795 54.6832 13.0455 54.8821 12.9773C55.081 12.9062 55.2528 12.8011 55.3977 12.6619C55.5426 12.5227 55.6534 12.3509 55.7301 12.1463L56.9361 12.3636C56.8395 12.7187 56.6662 13.0298 56.4162 13.2969C56.169 13.5611 55.858 13.767 55.483 13.9148C55.1108 14.0597 54.6861 14.1321 54.2088 14.1321ZM64.5341 14H61.7088V5.27273H64.6236C65.4787 5.27273 66.2131 5.44744 66.8267 5.79688C67.4403 6.14347 67.9105 6.64205 68.2372 7.29261C68.5668 7.94034 68.7315 8.71733 68.7315 9.62358C68.7315 10.5327 68.5653 11.3139 68.233 11.9673C67.9034 12.6207 67.4261 13.1236 66.8011 13.4759C66.1761 13.8253 65.4205 14 64.5341 14ZM63.0256 12.8494H64.4616C65.1264 12.8494 65.679 12.7244 66.1193 12.4744C66.5597 12.2216 66.8892 11.8565 67.108 11.3793C67.3267 10.8991 67.4361 10.3139 67.4361 9.62358C67.4361 8.93892 67.3267 8.35795 67.108 7.88068C66.892 7.40341 66.5696 7.04119 66.1406 6.79403C65.7116 6.54687 65.179 6.4233 64.5426 6.4233H63.0256V12.8494ZM73.0877 14.1321C72.4428 14.1321 71.8874 13.9943 71.4215 13.7188C70.9585 13.4403 70.6005 13.0497 70.3477 12.5469C70.0977 12.0412 69.9727 11.4489 69.9727 10.7699C69.9727 10.0994 70.0977 9.50852 70.3477 8.99716C70.6005 8.4858 70.9528 8.08665 71.4045 7.79972C71.859 7.51278 72.3903 7.36932 72.9982 7.36932C73.3675 7.36932 73.7255 7.4304 74.0721 7.55256C74.4187 7.67472 74.7298 7.86648 75.0053 8.12784C75.2809 8.3892 75.4982 8.72869 75.6573 9.14631C75.8164 9.56108 75.896 10.0653 75.896 10.6591V11.1108H70.6928V10.1562H74.6474C74.6474 9.82102 74.5792 9.52415 74.4428 9.26562C74.3065 9.00426 74.1147 8.7983 73.8675 8.64773C73.6232 8.49716 73.3363 8.42188 73.0067 8.42188C72.6488 8.42188 72.3363 8.50994 72.0692 8.68608C71.805 8.85937 71.6005 9.08665 71.4556 9.3679C71.3136 9.64631 71.2425 9.94886 71.2425 10.2756V11.0213C71.2425 11.4588 71.3192 11.831 71.4727 12.1378C71.6289 12.4446 71.8462 12.679 72.1246 12.8409C72.4031 13 72.7283 13.0795 73.1005 13.0795C73.342 13.0795 73.5621 13.0455 73.761 12.9773C73.9599 12.9062 74.1317 12.8011 74.2766 12.6619C74.4215 12.5227 74.5323 12.3509 74.609 12.1463L75.815 12.3636C75.7184 12.7187 75.5451 13.0298 75.2951 13.2969C75.0479 13.5611 74.7369 13.767 74.3619 13.9148C73.9897 14.0597 73.565 14.1321 73.0877 14.1321ZM82.7216 7.45455L80.348 14H78.9844L76.6065 7.45455H77.9744L79.6321 12.4915H79.7003L81.3537 7.45455H82.7216ZM91.6023 9.63636C91.6023 10.5682 91.4318 11.3693 91.0909 12.0398C90.75 12.7074 90.2827 13.2216 89.6889 13.5824C89.098 13.9403 88.4261 14.1193 87.6733 14.1193C86.9176 14.1193 86.2429 13.9403 85.6491 13.5824C85.0582 13.2216 84.5923 12.706 84.2514 12.0355C83.9105 11.3651 83.7401 10.5653 83.7401 9.63636C83.7401 8.70455 83.9105 7.90483 84.2514 7.23722C84.5923 6.56676 85.0582 6.05256 85.6491 5.6946C86.2429 5.33381 86.9176 5.15341 87.6733 5.15341C88.4261 5.15341 89.098 5.33381 89.6889 5.6946C90.2827 6.05256 90.75 6.56676 91.0909 7.23722C91.4318 7.90483 91.6023 8.70455 91.6023 9.63636ZM90.2983 9.63636C90.2983 8.92614 90.1832 8.32812 89.9531 7.84233C89.7259 7.35369 89.4134 6.98438 89.0156 6.73438C88.6207 6.48153 88.1733 6.35511 87.6733 6.35511C87.1705 6.35511 86.7216 6.48153 86.3267 6.73438C85.9318 6.98438 85.6193 7.35369 85.3892 7.84233C85.1619 8.32812 85.0483 8.92614 85.0483 9.63636C85.0483 10.3466 85.1619 10.946 85.3892 11.4347C85.6193 11.9205 85.9318 12.2898 86.3267 12.5426C86.7216 12.7926 87.1705 12.9176 87.6733 12.9176C88.1733 12.9176 88.6207 12.7926 89.0156 12.5426C89.4134 12.2898 89.7259 11.9205 89.9531 11.4347C90.1832 10.946 90.2983 10.3466 90.2983 9.63636ZM93.1417 16.4545V7.45455H94.386V8.51562H94.4925C94.5664 8.37926 94.6729 8.22159 94.8121 8.04261C94.9513 7.86364 95.1445 7.70739 95.3917 7.57386C95.6388 7.4375 95.9656 7.36932 96.3718 7.36932C96.9002 7.36932 97.3718 7.50284 97.7866 7.76989C98.2013 8.03693 98.5266 8.42187 98.7624 8.92472C99.0011 9.42756 99.1204 10.0327 99.1204 10.7401C99.1204 11.4474 99.0025 12.054 98.7667 12.5597C98.5309 13.0625 98.207 13.4503 97.7951 13.723C97.3832 13.9929 96.913 14.1278 96.3846 14.1278C95.9869 14.1278 95.6616 14.0611 95.4087 13.9276C95.1587 13.794 94.9627 13.6378 94.8207 13.4588C94.6786 13.2798 94.5692 13.1207 94.4925 12.9815H94.4158V16.4545H93.1417ZM94.3903 10.7273C94.3903 11.1875 94.457 11.5909 94.5906 11.9375C94.7241 12.2841 94.9173 12.5554 95.1701 12.7514C95.4229 12.9446 95.7326 13.0412 96.0991 13.0412C96.4798 13.0412 96.7979 12.9403 97.0536 12.7386C97.3093 12.5341 97.5025 12.2571 97.6332 11.9077C97.7667 11.5582 97.8335 11.1648 97.8335 10.7273C97.8335 10.2955 97.7681 9.90767 97.6374 9.56392C97.5096 9.22017 97.3164 8.94886 97.0579 8.75C96.8022 8.55114 96.4826 8.4517 96.0991 8.4517C95.7298 8.4517 95.4173 8.54687 95.1616 8.73722C94.9087 8.92756 94.717 9.19318 94.5863 9.53409C94.4556 9.875 94.3903 10.2727 94.3903 10.7273ZM105.453 9.05256L104.298 9.2571C104.25 9.10937 104.173 8.96875 104.068 8.83523C103.966 8.7017 103.826 8.59233 103.65 8.5071C103.474 8.42187 103.254 8.37926 102.99 8.37926C102.629 8.37926 102.328 8.46023 102.086 8.62216C101.845 8.78125 101.724 8.98722 101.724 9.24006C101.724 9.45881 101.805 9.63494 101.967 9.76847C102.129 9.90199 102.39 10.0114 102.751 10.0966L103.791 10.3352C104.393 10.4744 104.842 10.6889 105.137 10.9787C105.433 11.2685 105.581 11.6449 105.581 12.108C105.581 12.5 105.467 12.8494 105.24 13.1562C105.015 13.4602 104.701 13.6989 104.298 13.8722C103.897 14.0455 103.433 14.1321 102.904 14.1321C102.172 14.1321 101.574 13.9759 101.11 13.6634C100.647 13.348 100.363 12.9006 100.258 12.321L101.49 12.1335C101.566 12.4545 101.724 12.6974 101.963 12.8622C102.201 13.0241 102.512 13.1051 102.896 13.1051C103.314 13.1051 103.647 13.0185 103.897 12.8452C104.147 12.669 104.272 12.4545 104.272 12.2017C104.272 11.9972 104.196 11.8253 104.042 11.6861C103.892 11.5469 103.66 11.4418 103.348 11.3707L102.24 11.1278C101.629 10.9886 101.177 10.767 100.885 10.4631C100.595 10.1591 100.45 9.77415 100.45 9.30824C100.45 8.92187 100.558 8.58381 100.774 8.29403C100.99 8.00426 101.288 7.77841 101.669 7.61648C102.049 7.4517 102.485 7.36932 102.977 7.36932C103.684 7.36932 104.241 7.52273 104.647 7.82955C105.054 8.13352 105.322 8.54119 105.453 9.05256Z" fill="black"/>
</svg>
