<svg width="16" height="16" viewBox="0 0 16 16" fill="none" xmlns="http://www.w3.org/2000/svg">
<path d="M14 8C14 11.3137 11.3137 14 8 14C4.68629 14 2 11.3137 2 8C2 4.68629 4.68629 2 8 2C11.3137 2 14 4.68629 14 8ZM3.5 8C3.5 10.4853 5.51472 12.5 8 12.5C10.4853 12.5 12.5 10.4853 12.5 8C12.5 5.51472 10.4853 3.5 8 3.5C5.51472 3.5 3.5 5.51472 3.5 8Z" fill="white" fill-opacity="0.2"/>
<mask id="path-3-inside-1_174_1256" fill="white">
<path d="M14 8C14 6.81331 13.6481 5.65327 12.9888 4.66658C12.3295 3.67988 11.3925 2.91085 10.2961 2.45672C9.19974 2.0026 7.99334 1.88378 6.82946 2.11529C5.66557 2.3468 4.59647 2.91824 3.75736 3.75736C2.91824 4.59647 2.3468 5.66557 2.11529 6.82946C1.88378 7.99334 2.0026 9.19974 2.45672 10.2961C2.91085 11.3925 3.67988 12.3295 4.66658 12.9888C5.65327 13.6481 6.81331 14 8 14V12.5C7.10998 12.5 6.23996 12.2361 5.49993 11.7416C4.75991 11.2471 4.18314 10.5443 3.84254 9.72208C3.50195 8.89981 3.41283 7.99501 3.58647 7.12209C3.7601 6.24918 4.18868 5.44736 4.81802 4.81802C5.44736 4.18868 6.24918 3.7601 7.12209 3.58647C7.99501 3.41283 8.89981 3.50195 9.72208 3.84254C10.5443 4.18314 11.2471 4.75991 11.7416 5.49993C12.2361 6.23995 12.5 7.10998 12.5 8H14Z"/>
</mask>
<path d="M14 8C14 6.81331 13.6481 5.65327 12.9888 4.66658C12.3295 3.67988 11.3925 2.91085 10.2961 2.45672C9.19974 2.0026 7.99334 1.88378 6.82946 2.11529C5.66557 2.3468 4.59647 2.91824 3.75736 3.75736C2.91824 4.59647 2.3468 5.66557 2.11529 6.82946C1.88378 7.99334 2.0026 9.19974 2.45672 10.2961C2.91085 11.3925 3.67988 12.3295 4.66658 12.9888C5.65327 13.6481 6.81331 14 8 14V12.5C7.10998 12.5 6.23996 12.2361 5.49993 11.7416C4.75991 11.2471 4.18314 10.5443 3.84254 9.72208C3.50195 8.89981 3.41283 7.99501 3.58647 7.12209C3.7601 6.24918 4.18868 5.44736 4.81802 4.81802C5.44736 4.18868 6.24918 3.7601 7.12209 3.58647C7.99501 3.41283 8.89981 3.50195 9.72208 3.84254C10.5443 4.18314 11.2471 4.75991 11.7416 5.49993C12.2361 6.23995 12.5 7.10998 12.5 8H14Z" stroke="url(#paint0_linear_174_1256)" stroke-width="2" stroke-linejoin="round" mask="url(#path-3-inside-1_174_1256)"/>
<defs>
<linearGradient id="paint0_linear_174_1256" x1="13" y1="7.5" x2="8" y2="12.5" gradientUnits="userSpaceOnUse">
<stop stop-color="white"/>
<stop offset="1" stop-color="white" stop-opacity="0"/>
</linearGradient>
</defs>
</svg>
