<svg width="55" height="16" viewBox="0 0 55 16" fill="none" xmlns="http://www.w3.org/2000/svg">
<g clip-path="url(#clip0_683_26830)">
<path d="M9.46391 15.1455C12.0922 14.6767 14.2629 14.2888 14.2879 14.2834L14.3332 14.2737L11.8519 11.2934C10.4872 9.65424 9.37056 8.30674 9.37056 8.29897C9.37056 8.28427 11.9327 1.15961 11.9471 1.13426C11.952 1.12579 13.6956 4.16556 16.1738 8.50288C18.494 12.5635 20.4069 15.9116 20.4247 15.943L20.457 16L12.5711 15.999L4.68528 15.998L9.46391 15.1455ZM39.7053 14.4248C38.5049 14.3471 37.8067 13.6568 37.6217 12.3649C37.5725 12.0213 37.5723 12.0124 37.5673 9.78126L37.5624 7.62193H38.0937H38.6249L38.6291 9.71056C38.6329 11.593 38.6353 11.8137 38.6531 11.9461C38.7254 12.4835 38.8694 12.8449 39.1146 13.1044C39.3108 13.312 39.5405 13.4335 39.8584 13.498C40.0084 13.5285 40.4352 13.5285 40.5719 13.4982C40.8943 13.4265 41.1526 13.2849 41.3806 13.0548C41.6403 12.7926 41.8325 12.4206 41.9255 11.9999L41.9568 11.8581L41.9603 9.75182L41.9638 7.64552H42.5062H43.0486V10.9567V14.2679H42.5118H41.975V13.7425C41.975 13.3855 41.9711 13.2185 41.9629 13.2212C41.9562 13.2235 41.9287 13.266 41.9016 13.3159C41.7166 13.6565 41.4084 13.9681 41.0707 14.1557C40.6659 14.3807 40.2599 14.4607 39.7053 14.4248ZM51.8893 14.4194C51.4655 14.3873 51.0193 14.2402 50.6547 14.0124C49.8861 13.5323 49.4313 12.7409 49.2981 11.6519C49.252 11.275 49.2465 10.7688 49.2849 10.4486C49.3709 9.73311 49.6493 9.03071 50.0458 8.52926C50.1474 8.40071 50.378 8.16787 50.5053 8.06524C50.8491 7.78809 51.2512 7.59428 51.6781 7.49998C51.9269 7.44503 52.3649 7.41923 52.6292 7.44396C53.2931 7.50609 53.9015 7.82172 54.3151 8.31851C54.7352 8.82323 54.9662 9.5285 54.9957 10.3969C55.0003 10.533 55.0014 10.7717 54.9981 10.9272L54.9922 11.21L52.6671 11.213L50.342 11.216V11.3207C50.342 11.6397 50.4188 12.003 50.5515 12.312C50.666 12.5786 50.8631 12.8696 51.0244 13.0105C51.3553 13.2993 51.7602 13.4721 52.2032 13.5137C52.3675 13.5292 52.7862 13.5129 52.9734 13.4839C53.5076 13.401 54.0154 13.1894 54.4255 12.879C54.4737 12.8424 54.5199 12.8083 54.5281 12.8031C54.5401 12.7956 54.5429 12.891 54.5426 13.2922L54.5422 13.7906L54.4323 13.8592C53.9684 14.1489 53.4369 14.335 52.8742 14.4046C52.7063 14.4254 52.0901 14.4347 51.8893 14.4194ZM53.9128 10.2155C53.9128 9.68128 53.6898 9.08777 53.3743 8.78216C53.1491 8.56406 52.8769 8.43077 52.5533 8.38016C52.4002 8.35621 52.0776 8.36544 51.9161 8.39837C51.5749 8.46799 51.2927 8.61946 51.0465 8.86509C50.7874 9.12359 50.5932 9.43757 50.4711 9.7953C50.4271 9.92393 50.3757 10.1351 50.3598 10.2526L50.3522 10.3086H52.1325H53.9128V10.2155ZM22.3728 14.2531C22.3755 14.245 23.1651 12.1505 24.1273 9.59865L25.877 4.95894L26.4391 4.9589L27.0013 4.95887L27.048 5.07965C27.1905 5.44874 30.5506 14.2578 30.5506 14.2623C30.5506 14.2654 30.2815 14.2678 29.9525 14.2677L29.3545 14.2676L28.8702 12.9656L28.3859 11.6637L26.436 11.6637L24.486 11.6636L24.4691 11.7078C24.4598 11.7321 24.2529 12.318 24.0093 13.0097L23.5664 14.2674L22.9671 14.2676C22.4927 14.2678 22.3688 14.2648 22.3728 14.2531ZM28.03 10.6701C28.03 10.668 27.7041 9.77588 27.3058 8.68753C26.5606 6.65141 26.5189 6.5289 26.46 6.20202C26.4324 6.04873 26.4184 6.04447 26.402 6.18434C26.3903 6.28432 26.3395 6.50803 26.3004 6.63211C26.2809 6.69368 25.9454 7.62373 25.5546 8.69888C25.1639 9.77403 24.8442 10.6582 24.8442 10.6638C24.8442 10.6693 25.561 10.6739 26.4371 10.6739C27.3132 10.6739 28.03 10.6722 28.03 10.6701ZM30.9123 14.0983V13.9287L32.8551 11.2319L34.7978 8.53515L33.0389 8.52926L31.2799 8.52337L31.2769 8.07265L31.2738 7.62193H33.8179H36.362V7.77416V7.92639L34.419 10.6379C33.3504 12.1292 32.4761 13.3519 32.4761 13.3549C32.4761 13.358 33.3399 13.3605 34.3957 13.3605H36.3153V13.8142V14.2678H33.6138H30.9123V14.0983ZM45.1685 14.26C45.1642 14.2557 45.1607 12.7603 45.1607 10.937V7.62193H45.6917H46.2226V8.30537C46.2226 8.68127 46.2272 8.98882 46.2327 8.98882C46.2382 8.98882 46.2641 8.92729 46.2901 8.85208C46.4095 8.50747 46.6165 8.18547 46.8833 7.92956C47.1235 7.69901 47.3981 7.56115 47.7222 7.50839C47.8132 7.49356 47.8902 7.49073 48.0723 7.49552C48.3009 7.50154 48.4204 7.51841 48.5595 7.56431L48.6032 7.57875V8.13527V8.69178L48.4778 8.62838C48.2562 8.51637 48.0375 8.47204 47.7747 8.48584C47.6036 8.49482 47.4913 8.517 47.3546 8.56883C47.0732 8.67547 46.845 8.86369 46.6855 9.12061C46.4546 9.49255 46.2899 9.97064 46.2414 10.4101C46.2326 10.4889 46.2275 11.1311 46.2255 12.3972L46.2224 14.2678H45.6994C45.4117 14.2678 45.1728 14.2643 45.1685 14.26ZM0 14.2367C0 14.2325 1.16919 12.183 2.5982 9.68233L5.1964 5.13561L8.22429 2.56975C9.88964 1.15853 11.2567 0.00216689 11.2622 5.7968e-05C11.2676 -0.00205054 11.2457 0.0536262 11.2135 0.123785C11.1812 0.193943 9.70168 3.39843 7.9256 7.24486L4.69638 14.2384L2.34819 14.2413C1.05669 14.243 0 14.2409 0 14.2367Z" fill="#0089D6"/>
</g>
<defs>
<clipPath id="clip0_683_26830">
<rect width="55" height="16" fill="white"/>
</clipPath>
</defs>
</svg>
