<svg width="480" height="164" viewBox="0 0 480 164" fill="none" xmlns="http://www.w3.org/2000/svg">
<path d="M446.86 120.821V65.4744H459.751V120.821H446.86ZM453.25 58.416C450.933 58.416 448.915 57.6691 447.197 56.1753C445.553 54.6067 444.731 52.5527 444.731 50.0132C444.731 47.4737 445.553 45.457 447.197 43.9631C448.915 42.3946 450.933 41.6104 453.25 41.6104C455.716 41.6104 457.734 42.3946 459.303 43.9631C460.947 45.457 461.769 47.4737 461.769 50.0132C461.769 52.5527 460.947 54.6067 459.303 56.1753C457.734 57.6691 455.716 58.416 453.25 58.416Z" fill="url(#paint0_linear_35_1624)"/>
<path d="M386.604 120.82V105.359L418.215 77.7978V76.1172H387.725V65.4736H432.115V80.9348L400.504 108.496V110.177H433.012V120.82H386.604Z" fill="url(#paint1_linear_35_1624)"/>
<path d="M350.137 122.391C344.607 122.391 339.712 121.233 335.453 118.918C331.268 116.528 327.98 113.204 325.588 108.946C323.272 104.614 322.113 99.5726 322.113 93.8213V92.4769C322.113 86.6509 323.272 81.6092 325.588 77.3518C327.905 73.0943 331.156 69.8079 335.341 67.4924C339.526 65.1023 344.346 63.9072 349.801 63.9072C355.181 63.9072 359.889 65.1023 363.925 67.4924C367.96 69.8079 371.099 73.0943 373.341 77.3518C375.583 81.6092 376.704 86.5762 376.704 92.2528V96.8463H335.116C335.266 101.178 336.798 104.652 339.712 107.266C342.627 109.88 346.214 111.187 350.473 111.187C354.658 111.187 357.76 110.291 359.777 108.498C361.795 106.631 363.327 104.54 364.373 102.224L375.022 107.714C373.976 109.731 372.444 111.897 370.426 114.212C368.483 116.453 365.868 118.395 362.58 120.038C359.292 121.607 355.144 122.391 350.137 122.391ZM335.229 87.099H363.589C363.29 83.4391 361.87 80.5262 359.329 78.3601C356.863 76.194 353.65 75.111 349.689 75.111C345.579 75.111 342.291 76.194 339.824 78.3601C337.358 80.5262 335.826 83.4391 335.229 87.099Z" fill="url(#paint2_linear_35_1624)"/>
<path d="M285.003 122.391C279.473 122.391 274.578 121.233 270.319 118.918C266.134 116.528 262.846 113.204 260.454 108.946C258.138 104.614 256.979 99.5726 256.979 93.8213V92.4769C256.979 86.6509 258.138 81.6092 260.454 77.3518C262.771 73.0943 266.022 69.8079 270.206 67.4924C274.391 65.1023 279.211 63.9072 284.667 63.9072C290.047 63.9072 294.755 65.1023 298.791 67.4924C302.826 69.8079 305.965 73.0943 308.207 77.3518C310.449 81.6092 311.569 86.5762 311.569 92.2528V96.8463H269.982C270.132 101.178 271.664 104.652 274.578 107.266C277.493 109.88 281.08 111.187 285.339 111.187C289.524 111.187 292.625 110.291 294.643 108.498C296.661 106.631 298.193 104.54 299.239 102.224L309.888 107.714C308.842 109.731 307.31 111.897 305.292 114.212C303.349 116.453 300.734 118.395 297.446 120.038C294.157 121.607 290.01 122.391 285.003 122.391ZM270.094 87.099H298.454C298.155 83.4391 296.736 80.5262 294.195 78.3601C291.729 76.194 288.515 75.111 284.555 75.111C280.444 75.111 277.156 76.194 274.69 78.3601C272.224 80.5262 270.692 83.4391 270.094 87.099Z" fill="url(#paint3_linear_35_1624)"/>
<path d="M182.316 120.818V108.942H192.853V54.2676H182.316V42.3916H222.446C227.154 42.3916 231.264 43.2132 234.776 44.8564C238.363 46.425 241.128 48.7031 243.071 51.6907C245.089 54.6037 246.098 58.1142 246.098 62.2223V63.2306C246.098 66.8158 245.425 69.7662 244.08 72.0816C242.735 74.3971 241.128 76.1897 239.26 77.4594C237.392 78.7292 235.598 79.6255 233.879 80.1483V82.053C235.598 82.5011 237.429 83.3601 239.372 84.6298C241.39 85.8249 243.071 87.6175 244.416 90.0076C245.836 92.3231 246.546 95.3481 246.546 99.0827V100.203C246.546 104.461 245.5 108.158 243.408 111.295C241.39 114.357 238.587 116.71 235 118.353C231.488 119.996 227.415 120.818 222.782 120.818H182.316ZM206.304 108.606H221.213C224.8 108.606 227.64 107.747 229.732 106.029C231.899 104.236 232.983 101.734 232.983 98.5225V97.5142C232.983 94.3024 231.936 91.8376 229.844 90.1197C227.752 88.3271 224.875 87.4308 221.213 87.4308H206.304V108.606ZM206.304 75.2187H221.101C224.538 75.2187 227.303 74.3597 229.396 72.6418C231.563 70.9239 232.646 68.5337 232.646 65.4714V64.351C232.646 61.2886 231.563 58.8985 229.396 57.1806C227.303 55.4627 224.538 54.6037 221.101 54.6037H206.304V75.2187Z" fill="url(#paint4_linear_35_1624)"/>
<path d="M82.0412 46.4925V23.6649C82.0412 21.248 79.4236 19.7374 77.3294 20.9457L29.9214 48.2991C27.9774 49.4208 26.7798 51.4939 26.7798 53.7375V76.569C26.7798 78.986 29.3976 80.4966 31.4918 79.2881L78.8999 51.9306C80.8438 50.8089 82.0412 48.7359 82.0412 46.4925Z" fill="url(#paint5_linear_35_1624)"/>
<path d="M82.0399 116.611V140.345C82.0399 142.762 84.6575 144.272 86.7517 143.064L134.945 115.257C136.403 114.416 137.301 112.861 137.301 111.179V87.4408C137.301 85.0238 134.684 83.5132 132.589 84.7217L84.3959 112.532C82.938 113.374 82.0399 114.928 82.0399 116.611Z" fill="url(#paint6_linear_35_1624)"/>
<path d="M121.248 43.5778L29.1359 96.73C27.678 97.5713 26.7798 99.126 26.7798 100.809V111.179C26.7798 112.862 27.6784 114.417 29.1369 115.258L38.3986 120.599C39.8566 121.44 41.6526 121.439 43.1102 120.598L134.947 67.5799C136.405 66.7385 137.303 65.1839 137.303 63.5017V52.8409C137.303 51.1581 136.404 49.6032 134.946 48.762L125.96 43.5776C124.502 42.7366 122.706 42.7367 121.248 43.5778Z" fill="url(#paint7_linear_35_1624)"/>
<defs>
<linearGradient id="paint0_linear_35_1624" x1="453.511" y1="120.821" x2="425.36" y2="53.315" gradientUnits="userSpaceOnUse">
<stop stop-color="white" stop-opacity="0.8"/>
<stop offset="1" stop-color="white"/>
</linearGradient>
<linearGradient id="paint1_linear_35_1624" x1="410.519" y1="120.82" x2="404.663" y2="66.0761" gradientUnits="userSpaceOnUse">
<stop stop-color="white" stop-opacity="0.8"/>
<stop offset="1" stop-color="white"/>
</linearGradient>
<linearGradient id="paint2_linear_35_1624" x1="350.245" y1="122.391" x2="344.674" y2="64.4172" gradientUnits="userSpaceOnUse">
<stop stop-color="white" stop-opacity="0.8"/>
<stop offset="1" stop-color="white"/>
</linearGradient>
<linearGradient id="paint3_linear_35_1624" x1="285.111" y1="122.391" x2="279.54" y2="64.4172" gradientUnits="userSpaceOnUse">
<stop stop-color="white" stop-opacity="0.8"/>
<stop offset="1" stop-color="white"/>
</linearGradient>
<linearGradient id="paint4_linear_35_1624" x1="215.415" y1="120.818" x2="206.924" y2="43.2876" gradientUnits="userSpaceOnUse">
<stop stop-color="white" stop-opacity="0.8"/>
<stop offset="1" stop-color="white"/>
</linearGradient>
<linearGradient id="paint5_linear_35_1624" x1="83.7347" y1="143.489" x2="71.5782" y2="21.6804" gradientUnits="userSpaceOnUse">
<stop stop-color="white" stop-opacity="0.8"/>
<stop offset="1" stop-color="white"/>
</linearGradient>
<linearGradient id="paint6_linear_35_1624" x1="83.7347" y1="143.489" x2="71.5782" y2="21.6804" gradientUnits="userSpaceOnUse">
<stop stop-color="white" stop-opacity="0.8"/>
<stop offset="1" stop-color="white"/>
</linearGradient>
<linearGradient id="paint7_linear_35_1624" x1="83.7347" y1="143.489" x2="71.5782" y2="21.6804" gradientUnits="userSpaceOnUse">
<stop stop-color="white" stop-opacity="0.8"/>
<stop offset="1" stop-color="white"/>
</linearGradient>
</defs>
</svg>
