<svg width="24" height="24" viewBox="0 0 24 24" fill="none" xmlns="http://www.w3.org/2000/svg">
<path fill-rule="evenodd" clip-rule="evenodd" d="M6.46447 9.1212C8.4171 7.16858 11.5829 7.16858 13.5355 9.12121L13.8787 9.46435C14.695 10.2806 15.1709 11.3116 15.3042 12.3756C15.3729 12.9236 14.9843 13.4235 14.4363 13.4921C13.8883 13.5608 13.3884 13.1722 13.3197 12.6242C13.2397 11.9857 12.9554 11.3695 12.4645 10.8786L12.1213 10.5354C10.9498 9.36385 9.05026 9.36384 7.87869 10.5354L4.53554 13.8786C3.36397 15.0501 3.36397 16.9496 4.53554 18.1212L4.87869 18.4643C6.05026 19.6359 7.94976 19.6359 9.12133 18.4643L9.29287 18.2928C9.68338 17.9023 10.3165 17.9022 10.7071 18.2927C11.0976 18.6833 11.0976 19.3164 10.7071 19.707L10.5356 19.8785C8.58295 21.8312 5.41709 21.8312 3.46447 19.8786L3.12133 19.5354C1.16871 17.5828 1.1687 14.417 3.12133 12.4644L6.46447 9.1212Z" fill="#FAFAFA"/>
<path fill-rule="evenodd" clip-rule="evenodd" d="M13.4644 5.1212C15.417 3.16858 18.5829 3.16858 20.5355 5.12121L20.8786 5.46435C22.8313 7.41697 22.8313 10.5828 20.8786 12.5354L17.5355 15.8786C15.5829 17.8312 12.417 17.8312 10.4644 15.8786L10.1213 15.5354C9.30499 14.7191 8.82903 13.6882 8.69574 12.6242C8.62709 12.0762 9.01569 11.5763 9.56369 11.5076C10.1117 11.439 10.6116 11.8276 10.6802 12.3756C10.7602 13.0141 11.0445 13.6302 11.5355 14.1212L11.8786 14.4643C13.0502 15.6359 14.9497 15.6359 16.1213 14.4643L19.4644 11.1212C20.636 9.94963 20.636 8.05014 19.4644 6.87856L19.1213 6.53542C17.9497 5.36388 16.0503 5.36384 14.8787 6.53532C14.8787 6.53536 14.8788 6.53529 14.8787 6.53532L14.7072 6.70689C14.3167 7.09747 13.6836 7.09755 13.293 6.70708C12.9024 6.3166 12.9023 5.68344 13.2928 5.29286L13.4644 5.1212Z" fill="#FAFAFA"/>
</svg>
