<svg width="28" height="28" viewBox="0 0 28 28" fill="none" xmlns="http://www.w3.org/2000/svg">
<g opacity="0.8">
<path d="M2.47352 7.24364C2.41876 7.47367 2.38807 7.70625 2.36901 7.93946C2.33331 8.37644 2.33333 8.90697 2.33334 9.52194V18.4786C2.33333 19.0936 2.33331 19.6242 2.36901 20.0612C2.4067 20.5224 2.4899 20.9812 2.71482 21.4226C3.05038 22.0812 3.58581 22.6166 4.24438 22.9522C4.68582 23.1771 5.14458 23.2603 5.60581 23.298C6.04277 23.3337 6.57326 23.3337 7.18819 23.3337H20.8116C21.4265 23.3337 21.9573 23.3337 22.3942 23.298C22.8554 23.2603 23.3142 23.1771 23.7556 22.9522C24.4142 22.6166 24.9496 22.0812 25.2852 21.4226C25.5101 20.9812 25.5933 20.5224 25.631 20.0612C25.6667 19.6242 25.6667 19.0937 25.6667 18.4787V9.522C25.6667 8.90701 25.6667 8.37646 25.631 7.93946C25.612 7.70625 25.5813 7.47366 25.5265 7.24363L16.2163 14.861C14.9271 15.9159 13.073 15.9159 11.7837 14.861L2.47352 7.24364Z" fill="#6938EF"/>
<path d="M24.1973 5.31631C24.0575 5.21671 23.91 5.12711 23.7556 5.04847C23.3142 4.82355 22.8554 4.74034 22.3942 4.70266C21.9572 4.66696 21.4267 4.66697 20.8117 4.66699H7.18838C6.57341 4.66697 6.0428 4.66696 5.60581 4.70266C5.14458 4.74034 4.68582 4.82355 4.24438 5.04847C4.09005 5.12711 3.94249 5.21672 3.80267 5.31631L13.2612 13.0551C13.691 13.4068 14.309 13.4068 14.7388 13.0551L24.1973 5.31631Z" fill="#6938EF"/>
</g>
</svg>
