<svg width="66" height="16" viewBox="0 0 66 16" fill="none" xmlns="http://www.w3.org/2000/svg">
<path d="M8.19831 0C3.66345 0 0 3.66345 0 8.19831C0 11.8262 2.34745 14.9028 5.60188 15.9876C6.01091 16.0587 6.17096 15.8098 6.17096 15.5963C6.17096 15.4007 6.15318 14.7605 6.15318 14.0669C4.09026 14.4404 3.55675 13.569 3.3967 13.1066C3.30778 12.8754 2.89875 12.1463 2.56086 11.9507C2.27632 11.7906 1.86729 11.4172 2.54308 11.3994C3.18329 11.3816 3.64567 11.9862 3.80572 12.2352C4.55264 13.4801 5.72637 13.1244 6.18874 12.911C6.25988 12.3775 6.47328 12.0218 6.70447 11.8084C4.87275 11.595 2.96989 10.9014 2.96989 7.75371C2.96989 6.86453 3.28999 6.11761 3.80572 5.54853C3.7168 5.33512 3.43226 4.49929 3.89464 3.37891C3.89464 3.37891 4.58821 3.16551 6.15318 4.21475C6.81118 4.03691 7.50474 3.93021 8.19831 3.93021C8.89187 3.93021 9.58544 4.01913 10.2434 4.21475C11.8084 3.14772 12.502 3.37891 12.502 3.37891C12.9466 4.49929 12.662 5.35291 12.5909 5.54853C13.1066 6.11761 13.4267 6.84674 13.4267 7.75371C13.4267 10.9014 11.5061 11.595 9.67436 11.8084C9.97668 12.0574 10.2257 12.5553 10.2257 13.32C10.2257 14.4226 10.2079 15.294 10.2079 15.5786C10.2079 15.792 10.3679 16.0587 10.777 15.9698C14.0136 14.885 16.361 11.8084 16.361 8.18052C16.4144 3.66345 12.7332 0 8.19831 0Z" fill="#1F2328"/>
<path d="M39.4088 11.9328C39.3199 11.9328 39.0887 11.9862 38.8397 11.9862C38.0572 11.9862 37.7904 11.6305 37.7904 11.1681V8.05599H39.3732C39.4621 8.05599 39.5333 7.98486 39.5333 7.86037V6.17091C39.5333 6.082 39.4621 6.01086 39.3732 6.01086H37.7904V3.93016C37.7904 3.85903 37.7371 3.80568 37.6482 3.80568H35.5141C35.4252 3.80568 35.3719 3.85903 35.3719 3.93016V6.082C35.3719 6.082 34.2871 6.34875 34.2159 6.36654C34.1448 6.38432 34.0914 6.45545 34.0914 6.52659V7.87815C34.0914 7.98486 34.1626 8.07378 34.2515 8.07378H35.3541V11.3282C35.3541 13.7468 37.0435 13.9958 38.1995 13.9958C38.733 13.9958 39.3554 13.8357 39.4621 13.7824C39.5155 13.7646 39.551 13.6934 39.551 13.6223V12.1285C39.5688 12.0218 39.4977 11.9506 39.4088 11.9328ZM62.9189 9.76323C62.9189 7.96707 62.1897 7.73588 61.4251 7.80702C60.8382 7.84259 60.358 8.14491 60.358 8.14491V11.6305C60.358 11.6305 60.8382 11.9684 61.5673 11.9862C62.5988 12.0218 62.9189 11.6483 62.9189 9.76323ZM65.3375 9.60318C65.3375 12.9999 64.2349 13.978 62.3142 13.978C60.6959 13.978 59.8067 13.1599 59.8067 13.1599C59.8067 13.1599 59.7712 13.6223 59.7178 13.6757C59.6822 13.729 59.6467 13.7468 59.5755 13.7468H58.0995C57.9928 13.7468 57.9039 13.6757 57.9039 13.5867L57.9217 2.56081C57.9217 2.47189 57.9928 2.40076 58.0817 2.40076H60.198C60.2869 2.40076 60.358 2.47189 60.358 2.56081L60.3402 6.27762C60.3402 6.27762 61.1583 5.7441 62.3498 5.7441H62.3676C63.5769 5.7441 65.3375 6.1887 65.3375 9.60318ZM56.6768 6.01086H54.5961C54.4894 6.01086 54.436 6.082 54.436 6.20648V11.595C54.436 11.595 53.8847 11.9862 53.1378 11.9862C52.3909 11.9862 52.1775 11.6483 52.1775 10.9014V6.1887C52.1775 6.09978 52.1064 6.02864 52.0174 6.02864H49.9012C49.8123 6.02864 49.7411 6.09978 49.7411 6.1887V11.2571C49.7411 13.4445 50.9682 13.978 52.6399 13.978C54.027 13.978 55.1474 13.2133 55.1474 13.2133C55.1474 13.2133 55.2007 13.6045 55.2185 13.6579C55.2363 13.7112 55.3074 13.7468 55.3786 13.7468H56.7124C56.8191 13.7468 56.8724 13.6757 56.8724 13.5867L56.8902 6.17091C56.8724 6.09978 56.7835 6.01086 56.6768 6.01086ZM33.1667 6.01086H31.0504C30.9615 6.01086 30.8904 6.09978 30.8904 6.20648V13.48C30.8904 13.6757 31.0148 13.7468 31.1927 13.7468H33.0955C33.2912 13.7468 33.3445 13.6579 33.3445 13.48V6.17091C33.3445 6.082 33.2556 6.01086 33.1667 6.01086ZM32.1352 2.64973C31.3705 2.64973 30.7659 3.25438 30.7659 4.01908C30.7659 4.78378 31.3705 5.38843 32.1352 5.38843C32.8821 5.38843 33.4868 4.78378 33.4868 4.01908C33.4868 3.25438 32.8821 2.64973 32.1352 2.64973ZM48.4963 2.40076H46.3978C46.3089 2.40076 46.2377 2.47189 46.2377 2.56081V6.61551H42.9477V2.5786C42.9477 2.48968 42.8766 2.41854 42.7877 2.41854H40.6714C40.5825 2.41854 40.5114 2.48968 40.5114 2.5786V13.6045C40.5114 13.6934 40.6003 13.7646 40.6714 13.7646H42.7877C42.8766 13.7646 42.9477 13.6934 42.9477 13.6045V8.87404H46.2377L46.2199 13.5867C46.2199 13.6757 46.2911 13.7468 46.38 13.7468H48.4963C48.5852 13.7468 48.6563 13.6757 48.6563 13.5867V2.56081C48.6563 2.48968 48.5852 2.40076 48.4963 2.40076ZM29.77 7.29129V12.9821C29.77 13.0177 29.7522 13.0888 29.7166 13.1066C29.7166 13.1066 28.4718 13.9958 26.4266 13.9958C23.9547 13.9958 21.0382 13.2133 21.0382 8.12713C21.0382 3.02319 23.599 1.97395 26.0887 1.99173C28.2584 1.99173 29.1298 2.47189 29.2543 2.56081C29.2898 2.61416 29.3076 2.64973 29.3076 2.70308L28.8986 4.46367C28.8986 4.55259 28.8097 4.6593 28.703 4.62373C28.3473 4.51703 27.8138 4.30362 26.5511 4.30362C25.0929 4.30362 23.5279 4.71265 23.5279 8.00264C23.5279 11.2926 25.0217 11.6661 26.0887 11.6661C26.9957 11.6661 27.3336 11.5594 27.3336 11.5594V9.28307H25.8753C25.7686 9.28307 25.6797 9.21193 25.6797 9.12302V7.29129C25.6797 7.20237 25.7509 7.13124 25.8753 7.13124H29.5921C29.6988 7.11345 29.77 7.20237 29.77 7.29129Z" fill="#1F2328"/>
</svg>
