<svg width="106" height="24" viewBox="0 0 106 24" fill="none" xmlns="http://www.w3.org/2000/svg">
<g clip-path="url(#clip0_217_1284)">
<path d="M104.165 6.29112C103.663 6.29112 103.227 6.11695 102.858 5.76862C102.506 5.40375 102.33 4.97248 102.33 4.47491C102.33 3.97733 102.506 3.55437 102.858 3.20606C103.227 2.85775 103.663 2.68359 104.165 2.68359C104.668 2.68359 105.095 2.85775 105.447 3.20606C105.816 3.55437 106 3.97733 106 4.47491C106 4.97248 105.816 5.40375 105.447 5.76862C105.095 6.11695 104.668 6.29112 104.165 6.29112ZM102.808 20.8455V8.15706H105.522V20.8455H102.808Z" fill="#FAFAFA"/>
<path d="M89.4088 20.8458V8.15735H91.9727V9.8989H92.1236C92.492 9.2852 93.0367 8.77931 93.7574 8.38125C94.4946 7.9666 95.2988 7.75928 96.1704 7.75928C97.7453 7.75928 98.9267 8.2237 99.7144 9.1525C100.502 10.0813 100.896 11.3087 100.896 12.8346V20.8458H98.2061V13.183C98.2061 12.1546 97.9466 11.4082 97.4269 10.9438C96.9076 10.4628 96.2289 10.2223 95.3912 10.2223C94.7375 10.2223 94.1678 10.4048 93.6819 10.7697C93.1961 11.118 92.8104 11.5824 92.5255 12.1629C92.2576 12.7435 92.1236 13.3654 92.1236 14.0289V20.8458H89.4088Z" fill="#FAFAFA"/>
<path d="M86.0661 6.29112C85.5634 6.29112 85.1276 6.11695 84.7588 5.76862C84.4069 5.40375 84.231 4.97248 84.231 4.47491C84.231 3.97733 84.4069 3.55437 84.7588 3.20606C85.1276 2.85775 85.5634 2.68359 86.0661 2.68359C86.5685 2.68359 86.9959 2.85775 87.3477 3.20606C87.7165 3.55437 87.9009 3.97733 87.9009 4.47491C87.9009 4.97248 87.7165 5.40375 87.3477 5.76862C86.9959 6.11695 86.5685 6.29112 86.0661 6.29112ZM84.7088 20.8455V8.15706H87.4232V20.8455H84.7088Z" fill="#FAFAFA"/>
<path d="M63.4797 20.8458V8.15735H66.0435V9.8989H66.1941C66.5629 9.2852 67.0991 8.77931 67.8029 8.38125C68.5066 7.9666 69.2858 7.75928 70.1404 7.75928C71.0955 7.75928 71.9081 7.98318 72.5784 8.43102C73.2486 8.87882 73.7263 9.44279 74.0112 10.1228C74.4301 9.45936 74.9998 8.90371 75.7205 8.4559C76.4408 7.99149 77.3208 7.75928 78.3594 7.75928C79.8677 7.75928 80.9903 8.21539 81.7275 9.12765C82.4651 10.0233 82.8335 11.2175 82.8335 12.7103V20.8458H80.1441V13.1581C80.1441 12.1463 79.9178 11.4082 79.4654 10.9438C79.0297 10.4628 78.4183 10.2223 77.6307 10.2223C77.0105 10.2223 76.4661 10.3965 75.9969 10.7448C75.5276 11.0765 75.1592 11.5326 74.8909 12.1132C74.6395 12.6937 74.514 13.3405 74.514 14.0537V20.8458H71.8246V13.1581C71.8246 12.1463 71.5982 11.4082 71.1459 10.9438C70.6932 10.4628 70.0565 10.2223 69.2357 10.2223C68.6325 10.2223 68.1043 10.3965 67.652 10.7448C67.1996 11.0931 66.8393 11.5575 66.5713 12.138C66.32 12.7186 66.1941 13.3654 66.1941 14.0786V20.8458H63.4797Z" fill="#FAFAFA"/>
<path d="M55.8841 21.2439C54.6272 21.2439 53.5046 20.9536 52.5156 20.3731C51.527 19.7926 50.7479 18.9964 50.1781 17.9847C49.6253 16.9729 49.3489 15.8202 49.3489 14.5265C49.3489 13.3156 49.6168 12.1961 50.1531 11.1678C50.6893 10.1394 51.435 9.31839 52.3901 8.70469C53.3622 8.07442 54.4763 7.75928 55.7332 7.75928C57.0567 7.75928 58.1796 8.04122 59.1012 8.60515C60.0394 9.16911 60.7516 9.94036 61.2378 10.9189C61.7236 11.8975 61.9666 13.0005 61.9666 14.2279C61.9666 14.4103 61.9581 14.5762 61.9415 14.7255C61.9415 14.8748 61.9331 14.9909 61.9161 15.0738H52.0132C52.1472 16.3344 52.5911 17.2798 53.3452 17.9101C54.1159 18.5403 54.9875 18.8555 55.9592 18.8555C56.8307 18.8555 57.5514 18.6647 58.1207 18.2832C58.6905 17.8852 59.1432 17.3959 59.4781 16.8154L61.7152 17.8852C61.1624 18.8804 60.4082 19.6931 59.4531 20.3234C58.498 20.937 57.3081 21.2439 55.8841 21.2439ZM55.7582 10.0482C54.8535 10.0482 54.0824 10.3219 53.4457 10.8692C52.809 11.4165 52.3817 12.1463 52.1638 13.0586H59.2772C59.2437 12.6273 59.1012 12.1795 58.8499 11.7151C58.5985 11.2507 58.2131 10.8609 57.6938 10.5458C57.191 10.214 56.5458 10.0482 55.7582 10.0482Z" fill="#FAFAFA"/>
<path d="M39.2826 21.244C37.9922 21.244 36.7773 21.0118 35.6379 20.5474C34.5151 20.083 33.5181 19.4361 32.6468 18.6068C31.7754 17.7609 31.0884 16.7741 30.5857 15.6462C30.0998 14.5017 29.8568 13.2661 29.8568 11.9392C29.8568 10.6123 30.0998 9.38487 30.5857 8.25702C31.0884 7.11255 31.7671 6.12567 32.6216 5.29638C33.493 4.45047 34.4984 3.79531 35.6379 3.3309C36.7773 2.86649 37.9922 2.63428 39.2826 2.63428C40.6565 2.63428 41.9215 2.87478 43.078 3.35578C44.2509 3.83677 45.2311 4.50851 46.0187 5.371L44.1085 7.23698C43.5218 6.59009 42.8181 6.09251 41.997 5.74422C41.1928 5.39588 40.2877 5.22172 39.2826 5.22172C38.0926 5.22172 36.9951 5.5037 35.9898 6.06763C34.9843 6.61497 34.1716 7.39453 33.5516 8.4063C32.9484 9.40148 32.6468 10.5791 32.6468 11.9392C32.6468 13.2992 32.9568 14.4852 33.5768 15.4969C34.1968 16.4921 35.0095 17.2716 36.0149 17.8356C37.0201 18.3829 38.1177 18.6566 39.3076 18.6566C40.3967 18.6566 41.3853 18.4576 42.2734 18.0595C43.1615 17.6448 43.8737 17.0643 44.41 16.318C44.9628 15.5716 45.2981 14.6759 45.4155 13.6309H39.2572V11.2177H48.0044C48.1049 11.6655 48.1549 12.1382 48.1549 12.6358V12.6607C48.1549 14.3857 47.7696 15.895 46.9989 17.1887C46.2447 18.4658 45.1976 19.461 43.8571 20.1742C42.5163 20.8874 40.9915 21.244 39.2826 21.244Z" fill="#FAFAFA"/>
<path d="M21.2974 10.7118C19.4573 9.91714 17.8472 8.82695 16.4665 7.44256C15.0866 6.0582 13.9998 4.4423 13.2077 2.59626C12.9036 1.88876 12.6593 1.16151 12.4719 0.415866C12.4108 0.172087 12.1929 0.000488281 11.9425 0.000488281C11.692 0.000488281 11.4741 0.172087 11.413 0.415866C11.2257 1.16151 10.9813 1.88808 10.6772 2.59626C9.88509 4.4423 8.79837 6.0582 7.41838 7.44256C6.03843 8.82695 4.42767 9.91714 2.58751 10.7118C1.88226 11.0169 1.15732 11.262 0.414055 11.45C0.171053 11.5112 0 11.7298 0 11.9811C0 12.2324 0.171053 12.4509 0.414055 12.5122C1.15732 12.7002 1.88158 12.9453 2.58751 13.2504C4.42767 14.045 6.03777 15.1353 7.41838 16.5196C8.79903 17.904 9.88509 19.5199 10.6772 21.3659C10.9813 22.0734 11.2257 22.8007 11.413 23.5463C11.4741 23.7901 11.692 23.9617 11.9425 23.9617C12.1929 23.9617 12.4108 23.7901 12.4719 23.5463C12.6593 22.8007 12.9036 22.0741 13.2077 21.3659C13.9998 19.5199 15.0866 17.9047 16.4665 16.5196C17.8465 15.1353 19.4573 14.045 21.2974 13.2504C22.0027 12.9453 22.7276 12.7002 23.4709 12.5122C23.7139 12.4509 23.8849 12.2324 23.8849 11.9811C23.8849 11.7298 23.7139 11.5112 23.4709 11.45C22.7276 11.262 22.0034 11.0169 21.2974 10.7118Z" fill="#FAFAFA"/>
<mask id="mask0_217_1284" style="mask-type:alpha" maskUnits="userSpaceOnUse" x="0" y="0" width="24" height="24">
<path d="M11.9424 0C12.1929 0 12.4107 0.171612 12.4718 0.415385C12.6592 1.16101 12.9035 1.8883 13.2076 2.59579C13.9997 4.44181 15.0866 6.0576 16.4665 7.44196C17.8471 8.82628 19.4571 9.91665 21.2973 10.7113C22.0031 11.0163 22.7275 11.2615 23.4707 11.4494C23.7137 11.5107 23.8847 11.7293 23.8848 11.9805C23.8848 12.2318 23.7137 12.4504 23.4707 12.5116C22.7275 12.6996 22.0025 12.9447 21.2973 13.2498C19.4571 14.0444 17.8465 15.1348 16.4665 16.5191C15.0866 17.9041 13.9997 19.5192 13.2076 21.3653C12.9035 22.0734 12.6592 22.8001 12.4718 23.5457C12.4108 23.7895 12.1929 23.961 11.9424 23.961C11.6919 23.961 11.4741 23.7894 11.413 23.5457C11.2256 22.8001 10.9813 22.0727 10.6772 21.3653C9.88509 19.5193 8.79885 17.9034 7.41827 16.5191C6.03762 15.1348 4.42767 14.0444 2.58753 13.2498C1.88161 12.9447 1.15732 12.6996 0.414062 12.5116C0.171066 12.4504 0 12.2318 0 11.9805C3.19344e-05 11.7293 0.171082 11.5107 0.414062 11.4494C1.15732 11.2615 1.88228 11.0164 2.58753 10.7113C4.42771 9.91662 6.03832 8.82631 7.41827 7.44196C8.79822 6.0576 9.88505 4.44185 10.6772 2.59579C10.9813 1.88761 11.2256 1.16102 11.413 0.415385C11.4741 0.171628 11.6919 3.20363e-05 11.9424 0Z" fill="black"/>
<path d="M11.9424 0C12.1929 0 12.4107 0.171612 12.4718 0.415385C12.6592 1.16101 12.9035 1.8883 13.2076 2.59579C13.9997 4.44181 15.0866 6.0576 16.4665 7.44196C17.8471 8.82628 19.4571 9.91665 21.2973 10.7113C22.0031 11.0163 22.7275 11.2615 23.4707 11.4494C23.7137 11.5107 23.8847 11.7293 23.8848 11.9805C23.8848 12.2318 23.7137 12.4504 23.4707 12.5116C22.7275 12.6996 22.0025 12.9447 21.2973 13.2498C19.4571 14.0444 17.8465 15.1348 16.4665 16.5191C15.0866 17.9041 13.9997 19.5192 13.2076 21.3653C12.9035 22.0734 12.6592 22.8001 12.4718 23.5457C12.4108 23.7895 12.1929 23.961 11.9424 23.961C11.6919 23.961 11.4741 23.7894 11.413 23.5457C11.2256 22.8001 10.9813 22.0727 10.6772 21.3653C9.88509 19.5193 8.79885 17.9034 7.41827 16.5191C6.03762 15.1348 4.42767 14.0444 2.58753 13.2498C1.88161 12.9447 1.15732 12.6996 0.414062 12.5116C0.171066 12.4504 0 12.2318 0 11.9805C3.19344e-05 11.7293 0.171082 11.5107 0.414062 11.4494C1.15732 11.2615 1.88228 11.0164 2.58753 10.7113C4.42771 9.91662 6.03832 8.82631 7.41827 7.44196C8.79822 6.0576 9.88505 4.44185 10.6772 2.59579C10.9813 1.88761 11.2256 1.16102 11.413 0.415385C11.4741 0.171628 11.6919 3.20363e-05 11.9424 0Z" fill="url(#paint0_linear_217_1284)"/>
</mask>
<g mask="url(#mask0_217_1284)">
<g filter="url(#filter0_f_217_1284)">
<path d="M-2.15646 18.7325C0.603256 19.7156 3.77518 17.8722 4.92824 14.6149C6.08129 11.3577 4.77884 7.92015 2.01912 6.93696C-0.740593 5.95377 -3.91252 7.79725 -5.06557 11.0545C-6.21863 14.3117 -4.91617 17.7493 -2.15646 18.7325Z" fill="#FAFAFA"/>
</g>
<g filter="url(#filter1_f_217_1284)">
<path d="M10.0968 7.99332C13.8882 7.99332 16.9616 4.84223 16.9616 0.955158C16.9616 -2.93191 13.8882 -6.08301 10.0968 -6.08301C6.30548 -6.08301 3.23199 -2.93191 3.23199 0.955158C3.23199 4.84223 6.30548 7.99332 10.0968 7.99332Z" fill="#FAFAFA"/>
</g>
<g filter="url(#filter2_f_217_1284)">
<path d="M7.42889 30.5017C11.3866 30.3076 14.3918 25.9807 14.1412 20.8372C13.8905 15.6938 10.479 11.6815 6.52126 11.8756C2.56353 12.0697 -0.441657 16.3966 -0.191022 21.5401C0.0596121 26.6835 3.47116 30.6958 7.42889 30.5017Z" fill="#FAFAFA"/>
</g>
<g filter="url(#filter3_f_217_1284)">
<path d="M7.42889 30.5017C11.3866 30.3076 14.3918 25.9807 14.1412 20.8372C13.8905 15.6938 10.479 11.6815 6.52126 11.8756C2.56353 12.0697 -0.441657 16.3966 -0.191022 21.5401C0.0596121 26.6835 3.47116 30.6958 7.42889 30.5017Z" fill="#FAFAFA"/>
</g>
<g filter="url(#filter4_f_217_1284)">
<path d="M11.3927 27.3901C14.7106 25.3649 15.5987 20.7526 13.3762 17.0882C11.1538 13.4238 6.66241 12.095 3.34449 14.1202C0.0265627 16.1454 -0.861495 20.7577 1.36095 24.4221C3.58341 28.0865 8.07477 29.4153 11.3927 27.3901Z" fill="#FAFAFA"/>
</g>
<g filter="url(#filter5_f_217_1284)">
<path d="M24.8036 15.8749C28.5329 15.8749 31.5561 12.9544 31.5561 9.35174C31.5561 5.74912 28.5329 2.82861 24.8036 2.82861C21.0743 2.82861 18.0511 5.74912 18.0511 9.35174C18.0511 12.9544 21.0743 15.8749 24.8036 15.8749Z" fill="#FAFAFA"/>
</g>
<g filter="url(#filter6_f_217_1284)">
<path d="M-4.80852 15.118C-1.37478 17.7376 3.64156 16.9157 6.39578 13.2824C9.15 9.64899 8.59914 4.58 5.1654 1.96043C1.73166 -0.659137 -3.28468 0.162706 -6.0389 3.79607C-8.79312 7.42943 -8.24226 12.4984 -4.80852 15.118Z" fill="#FAFAFA"/>
</g>
<g filter="url(#filter7_f_217_1284)">
<path d="M12.786 18.9896C16.8845 21.8164 22.3173 21.0289 24.9204 17.2306C27.5235 13.4323 26.3112 8.06155 22.2126 5.23469C18.114 2.40783 12.6813 3.19535 10.0782 6.99365C7.47509 10.792 8.68742 16.1627 12.786 18.9896Z" fill="#FAFAFA"/>
</g>
<g filter="url(#filter8_f_217_1284)">
<path d="M20.2371 -0.862634C21.2798 0.55958 19.94 3.32482 17.2445 5.31369C14.549 7.30259 11.5186 7.76195 10.4759 6.33975C9.43314 4.91754 10.773 2.1523 13.4685 0.163416C16.164 -1.82547 19.1944 -2.28484 20.2371 -0.862634Z" fill="#FAFAFA"/>
</g>
<g filter="url(#filter9_f_217_1284)">
<path d="M11.6772 5.94605C15.8458 2.06708 17.2766 -3.18482 14.873 -5.78439C12.4694 -8.38396 7.14159 -7.3468 2.97302 -3.46783C-1.19554 0.411137 -2.62632 5.66303 -0.222718 8.26261C2.18089 10.8622 7.50868 9.82502 11.6772 5.94605Z" fill="#FAFAFA"/>
</g>
<g filter="url(#filter10_f_217_1284)">
<path d="M3.13213 19.8787C5.60971 21.6577 8.45417 21.928 9.4854 20.4826C10.5166 19.0371 9.34414 16.4233 6.86655 14.6443C4.38897 12.8654 1.54451 12.5951 0.513279 14.0405C-0.517954 15.486 0.654543 18.0998 3.13213 19.8787Z" fill="#FAFAFA"/>
</g>
</g>
</g>
<defs>
<filter id="filter0_f_217_1284" x="-10.4049" y="1.75306" width="20.6725" height="22.1633" filterUnits="userSpaceOnUse" color-interpolation-filters="sRGB">
<feFlood flood-opacity="0" result="BackgroundImageFix"/>
<feBlend mode="normal" in="SourceGraphic" in2="BackgroundImageFix" result="shape"/>
<feGaussianBlur stdDeviation="2.45965" result="effect1_foregroundBlur_217_1284"/>
</filter>
<filter id="filter1_f_217_1284" x="-20.5502" y="-29.8652" width="61.2941" height="61.6406" filterUnits="userSpaceOnUse" color-interpolation-filters="sRGB">
<feFlood flood-opacity="0" result="BackgroundImageFix"/>
<feBlend mode="normal" in="SourceGraphic" in2="BackgroundImageFix" result="shape"/>
<feGaussianBlur stdDeviation="11.8911" result="effect1_foregroundBlur_217_1284"/>
</filter>
<filter id="filter2_f_217_1284" x="-20.4228" y="-8.34855" width="54.7958" height="59.074" filterUnits="userSpaceOnUse" color-interpolation-filters="sRGB">
<feFlood flood-opacity="0" result="BackgroundImageFix"/>
<feBlend mode="normal" in="SourceGraphic" in2="BackgroundImageFix" result="shape"/>
<feGaussianBlur stdDeviation="10.1086" result="effect1_foregroundBlur_217_1284"/>
</filter>
<filter id="filter3_f_217_1284" x="-20.4228" y="-8.34855" width="54.7958" height="59.074" filterUnits="userSpaceOnUse" color-interpolation-filters="sRGB">
<feFlood flood-opacity="0" result="BackgroundImageFix"/>
<feBlend mode="normal" in="SourceGraphic" in2="BackgroundImageFix" result="shape"/>
<feGaussianBlur stdDeviation="10.1086" result="effect1_foregroundBlur_217_1284"/>
</filter>
<filter id="filter4_f_217_1284" x="-20.0802" y="-7.04435" width="54.8975" height="55.5989" filterUnits="userSpaceOnUse" color-interpolation-filters="sRGB">
<feFlood flood-opacity="0" result="BackgroundImageFix"/>
<feBlend mode="normal" in="SourceGraphic" in2="BackgroundImageFix" result="shape"/>
<feGaussianBlur stdDeviation="10.1086" result="effect1_foregroundBlur_217_1284"/>
</filter>
<filter id="filter5_f_217_1284" x="-1.16111" y="-16.3836" width="51.9295" height="51.4709" filterUnits="userSpaceOnUse" color-interpolation-filters="sRGB">
<feFlood flood-opacity="0" result="BackgroundImageFix"/>
<feBlend mode="normal" in="SourceGraphic" in2="BackgroundImageFix" result="shape"/>
<feGaussianBlur stdDeviation="9.60613" result="effect1_foregroundBlur_217_1284"/>
</filter>
<filter id="filter6_f_217_1284" x="-25.2039" y="-16.9836" width="50.7647" height="51.0458" filterUnits="userSpaceOnUse" color-interpolation-filters="sRGB">
<feFlood flood-opacity="0" result="BackgroundImageFix"/>
<feBlend mode="normal" in="SourceGraphic" in2="BackgroundImageFix" result="shape"/>
<feGaussianBlur stdDeviation="8.70591" result="effect1_foregroundBlur_217_1284"/>
</filter>
<filter id="filter7_f_217_1284" x="-6.84267" y="-12.0109" width="48.6839" height="48.2459" filterUnits="userSpaceOnUse" color-interpolation-filters="sRGB">
<feFlood flood-opacity="0" result="BackgroundImageFix"/>
<feBlend mode="normal" in="SourceGraphic" in2="BackgroundImageFix" result="shape"/>
<feGaussianBlur stdDeviation="7.77473" result="effect1_foregroundBlur_217_1284"/>
</filter>
<filter id="filter8_f_217_1284" x="-3.79187" y="-15.6028" width="38.2967" height="36.6827" filterUnits="userSpaceOnUse" color-interpolation-filters="sRGB">
<feFlood flood-opacity="0" result="BackgroundImageFix"/>
<feBlend mode="normal" in="SourceGraphic" in2="BackgroundImageFix" result="shape"/>
<feGaussianBlur stdDeviation="6.95694" result="effect1_foregroundBlur_217_1284"/>
</filter>
<filter id="filter9_f_217_1284" x="-13.141" y="-18.9688" width="40.9323" height="40.4155" filterUnits="userSpaceOnUse" color-interpolation-filters="sRGB">
<feFlood flood-opacity="0" result="BackgroundImageFix"/>
<feBlend mode="normal" in="SourceGraphic" in2="BackgroundImageFix" result="shape"/>
<feGaussianBlur stdDeviation="5.87598" result="effect1_foregroundBlur_217_1284"/>
</filter>
<filter id="filter10_f_217_1284" x="-14.4061" y="-1.43373" width="38.8109" height="37.3909" filterUnits="userSpaceOnUse" color-interpolation-filters="sRGB">
<feFlood flood-opacity="0" result="BackgroundImageFix"/>
<feBlend mode="normal" in="SourceGraphic" in2="BackgroundImageFix" result="shape"/>
<feGaussianBlur stdDeviation="7.27253" result="effect1_foregroundBlur_217_1284"/>
</filter>
<linearGradient id="paint0_linear_217_1284" x1="6.78967" y1="16.0321" x2="19.228" y2="5.57884" gradientUnits="userSpaceOnUse">
<stop stop-color="#4893FC"/>
<stop offset="0.27" stop-color="#4893FC"/>
<stop offset="0.776981" stop-color="#969DFF"/>
<stop offset="1" stop-color="#BD99FE"/>
</linearGradient>
<clipPath id="clip0_217_1284">
<rect width="106" height="24" fill="white"/>
</clipPath>
</defs>
</svg>
