<svg width="101" height="24" viewBox="0 0 101 24" fill="none" xmlns="http://www.w3.org/2000/svg">
<g clip-path="url(#clip0_1040_27558)">
<path d="M93.0807 7.15235C92.6524 7.15235 92.2813 7.00447 91.9674 6.70872C91.6677 6.39892 91.5176 6.03275 91.5176 5.61028C91.5176 5.18781 91.6677 4.8287 91.9674 4.53296C92.2813 4.23722 92.6524 4.08936 93.0807 4.08936C93.5089 4.08936 93.8729 4.23722 94.1726 4.53296C94.4864 4.8287 94.6435 5.18781 94.6435 5.61028C94.6435 6.03275 94.4864 6.39892 94.1726 6.70872C93.8729 7.00447 93.5089 7.15235 93.0807 7.15235ZM91.9245 19.5099V8.73664H94.2365V19.5099H91.9245Z" fill="#FAFAFA"/>
<path d="M80.5117 19.5101V8.73691H82.6955V10.2156H82.8241C83.1379 9.69452 83.6019 9.26499 84.2157 8.92701C84.8436 8.57495 85.5286 8.39893 86.271 8.39893C87.6124 8.39893 88.6188 8.79324 89.2897 9.58185C89.9605 10.3705 90.296 11.4126 90.296 12.7082V19.5101H88.0049V13.004C88.0049 12.1308 87.7839 11.4971 87.3413 11.1028C86.8989 10.6944 86.3208 10.4902 85.6073 10.4902C85.0505 10.4902 84.5652 10.6451 84.1514 10.9549C83.7376 11.2507 83.4091 11.645 83.1664 12.1379C82.9382 12.6308 82.8241 13.1589 82.8241 13.7221V19.5101H80.5117Z" fill="#FAFAFA"/>
<path d="M77.6647 7.15235C77.2364 7.15235 76.8652 7.00447 76.5511 6.70872C76.2514 6.39892 76.1016 6.03275 76.1016 5.61028C76.1016 5.18781 76.2514 4.8287 76.5511 4.53296C76.8652 4.23722 77.2364 4.08936 77.6647 4.08936C78.0926 4.08936 78.4566 4.23722 78.7563 4.53296C79.0704 4.8287 79.2274 5.18781 79.2274 5.61028C79.2274 6.03275 79.0704 6.39892 78.7563 6.70872C78.4566 7.00447 78.0926 7.15235 77.6647 7.15235ZM76.5085 19.5099V8.73664H78.8205V19.5099H76.5085Z" fill="#FAFAFA"/>
<path d="M58.4263 19.5101V8.73691H60.6101V10.2156H60.7383C61.0524 9.69452 61.5092 9.26499 62.1086 8.92701C62.708 8.57495 63.3717 8.39893 64.0996 8.39893C64.9132 8.39893 65.6054 8.58903 66.1762 8.96927C66.7471 9.34948 67.154 9.82832 67.3967 10.4057C67.7535 9.8424 68.2388 9.37061 68.8526 8.9904C69.4661 8.59608 70.2157 8.39893 71.1004 8.39893C72.3851 8.39893 73.3412 8.78619 73.9692 9.56075C74.5974 10.3212 74.9112 11.3351 74.9112 12.6026V19.5101H72.6205V12.9828C72.6205 12.1238 72.4277 11.4971 72.0424 11.1028C71.6712 10.6944 71.1505 10.4902 70.4796 10.4902C69.9514 10.4902 69.4877 10.6381 69.088 10.9338C68.6883 11.2155 68.3745 11.6027 68.146 12.0956C67.9318 12.5885 67.8249 13.1377 67.8249 13.7433V19.5101H65.5342V12.9828C65.5342 12.1238 65.3414 11.4971 64.9561 11.1028C64.5705 10.6944 64.0282 10.4902 63.3291 10.4902C62.8152 10.4902 62.3654 10.6381 61.9801 10.9338C61.5948 11.2295 61.2879 11.6238 61.0596 12.1167C60.8455 12.6096 60.7383 13.1589 60.7383 13.7644V19.5101H58.4263Z" fill="#FAFAFA"/>
<path d="M51.9564 19.8481C50.8858 19.8481 49.9296 19.6017 49.0872 19.1088C48.2452 18.6159 47.5815 17.9399 47.0962 17.0809C46.6253 16.2218 46.3899 15.2431 46.3899 14.1447C46.3899 13.1166 46.6181 12.166 47.0749 11.2929C47.5317 10.4198 48.1668 9.7227 48.9803 9.20164C49.8083 8.6665 50.7572 8.39893 51.8278 8.39893C52.9552 8.39893 53.9116 8.63831 54.6966 9.11712C55.4957 9.59595 56.1024 10.2508 56.5165 11.0817C56.9303 11.9125 57.1372 12.849 57.1372 13.8912C57.1372 14.0461 57.13 14.1869 57.1159 14.3136C57.1159 14.4404 57.1087 14.539 57.0943 14.6094H48.6593C48.7734 15.6797 49.1515 16.4824 49.7939 17.0175C50.4503 17.5527 51.1927 17.8202 52.0203 17.8202C52.7627 17.8202 53.3765 17.6583 53.8615 17.3344C54.3468 16.9964 54.7324 16.5809 55.0177 16.0881L56.9231 16.9964C56.4522 17.8414 55.8099 18.5314 54.9963 19.0665C54.1828 19.5876 53.1693 19.8481 51.9564 19.8481ZM51.8491 10.3423C51.0786 10.3423 50.4218 10.5747 49.8794 11.0394C49.3371 11.5042 48.9731 12.1238 48.7875 12.8983H54.8465C54.818 12.5322 54.6966 12.1519 54.4825 11.7576C54.2684 11.3633 53.9402 11.0324 53.4978 10.7648C53.0696 10.4832 52.52 10.3423 51.8491 10.3423Z" fill="#FAFAFA"/>
<path d="M37.8159 19.8481C36.7168 19.8481 35.682 19.6509 34.7115 19.2566C33.7552 18.8623 32.9059 18.3131 32.1638 17.609C31.4216 16.8908 30.8364 16.0528 30.4082 15.0952C29.9943 14.1235 29.7874 13.0744 29.7874 11.9477C29.7874 10.8211 29.9943 9.779 30.4082 8.82139C30.8364 7.84967 31.4144 7.01175 32.1423 6.30764C32.8845 5.58941 33.7409 5.03314 34.7115 4.63884C35.682 4.24452 36.7168 4.04736 37.8159 4.04736C38.9862 4.04736 40.0637 4.25156 41.0487 4.65996C42.0478 5.06835 42.8827 5.63869 43.5535 6.37099L41.9265 7.95532C41.4268 7.40607 40.8274 6.9836 40.128 6.68788C39.443 6.39212 38.6721 6.24425 37.8159 6.24425C36.8024 6.24425 35.8675 6.48366 35.0112 6.96247C34.1548 7.4272 33.4626 8.08909 32.9345 8.94813C32.4207 9.7931 32.1638 10.793 32.1638 11.9477C32.1638 13.1025 32.4278 14.1094 32.9559 14.9685C33.484 15.8134 34.1762 16.4753 35.0326 16.9541C35.8888 17.4188 36.8237 17.6512 37.8372 17.6512C38.7649 17.6512 39.6069 17.4822 40.3634 17.1443C41.1199 16.7922 41.7265 16.2993 42.1832 15.6656C42.6541 15.0318 42.9397 14.2714 43.0397 13.3842H37.7943V11.3351H45.2449C45.3305 11.7154 45.3731 12.1167 45.3731 12.5392V12.5603C45.3731 14.0249 45.0449 15.3065 44.3884 16.4049C43.746 17.4893 42.8541 18.3342 41.7124 18.9398C40.5703 19.5453 39.2715 19.8481 37.8159 19.8481Z" fill="#FAFAFA"/>
<path d="M22.4967 10.906C20.9293 10.2313 19.5579 9.30569 18.3819 8.13026C17.2065 6.95486 16.2808 5.58287 15.6061 4.01548C15.3471 3.41477 15.139 2.79729 14.9794 2.1642C14.9274 1.95722 14.7418 1.81152 14.5284 1.81152C14.3151 1.81152 14.1295 1.95722 14.0775 2.1642C13.9179 2.79729 13.7097 3.41419 13.4507 4.01548C12.776 5.58287 11.8504 6.95486 10.6749 8.13026C9.49954 9.30569 8.12755 10.2313 6.56016 10.906C5.95945 11.165 5.34197 11.3732 4.70888 11.5328C4.5019 11.5848 4.3562 11.7704 4.3562 11.9837C4.3562 12.1971 4.5019 12.3827 4.70888 12.4347C5.34197 12.5943 5.95887 12.8024 6.56016 13.0614C8.12755 13.7361 9.49898 14.6618 10.6749 15.8372C11.8509 17.0126 12.776 18.3846 13.4507 19.952C13.7097 20.5527 13.9179 21.1702 14.0775 21.8032C14.1295 22.0103 14.3151 22.1559 14.5284 22.1559C14.7418 22.1559 14.9274 22.0103 14.9794 21.8032C15.139 21.1702 15.3471 20.5533 15.6061 19.952C16.2808 18.3846 17.2065 17.0132 18.3819 15.8372C19.5573 14.6618 20.9293 13.7361 22.4967 13.0614C23.0974 12.8024 23.7149 12.5943 24.3479 12.4347C24.5549 12.3827 24.7006 12.1971 24.7006 11.9837C24.7006 11.7704 24.5549 11.5848 24.3479 11.5328C23.7149 11.3732 23.0979 11.165 22.4967 10.906Z" fill="#FAFAFA"/>
<mask id="mask0_1040_27558" style="mask-type:alpha" maskUnits="userSpaceOnUse" x="4" y="1" width="21" height="22">
<path d="M14.5284 1.81104C14.7417 1.81104 14.9273 1.95674 14.9793 2.16372C15.1389 2.7968 15.347 3.41431 15.606 4.01501C16.2807 5.58238 17.2065 6.95428 18.3819 8.12968C19.5578 9.30504 20.9292 10.2308 22.4965 10.9055C23.0978 11.1645 23.7148 11.3727 24.3478 11.5322C24.5548 11.5843 24.7005 11.7699 24.7005 11.9832C24.7005 12.1965 24.5548 12.3821 24.3478 12.4341C23.7148 12.5937 23.0972 12.8018 22.4965 13.0608C20.9291 13.7356 19.5572 14.6613 18.3819 15.8367C17.2065 17.0127 16.2807 18.384 15.606 19.9514C15.347 20.5526 15.1389 21.1696 14.9793 21.8026C14.9273 22.0096 14.7417 22.1553 14.5284 22.1553C14.315 22.1553 14.1294 22.0096 14.0774 21.8026C13.9178 21.1696 13.7097 20.552 13.4507 19.9514C12.776 18.384 11.8508 17.0121 10.6748 15.8367C9.49885 14.6613 8.12755 13.7355 6.56018 13.0608C5.9589 12.8018 5.34197 12.5937 4.70889 12.4341C4.50191 12.3821 4.3562 12.1965 4.3562 11.9832C4.35623 11.7699 4.50192 11.5843 4.70889 11.5322C5.34197 11.3727 5.95947 11.1646 6.56018 10.9055C8.12758 10.2308 9.49945 9.30508 10.6748 8.12968C11.8502 6.95428 12.776 5.58241 13.4507 4.01501C13.7097 3.41373 13.9178 2.7968 14.0774 2.16372C14.1294 1.95676 14.315 1.81106 14.5284 1.81104Z" fill="black"/>
<path d="M14.5284 1.81104C14.7417 1.81104 14.9273 1.95674 14.9793 2.16372C15.1389 2.7968 15.347 3.41431 15.606 4.01501C16.2807 5.58238 17.2065 6.95428 18.3819 8.12968C19.5578 9.30504 20.9292 10.2308 22.4965 10.9055C23.0978 11.1645 23.7148 11.3727 24.3478 11.5322C24.5548 11.5843 24.7005 11.7699 24.7005 11.9832C24.7005 12.1965 24.5548 12.3821 24.3478 12.4341C23.7148 12.5937 23.0972 12.8018 22.4965 13.0608C20.9291 13.7356 19.5572 14.6613 18.3819 15.8367C17.2065 17.0127 16.2807 18.384 15.606 19.9514C15.347 20.5526 15.1389 21.1696 14.9793 21.8026C14.9273 22.0096 14.7417 22.1553 14.5284 22.1553C14.315 22.1553 14.1294 22.0096 14.0774 21.8026C13.9178 21.1696 13.7097 20.552 13.4507 19.9514C12.776 18.384 11.8508 17.0121 10.6748 15.8367C9.49885 14.6613 8.12755 13.7355 6.56018 13.0608C5.9589 12.8018 5.34197 12.5937 4.70889 12.4341C4.50191 12.3821 4.3562 12.1965 4.3562 11.9832C4.35623 11.7699 4.50192 11.5843 4.70889 11.5322C5.34197 11.3727 5.95947 11.1646 6.56018 10.9055C8.12758 10.2308 9.49945 9.30508 10.6748 8.12968C11.8502 6.95428 12.776 5.58241 13.4507 4.01501C13.7097 3.41373 13.9178 2.7968 14.0774 2.16372C14.1294 1.95676 14.315 1.81106 14.5284 1.81104Z" fill="url(#paint0_linear_1040_27558)"/>
</mask>
<g mask="url(#mask0_1040_27558)">
<g filter="url(#filter0_f_1040_27558)">
<path d="M2.5194 17.7155C4.87004 18.5503 7.57178 16.9851 8.55392 14.2195C9.53605 11.4539 8.42666 8.53525 6.07603 7.70047C3.72539 6.86569 1.02365 8.43091 0.0415123 11.1965C-0.940622 13.9621 0.168767 16.8807 2.5194 17.7155Z" fill="#FAFAFA"/>
</g>
<g filter="url(#filter1_f_1040_27558)">
<path d="M12.9566 8.5976C16.186 8.5976 18.8038 5.92214 18.8038 2.6218C18.8038 -0.678546 16.186 -3.354 12.9566 -3.354C9.72727 -3.354 7.10938 -0.678546 7.10938 2.6218C7.10938 5.92214 9.72727 8.5976 12.9566 8.5976Z" fill="#FAFAFA"/>
</g>
<g filter="url(#filter2_f_1040_27558)">
<path d="M10.6816 27.7077C14.0526 27.5424 16.6129 23.8682 16.4001 19.5011C16.1872 15.134 13.282 11.7277 9.91093 11.893C6.5399 12.0584 3.97964 15.7326 4.19245 20.0997C4.40525 24.4668 7.31053 27.8731 10.6816 27.7077Z" fill="#FAFAFA"/>
</g>
<g filter="url(#filter3_f_1040_27558)">
<path d="M10.6816 27.7077C14.0526 27.5424 16.6129 23.8682 16.4001 19.5011C16.1872 15.134 13.282 11.7277 9.91093 11.893C6.5399 12.0584 3.97964 15.7326 4.19245 20.0997C4.40525 24.4668 7.31053 27.8731 10.6816 27.7077Z" fill="#FAFAFA"/>
</g>
<g filter="url(#filter4_f_1040_27558)">
<path d="M14.0604 25.0666C16.8865 23.3471 17.643 19.431 15.75 16.3197C13.8569 13.2084 10.0313 12.0802 7.20525 13.7997C4.37914 15.5192 3.62272 19.4353 5.51574 22.5466C7.40875 25.6578 11.2343 26.7861 14.0604 25.0666Z" fill="#FAFAFA"/>
</g>
<g filter="url(#filter5_f_1040_27558)">
<path d="M25.4835 15.2894C28.6599 15.2894 31.235 12.8097 31.235 9.75091C31.235 6.69207 28.6599 4.2124 25.4835 4.2124C22.307 4.2124 19.7319 6.69207 19.7319 9.75091C19.7319 12.8097 22.307 15.2894 25.4835 15.2894Z" fill="#FAFAFA"/>
</g>
<g filter="url(#filter6_f_1040_27558)">
<path d="M0.260475 14.647C3.18522 16.8711 7.45798 16.1733 9.80393 13.0884C12.1499 10.0035 11.6807 5.6996 8.75593 3.47544C5.83118 1.25128 1.55843 1.94907 -0.787525 5.034C-3.13348 8.11893 -2.66428 12.4228 0.260475 14.647Z" fill="#FAFAFA"/>
</g>
<g filter="url(#filter7_f_1040_27558)">
<path d="M15.2468 17.9337C18.7379 20.3339 23.3653 19.6653 25.5826 16.4403C27.7998 13.2153 26.7672 8.65522 23.2761 6.25506C19.7851 3.8549 15.1577 4.52354 12.9404 7.74852C10.7232 10.9735 11.7558 15.5336 15.2468 17.9337Z" fill="#FAFAFA"/>
</g>
<g filter="url(#filter8_f_1040_27558)">
<path d="M21.5937 1.07855C22.4819 2.2861 21.3407 4.63394 19.0447 6.32261C16.7488 8.01129 14.1676 8.40132 13.2794 7.19379C12.3913 5.98625 13.5325 3.6384 15.8284 1.94973C18.1244 0.261056 20.7056 -0.128982 21.5937 1.07855Z" fill="#FAFAFA"/>
</g>
<g filter="url(#filter9_f_1040_27558)">
<path d="M14.3027 6.85917C17.8534 3.5657 19.0721 -0.893459 17.0247 -3.10064C14.9774 -5.30783 10.4394 -4.42722 6.88873 -1.13376C3.33809 2.15971 2.11939 6.61887 4.1667 8.82605C6.21402 11.0332 10.7521 10.1526 14.3027 6.85917Z" fill="#FAFAFA"/>
</g>
<g filter="url(#filter10_f_1040_27558)">
<path d="M7.02401 18.6889C9.13433 20.1993 11.5571 20.4288 12.4355 19.2016C13.3139 17.9743 12.3152 15.755 10.2049 14.2446C8.09455 12.7342 5.67173 12.5047 4.79336 13.7319C3.91498 14.9592 4.91368 17.1785 7.02401 18.6889Z" fill="#FAFAFA"/>
</g>
</g>
</g>
<defs>
<filter id="filter0_f_1040_27558" x="-4.49293" y="3.29931" width="17.5813" height="18.8174" filterUnits="userSpaceOnUse" color-interpolation-filters="sRGB">
<feFlood flood-opacity="0" result="BackgroundImageFix"/>
<feBlend mode="normal" in="SourceGraphic" in2="BackgroundImageFix" result="shape"/>
<feGaussianBlur stdDeviation="2.08838" result="effect1_foregroundBlur_1040_27558"/>
</filter>
<filter id="filter1_f_1040_27558" x="-13.0831" y="-23.5464" width="52.0794" height="52.3365" filterUnits="userSpaceOnUse" color-interpolation-filters="sRGB">
<feFlood flood-opacity="0" result="BackgroundImageFix"/>
<feBlend mode="normal" in="SourceGraphic" in2="BackgroundImageFix" result="shape"/>
<feGaussianBlur stdDeviation="10.0962" result="effect1_foregroundBlur_1040_27558"/>
</filter>
<filter id="filter2_f_1040_27558" x="-12.9854" y="-5.27834" width="46.5633" height="50.1573" filterUnits="userSpaceOnUse" color-interpolation-filters="sRGB">
<feFlood flood-opacity="0" result="BackgroundImageFix"/>
<feBlend mode="normal" in="SourceGraphic" in2="BackgroundImageFix" result="shape"/>
<feGaussianBlur stdDeviation="8.58277" result="effect1_foregroundBlur_1040_27558"/>
</filter>
<filter id="filter3_f_1040_27558" x="-12.9854" y="-5.27834" width="46.5633" height="50.1573" filterUnits="userSpaceOnUse" color-interpolation-filters="sRGB">
<feFlood flood-opacity="0" result="BackgroundImageFix"/>
<feBlend mode="normal" in="SourceGraphic" in2="BackgroundImageFix" result="shape"/>
<feGaussianBlur stdDeviation="8.58277" result="effect1_foregroundBlur_1040_27558"/>
</filter>
<filter id="filter4_f_1040_27558" x="-12.6924" y="-4.16994" width="46.6504" height="47.2066" filterUnits="userSpaceOnUse" color-interpolation-filters="sRGB">
<feFlood flood-opacity="0" result="BackgroundImageFix"/>
<feBlend mode="normal" in="SourceGraphic" in2="BackgroundImageFix" result="shape"/>
<feGaussianBlur stdDeviation="8.58277" result="effect1_foregroundBlur_1040_27558"/>
</filter>
<filter id="filter5_f_1040_27558" x="3.41964" y="-12.0999" width="44.1275" height="43.7017" filterUnits="userSpaceOnUse" color-interpolation-filters="sRGB">
<feFlood flood-opacity="0" result="BackgroundImageFix"/>
<feBlend mode="normal" in="SourceGraphic" in2="BackgroundImageFix" result="shape"/>
<feGaussianBlur stdDeviation="8.15615" result="effect1_foregroundBlur_1040_27558"/>
</filter>
<filter id="filter6_f_1040_27558" x="-17.0644" y="-12.6093" width="43.1454" height="43.3407" filterUnits="userSpaceOnUse" color-interpolation-filters="sRGB">
<feFlood flood-opacity="0" result="BackgroundImageFix"/>
<feBlend mode="normal" in="SourceGraphic" in2="BackgroundImageFix" result="shape"/>
<feGaussianBlur stdDeviation="7.39181" result="effect1_foregroundBlur_1040_27558"/>
</filter>
<filter id="filter7_f_1040_27558" x="-1.43016" y="-8.38743" width="41.3833" height="40.9638" filterUnits="userSpaceOnUse" color-interpolation-filters="sRGB">
<feFlood flood-opacity="0" result="BackgroundImageFix"/>
<feBlend mode="normal" in="SourceGraphic" in2="BackgroundImageFix" result="shape"/>
<feGaussianBlur stdDeviation="6.60119" result="effect1_foregroundBlur_1040_27558"/>
</filter>
<filter id="filter8_f_1040_27558" x="1.16436" y="-11.4367" width="32.5446" height="31.1459" filterUnits="userSpaceOnUse" color-interpolation-filters="sRGB">
<feFlood flood-opacity="0" result="BackgroundImageFix"/>
<feBlend mode="normal" in="SourceGraphic" in2="BackgroundImageFix" result="shape"/>
<feGaussianBlur stdDeviation="5.90684" result="effect1_foregroundBlur_1040_27558"/>
</filter>
<filter id="filter9_f_1040_27558" x="-6.80474" y="-14.295" width="34.8009" height="34.315" filterUnits="userSpaceOnUse" color-interpolation-filters="sRGB">
<feFlood flood-opacity="0" result="BackgroundImageFix"/>
<feBlend mode="normal" in="SourceGraphic" in2="BackgroundImageFix" result="shape"/>
<feGaussianBlur stdDeviation="4.98904" result="effect1_foregroundBlur_1040_27558"/>
</filter>
<filter id="filter10_f_1040_27558" x="-7.87497" y="0.593292" width="32.9789" height="31.747" filterUnits="userSpaceOnUse" color-interpolation-filters="sRGB">
<feFlood flood-opacity="0" result="BackgroundImageFix"/>
<feBlend mode="normal" in="SourceGraphic" in2="BackgroundImageFix" result="shape"/>
<feGaussianBlur stdDeviation="6.17479" result="effect1_foregroundBlur_1040_27558"/>
</filter>
<linearGradient id="paint0_linear_1040_27558" x1="10.1394" y1="15.4232" x2="20.706" y2="6.5146" gradientUnits="userSpaceOnUse">
<stop stop-color="#4893FC"/>
<stop offset="0.27" stop-color="#4893FC"/>
<stop offset="0.776981" stop-color="#969DFF"/>
<stop offset="1" stop-color="#BD99FE"/>
</linearGradient>
<clipPath id="clip0_1040_27558">
<rect width="90.2874" height="20.3774" fill="white" transform="translate(4.3562 1.81104)"/>
</clipPath>
</defs>
</svg>
