<svg width="18" height="18" viewBox="0 0 18 18" fill="none" xmlns="http://www.w3.org/2000/svg">
<path d="M13.3398 2C13.3398 0.89543 14.2353 0 15.3398 0H16.0098C17.1144 0 18.0098 0.895431 18.0098 2V16C18.0098 17.1046 17.1144 18 16.0098 18H15.3398C14.2353 18 13.3398 17.1046 13.3398 16V2Z" fill="#FAFAFA"/>
<path d="M8.66992 5.5C7.56535 5.5 6.66992 6.39543 6.66992 7.5V16C6.66992 17.1046 7.56535 18 8.66992 18H9.33992C10.4445 18 11.3399 17.1046 11.3399 16V7.5C11.3399 6.39543 10.4445 5.5 9.33992 5.5H8.66992Z" fill="#FAFAFA"/>
<path d="M2 11C0.895431 11 0 11.8954 0 13V16C0 17.1046 0.895431 18 2 18H2.67C3.77457 18 4.67 17.1046 4.67 16V13C4.67 11.8954 3.77457 11 2.67 11H2Z" fill="#FAFAFA"/>
</svg>
