<svg width="38" height="16" viewBox="0 0 38 16" fill="none" xmlns="http://www.w3.org/2000/svg">
<g clip-path="url(#clip0_100_520)">
<path d="M19.448 3.06689H20.864V10.0655C20.864 11.9109 20.0216 13.1992 18.0678 13.1992C17.3329 13.1992 16.7593 13.0773 16.365 12.938V11.5975C16.7952 11.7716 17.315 11.8587 17.8348 11.8587C19.0357 11.8587 19.448 11.1623 19.448 10.1525V3.06689Z" fill="#253858"/>
<path d="M23.4632 2.5271C24.0188 2.5271 24.4132 2.85788 24.4132 3.4498C24.4132 4.02431 24.0188 4.3725 23.4632 4.3725C22.9075 4.3725 22.5132 4.04172 22.5132 3.4498C22.5132 2.87529 22.9075 2.5271 23.4632 2.5271ZM22.7641 5.46929H24.1264V13.1295H22.7641V5.46929Z" fill="#253858"/>
<path d="M27.4961 13.1295H26.1697V5.46932H27.4961V6.80987C27.9621 5.90457 28.7508 5.26042 30.2923 5.34747V6.63577C28.5537 6.46167 27.4961 6.96652 27.4961 8.60302V13.1295Z" fill="#253858"/>
<path d="M36.6555 11.7542C36.1537 12.764 35.2037 13.2862 33.9848 13.2862C31.8876 13.2862 30.8301 11.5627 30.8301 9.29949C30.8301 7.14069 31.9414 5.31274 34.1461 5.31274C35.2933 5.31274 36.1895 5.81759 36.6555 6.80994V5.46939H38.0178V13.1296H36.6555V11.7542ZM34.3433 12.0676C35.5622 12.0676 36.6376 11.319 36.6376 9.61284V9.00354C36.6376 7.29739 35.6518 6.54879 34.4867 6.54879C32.9631 6.54879 32.1744 7.52374 32.1744 9.29949C32.1923 11.1449 32.9452 12.0676 34.3433 12.0676Z" fill="#253858"/>
<path d="M12.332 1.5H6.13013C6.13013 2.99722 7.38483 4.21588 8.92633 4.21588H10.0735V5.27785C10.0735 6.77505 11.3282 7.99375 12.8697 7.99375V2.02228C12.8697 1.72632 12.6367 1.5 12.332 1.5Z" fill="#2684FF"/>
<path d="M9.26695 4.49438H3.06506C3.06506 5.9916 4.31978 7.21025 5.8613 7.21025H7.00845V8.28965C7.00845 9.78685 8.2632 11.0056 9.8047 11.0056V5.01665C9.8047 4.73812 9.57165 4.49438 9.26695 4.49438Z" fill="url(#paint0_linear_100_520)"/>
<path d="M6.2019 7.50623H0C0 9.00343 1.25472 10.2221 2.79623 10.2221H3.94339V11.2841C3.94339 12.7813 5.1981 13.9999 6.7396 13.9999V8.02848C6.7396 7.73253 6.4887 7.50623 6.2019 7.50623Z" fill="url(#paint1_linear_100_520)"/>
</g>
<defs>
<linearGradient id="paint0_linear_100_520" x1="9.67275" y1="4.50941" x2="7.1151" y2="7.225" gradientUnits="userSpaceOnUse">
<stop offset="0.176" stop-color="#0052CC"/>
<stop offset="1" stop-color="#2684FF"/>
</linearGradient>
<linearGradient id="paint1_linear_100_520" x1="6.78005" y1="7.52623" x2="3.81781" y2="10.4937" gradientUnits="userSpaceOnUse">
<stop offset="0.176" stop-color="#0052CC"/>
<stop offset="1" stop-color="#2684FF"/>
</linearGradient>
<clipPath id="clip0_100_520">
<rect width="38" height="16" fill="white"/>
</clipPath>
</defs>
</svg>
