<svg width="18" height="17" viewBox="0 0 18 17" fill="none" xmlns="http://www.w3.org/2000/svg">
<path d="M16.7711 0H8.33662C8.33662 2.03622 10.043 3.6936 12.1395 3.6936H13.6996V5.13788C13.6996 7.17408 15.406 8.83151 17.5025 8.83151V0.710309C17.5025 0.307802 17.1856 0 16.7711 0Z" fill="#2684FF"/>
<path d="M12.6029 4.0719H4.16831C4.16831 6.10811 5.87472 7.76548 7.97119 7.76548H9.53132V9.23347C9.53132 11.2697 11.2378 12.9271 13.3342 12.9271V4.78218C13.3342 4.40337 13.0173 4.0719 12.6029 4.0719Z" fill="url(#paint0_linear_174_1201)"/>
<path d="M8.4346 8.16874H0C0 10.2049 1.70642 11.8623 3.80287 11.8623H5.36303V13.3066C5.36303 15.3428 7.06943 17.0002 9.16587 17.0002V8.879C9.16587 8.47651 8.82465 8.16874 8.4346 8.16874Z" fill="url(#paint1_linear_174_1201)"/>
<defs>
<linearGradient id="paint0_linear_174_1201" x1="13.1548" y1="4.09233" x2="9.67636" y2="7.78554" gradientUnits="userSpaceOnUse">
<stop offset="0.176" stop-color="#0052CC"/>
<stop offset="1" stop-color="#2684FF"/>
</linearGradient>
<linearGradient id="paint1_linear_174_1201" x1="9.22088" y1="8.19594" x2="5.19223" y2="12.2317" gradientUnits="userSpaceOnUse">
<stop offset="0.176" stop-color="#0052CC"/>
<stop offset="1" stop-color="#2684FF"/>
</linearGradient>
</defs>
</svg>
