<svg width="24" height="30" viewBox="0 0 24 30" fill="none" xmlns="http://www.w3.org/2000/svg">
<path fill-rule="evenodd" clip-rule="evenodd" d="M12 0C7.85786 0 4.5 3.35786 4.5 7.5V10.5H1.5C0.671573 10.5 0 11.1716 0 12V28.5C0 29.3284 0.671573 30 1.5 30H22.5C23.3284 30 24 29.3284 24 28.5V12C24 11.1716 23.3284 10.5 22.5 10.5H19.5V7.5C19.5 3.35786 16.1421 0 12 0ZM16.5 10.5V7.5C16.5 5.01472 14.4853 3 12 3C9.51472 3 7.5 5.01472 7.5 7.5V10.5H16.5ZM12 16.5C12.8284 16.5 13.5 17.1716 13.5 18V22.5C13.5 23.3284 12.8284 24 12 24C11.1716 24 10.5 23.3284 10.5 22.5V18C10.5 17.1716 11.1716 16.5 12 16.5Z" fill="#6938EF"/>
</svg>
