<svg width="55" height="16" viewBox="0 0 55 16" fill="none" xmlns="http://www.w3.org/2000/svg">
<path d="M52.0658 15.5976V4.69914H54.6029V15.5976H52.0658ZM53.3233 3.30925C52.8674 3.30925 52.4703 3.16218 52.132 2.86802C51.8084 2.55916 51.6466 2.15469 51.6466 1.65463C51.6466 1.15456 51.8084 0.757451 52.132 0.463295C52.4703 0.154432 52.8674 0 53.3233 0C53.8087 0 54.2058 0.154432 54.5146 0.463295C54.8382 0.757451 55 1.15456 55 1.65463C55 2.15469 54.8382 2.55916 54.5146 2.86802C54.2058 3.16218 53.8087 3.30925 53.3233 3.30925Z" fill="#FAFAFA"/>
<path d="M40.2064 15.5976V12.5531L46.4278 7.12593V6.795H40.427V4.69914H49.1634V7.74365L42.9421 13.1708V13.5018H49.3399V15.5976H40.2064Z" fill="#FAFAFA"/>
<path d="M33.0293 15.9065C31.941 15.9065 30.9776 15.6785 30.1393 15.2226C29.3156 14.7519 28.6685 14.0974 28.1978 13.2591C27.7419 12.406 27.5139 11.4132 27.5139 10.2807V10.016C27.5139 8.8688 27.7419 7.87602 28.1978 7.03768C28.6538 6.19933 29.2936 5.55219 30.1172 5.09625C30.9408 4.6256 31.8895 4.39027 32.9632 4.39027C34.0221 4.39027 34.9487 4.6256 35.7429 5.09625C36.5371 5.55219 37.1549 6.19933 37.5961 7.03768C38.0373 7.87602 38.258 8.85409 38.258 9.97188V10.8764H30.0731C30.1025 11.7295 30.404 12.4134 30.9776 12.9281C31.5512 13.4429 32.2572 13.7003 33.0955 13.7003C33.9192 13.7003 34.5295 13.5238 34.9266 13.1708C35.3238 12.8031 35.6253 12.3913 35.8312 11.9354L37.927 13.0164C37.7211 13.4135 37.4196 13.84 37.0225 14.296C36.6401 14.7372 36.1253 15.1196 35.4782 15.4432C34.831 15.752 34.0148 15.9065 33.0293 15.9065ZM30.0951 8.95704H35.6767C35.6179 8.23636 35.3385 7.66276 34.8384 7.23623C34.353 6.80971 33.7206 6.59644 32.9411 6.59644C32.1322 6.59644 31.485 6.80971 30.9997 7.23623C30.5143 7.66276 30.2128 8.23636 30.0951 8.95704Z" fill="#FAFAFA"/>
<path d="M20.2103 15.9065C19.1219 15.9065 18.1585 15.6785 17.3202 15.2226C16.4966 14.7519 15.8494 14.0974 15.3788 13.2591C14.9228 12.406 14.6949 11.4132 14.6949 10.2807V10.016C14.6949 8.8688 14.9228 7.87602 15.3788 7.03768C15.8347 6.19933 16.4745 5.55219 17.2981 5.09625C18.1218 4.6256 19.0704 4.39027 20.1441 4.39027C21.2031 4.39027 22.1296 4.6256 22.9239 5.09625C23.7181 5.55219 24.3358 6.19933 24.777 7.03768C25.2183 7.87602 25.4389 8.85409 25.4389 9.97188V10.8764H17.254C17.2834 11.7295 17.5849 12.4134 18.1585 12.9281C18.7321 13.4429 19.4381 13.7003 20.2765 13.7003C21.1001 13.7003 21.7105 13.5238 22.1076 13.1708C22.5047 12.8031 22.8062 12.3913 23.0121 11.9354L25.108 13.0164C24.9021 13.4135 24.6006 13.84 24.2034 14.296C23.821 14.7372 23.3063 15.1196 22.6591 15.4432C22.012 15.752 21.1957 15.9065 20.2103 15.9065ZM17.2761 8.95704H22.8577C22.7988 8.23636 22.5194 7.66276 22.0193 7.23623C21.534 6.80971 20.9015 6.59644 20.122 6.59644C19.3131 6.59644 18.666 6.80971 18.1806 7.23623C17.6952 7.66276 17.3937 8.23636 17.2761 8.95704Z" fill="#FAFAFA"/>
<path d="M0 15.5976V13.2591H2.0738V2.49297H0V0.154431H7.89808C8.82467 0.154431 9.6336 0.316217 10.3249 0.639789C11.0308 0.948653 11.575 1.39724 11.9574 1.98555C12.3545 2.55916 12.5531 3.25042 12.5531 4.05935V4.25791C12.5531 4.96388 12.4207 5.54484 12.156 6.00078C11.8913 6.45672 11.575 6.80971 11.2073 7.05974C10.8396 7.30977 10.4867 7.48627 10.1484 7.58922V7.96427C10.4867 8.05252 10.847 8.22166 11.2294 8.47169C11.6265 8.70701 11.9574 9.06 12.2222 9.53065C12.5016 9.98659 12.6413 10.5823 12.6413 11.3176V11.5383C12.6413 12.3766 12.4354 13.1046 12.0236 13.7224C11.6265 14.3254 11.075 14.7887 10.369 15.1123C9.67773 15.4358 8.87615 15.5976 7.96427 15.5976H0ZM4.7212 13.1929H7.65541C8.36138 13.1929 8.92028 13.0237 9.3321 12.6855C9.75862 12.3325 9.97188 11.8398 9.97188 11.2073V11.0088C9.97188 10.3763 9.76597 9.89099 9.35416 9.55271C8.94234 9.19972 8.37609 9.02323 7.65541 9.02323H4.7212V13.1929ZM4.7212 6.61851H7.63335C8.3099 6.61851 8.85409 6.44937 9.26591 6.11109C9.69244 5.77281 9.9057 5.30216 9.9057 4.69914V4.47852C9.9057 3.8755 9.69244 3.40485 9.26591 3.06657C8.85409 2.7283 8.3099 2.55916 7.63335 2.55916H4.7212V6.61851Z" fill="#FAFAFA"/>
</svg>
