<svg width="22" height="24" viewBox="0 0 22 24" fill="none" xmlns="http://www.w3.org/2000/svg">
<path d="M10.78 5.069V0.613697C10.78 0.141992 10.2693 -0.152835 9.86081 0.0829938L0.612844 5.4216C0.233618 5.64051 0 6.04512 0 6.483V10.9391C0 11.4108 0.510655 11.7056 0.919177 11.4698L10.1672 6.13036C10.5464 5.91144 10.78 5.50685 10.78 5.069Z" fill="#FAFAFA"/>
<path d="M10.7797 18.7541V23.3863C10.7797 23.858 11.2903 24.1528 11.6988 23.917L21.1 18.49C21.3844 18.3258 21.5596 18.0223 21.5596 17.6939V13.0609C21.5596 12.5892 21.049 12.2944 20.6405 12.5302L11.2393 17.9581C10.9549 18.1223 10.7797 18.4257 10.7797 18.7541Z" fill="#FAFAFA"/>
<path d="M18.4281 4.50013L0.459608 14.8739C0.175208 15.0381 9.49677e-06 15.3416 9.49677e-06 15.67V17.6939C9.49677e-06 18.0223 0.175296 18.3259 0.459809 18.49L2.2665 19.5325C2.55091 19.6966 2.90127 19.6965 3.18561 19.5323L21.1005 9.18465C21.3848 9.02043 21.5599 8.71703 21.5599 8.3887V6.30802C21.5599 5.97959 21.3847 5.67612 21.1002 5.51194L19.3472 4.50009C19.0628 4.33595 18.7125 4.33596 18.4281 4.50013Z" fill="#FAFAFA"/>
</svg>
