<svg width="94" height="32" viewBox="0 0 94 32" fill="none" xmlns="http://www.w3.org/2000/svg">
<g clip-path="url(#clip0_35_935)">
<path d="M15.5555 8.6263V4.17213C15.5555 3.70055 15.045 3.4058 14.6366 3.64157L5.39101 8.97881C5.01188 9.19768 4.77832 9.60218 4.77832 10.0399V14.4949C4.77832 14.9665 5.28885 15.2612 5.69726 15.0254L14.9429 9.6874C15.322 9.46853 15.5555 9.06404 15.5555 8.6263Z" fill="#FAFAFA"/>
<path d="M15.5553 22.3079V26.939C15.5553 27.4105 16.0658 27.7053 16.4742 27.4695L25.873 22.0439C26.1573 21.8797 26.3325 21.5763 26.3325 21.248V16.6162C26.3325 16.1446 25.822 15.8499 25.4136 16.0857L16.0147 21.5121C15.7304 21.6763 15.5553 21.9796 15.5553 22.3079Z" fill="#FAFAFA"/>
<path d="M23.2018 8.05758L5.23781 18.4287C4.95348 18.5929 4.77833 18.8963 4.77833 19.2246V21.248C4.77833 21.5764 4.95357 21.8798 5.23801 22.0439L7.04424 23.0861C7.32859 23.2502 7.67885 23.2501 7.96312 23.0859L25.8734 12.7409C26.1577 12.5767 26.3328 12.2734 26.3328 11.9452V9.86501C26.3328 9.53667 26.1576 9.23327 25.8732 9.06913L24.1206 8.05754C23.8363 7.89344 23.4861 7.89346 23.2018 8.05758Z" fill="#FAFAFA"/>
</g>
<path d="M87.1477 23.5748V12.7755H89.6617V23.5748H87.1477ZM88.3938 11.3983C87.942 11.3983 87.5485 11.2525 87.2133 10.961C86.8927 10.655 86.7323 10.2542 86.7323 9.75868C86.7323 9.26316 86.8927 8.86966 87.2133 8.57818C87.5485 8.27213 87.942 8.1191 88.3938 8.1191C88.8747 8.1191 89.2682 8.27213 89.5743 8.57818C89.8949 8.86966 90.0552 9.26316 90.0552 9.75868C90.0552 10.2542 89.8949 10.655 89.5743 10.961C89.2682 11.2525 88.8747 11.3983 88.3938 11.3983Z" fill="#FAFAFA"/>
<path d="M75.3962 23.5748V20.558L81.561 15.1802V14.8523H75.6148V12.7755H84.2718V15.7923L78.107 21.1701V21.498H84.4467V23.5748H75.3962Z" fill="#FAFAFA"/>
<path d="M68.2846 23.8809C67.2061 23.8809 66.2515 23.655 65.4208 23.2032C64.6046 22.7368 63.9634 22.0883 63.497 21.2576C63.0452 20.4123 62.8193 19.4285 62.8193 18.3063V18.044C62.8193 16.9072 63.0452 15.9235 63.497 15.0928C63.9488 14.262 64.5828 13.6208 65.3989 13.169C66.215 12.7026 67.1551 12.4694 68.219 12.4694C69.2683 12.4694 70.1865 12.7026 70.9735 13.169C71.7605 13.6208 72.3726 14.262 72.8098 15.0928C73.247 15.9235 73.4656 16.8927 73.4656 18.0003V18.8966H65.3552C65.3843 19.7419 65.6831 20.4196 66.2515 20.9297C66.8199 21.4397 67.5194 21.6948 68.3501 21.6948C69.1663 21.6948 69.7711 21.5199 70.1646 21.1701C70.5581 20.8058 70.8569 20.3977 71.0609 19.9459L73.1377 21.0171C72.9337 21.4106 72.6349 21.8332 72.2414 22.285C71.8625 22.7223 71.3524 23.1012 70.7111 23.4218C70.0699 23.7279 69.261 23.8809 68.2846 23.8809ZM65.377 16.9947H70.9079C70.8496 16.2805 70.5727 15.7122 70.0772 15.2895C69.5962 14.8669 68.9695 14.6555 68.1971 14.6555C67.3955 14.6555 66.7543 14.8669 66.2733 15.2895C65.7924 15.7122 65.4936 16.2805 65.377 16.9947Z" fill="#FAFAFA"/>
<path d="M55.5821 23.8809C54.5036 23.8809 53.549 23.655 52.7183 23.2032C51.9022 22.7368 51.2609 22.0883 50.7945 21.2576C50.3427 20.4123 50.1168 19.4285 50.1168 18.3063V18.044C50.1168 16.9072 50.3427 15.9235 50.7945 15.0928C51.2463 14.262 51.8803 13.6208 52.6964 13.169C53.5126 12.7026 54.4526 12.4694 55.5165 12.4694C56.5658 12.4694 57.484 12.7026 58.271 13.169C59.058 13.6208 59.6701 14.262 60.1073 15.0928C60.5446 15.9235 60.7632 16.8927 60.7632 18.0003V18.8966H52.6527C52.6819 19.7419 52.9806 20.4196 53.549 20.9297C54.1174 21.4397 54.817 21.6948 55.6477 21.6948C56.4638 21.6948 57.0686 21.5199 57.4621 21.1701C57.8556 20.8058 58.1544 20.3977 58.3584 19.9459L60.4352 21.0171C60.2312 21.4106 59.9324 21.8332 59.5389 22.285C59.16 22.7223 58.6499 23.1012 58.0087 23.4218C57.3674 23.7279 56.5586 23.8809 55.5821 23.8809ZM52.6746 16.9947H58.2054C58.1471 16.2805 57.8702 15.7122 57.3747 15.2895C56.8938 14.8669 56.2671 14.6555 55.4947 14.6555C54.6931 14.6555 54.0518 14.8669 53.5709 15.2895C53.0899 15.7122 52.7912 16.2805 52.6746 16.9947Z" fill="#FAFAFA"/>
<path d="M35.5555 23.5748V21.2576H37.6105V10.5894H35.5555V8.27213H43.3818C44.2999 8.27213 45.1015 8.43244 45.7865 8.75307C46.486 9.05912 47.0253 9.50363 47.4042 10.0866C47.7977 10.655 47.9944 11.34 47.9944 12.1415V12.3383C47.9944 13.0378 47.8633 13.6135 47.601 14.0653C47.3386 14.5171 47.0253 14.8669 46.6609 15.1146C46.2966 15.3624 45.9468 15.5373 45.6116 15.6393V16.0109C45.9468 16.0984 46.3039 16.266 46.6828 16.5137C47.0763 16.7469 47.4042 17.0967 47.6665 17.5631C47.9434 18.0149 48.0819 18.6051 48.0819 19.3338V19.5524C48.0819 20.3831 47.8779 21.1045 47.4698 21.7167C47.0763 22.3142 46.5298 22.7733 45.8302 23.0939C45.1452 23.4145 44.3509 23.5748 43.4474 23.5748H35.5555ZM40.2338 21.192H43.1413C43.8409 21.192 44.3947 21.0244 44.8027 20.6892C45.2254 20.3394 45.4367 19.8512 45.4367 19.2245V19.0278C45.4367 18.4011 45.2327 17.9201 44.8246 17.5849C44.4165 17.2351 43.8554 17.0603 43.1413 17.0603H40.2338V21.192ZM40.2338 14.6774H43.1194C43.7898 14.6774 44.3291 14.5098 44.7372 14.1746C45.1598 13.8394 45.3711 13.373 45.3711 12.7755V12.5569C45.3711 11.9594 45.1598 11.493 44.7372 11.1578C44.3291 10.8226 43.7898 10.655 43.1194 10.655H40.2338V14.6774Z" fill="#FAFAFA"/>
<defs>
<clipPath id="clip0_35_935">
<rect width="24.8889" height="24.8889" fill="white" transform="translate(3.55554 3.55556)"/>
</clipPath>
</defs>
</svg>
