<svg width="101" height="24" viewBox="0 0 101 24" fill="none" xmlns="http://www.w3.org/2000/svg">
<g clip-path="url(#clip0_1040_27507)">
<path d="M8.0939 15.2526L11.9794 13.0774L12.0447 12.8884L11.9794 12.7833H11.79L11.1407 12.7434L8.9206 12.6836L6.99521 12.6037L5.12982 12.504L4.66047 12.4042L4.22046 11.8254L4.26579 11.5367L4.66047 11.272L5.22582 11.3212L6.47519 11.4064L8.34991 11.5354L9.70995 11.6152L11.7247 11.8241H12.0447L12.09 11.6951L11.9807 11.6152L11.8953 11.5354L9.95529 10.2236L7.85523 8.8373L6.7552 8.03904L6.16052 7.63459L5.86051 7.25541L5.73117 6.42789L6.27118 5.83452L6.99654 5.88374L7.18188 5.93297L7.91657 6.49707L9.48594 7.70909L11.5353 9.21514L11.8353 9.46393L11.9554 9.37878L11.97 9.31891L11.8353 9.09407L10.7206 7.08379L9.53128 5.03892L9.00193 4.19144L8.86193 3.68321C8.81259 3.47434 8.77659 3.29872 8.77659 3.08452L9.39128 2.25167L9.73129 2.14258L10.5513 2.25167L10.8967 2.55102L11.406 3.71381L12.2314 5.54448L13.5114 8.03372L13.8861 8.7721L14.0861 9.45594L14.1607 9.66482H14.2901V9.54508L14.3954 8.14281L14.5901 6.42124L14.7794 4.20607L14.8448 3.5821L15.1541 2.8344L15.7688 2.42995L16.2488 2.65878L16.6435 3.22289L16.5888 3.58742L16.3541 5.10943L15.8941 7.49356L15.5941 9.09008H15.7688L15.9688 8.89051L16.7782 7.81819L18.1382 6.12189L18.7382 5.44869L19.4382 4.70498L19.8876 4.35109H20.7369L21.3623 5.2784L21.0823 6.23631L20.2076 7.34322L19.4822 8.28118L18.4422 9.67813L17.7929 10.7957L17.8529 10.8848L18.0075 10.8702L20.3569 10.3713L21.6263 10.1424L23.141 9.88301L23.8264 10.2023L23.901 10.5269L23.6317 11.1908L22.0116 11.59L20.1116 11.9691L17.2822 12.637L17.2475 12.6623L17.2875 12.7115L18.5622 12.8312L19.1076 12.8605H20.4423L22.9277 13.0454L23.577 13.4738L23.9664 13.998L23.901 14.3972L22.901 14.9054L21.5516 14.5861L18.4022 13.8384L17.3222 13.5696H17.1728V13.6588L18.0729 14.5368L19.7222 16.0229L21.7876 17.9388L21.893 18.4124L21.6276 18.7862L21.3476 18.7463L19.5329 17.384L18.8329 16.7706L17.2475 15.4389H17.1422V15.5786L17.5075 16.1121L19.4369 19.0058L19.5369 19.8932L19.3969 20.1819L18.8969 20.3561L18.3475 20.2564L17.2182 18.6745L16.0528 16.893L15.1128 15.2965L14.9981 15.3617L14.4434 21.3234L14.1834 21.628L13.5834 21.8569L13.0834 21.4777L12.818 20.8644L13.0834 19.6523L13.4034 18.0705L13.6634 16.8132L13.8981 15.2513L14.0381 14.7324L14.0287 14.6978L13.9141 14.7125L12.734 16.3289L10.9393 18.749L9.51928 20.2657L9.17927 20.4L8.58992 20.0954L8.64459 19.5512L8.97393 19.067L10.9393 16.5724L12.1247 15.0264L12.89 14.1337L12.8847 14.0047H12.8394L7.61922 17.3866L6.68986 17.5064L6.28985 17.1325L6.33919 16.5192L6.52853 16.3196L8.0979 15.242L8.09257 15.2473L8.0939 15.2526Z" fill="#FAFAFA"/>
<path d="M36.4574 18.8798C33.948 18.8798 32.2319 17.4828 31.4226 15.3329C30.9999 14.2127 30.7905 13.0232 30.8079 11.8259C30.8079 8.21907 32.4279 5.71387 36.008 5.71387C38.4134 5.71387 39.8975 6.76092 40.7428 9.2608H41.7722L41.6322 5.81366C40.1922 4.88635 38.3921 4.41671 36.2027 4.41671C33.1173 4.41671 30.4932 5.7937 29.0332 8.27761C28.2785 9.58941 27.8958 11.0808 27.9238 12.5935C27.9238 15.3528 29.2292 17.7968 31.6786 19.1539C33.0199 19.8683 34.524 20.2235 36.044 20.181C38.4334 20.181 40.3295 19.7273 42.0095 18.9343L42.4442 15.1333H41.3949C40.7655 16.8695 40.0148 17.9126 38.7694 18.466C38.1601 18.7401 37.3894 18.8798 36.46 18.8798H36.4574ZM47.2817 5.71387L47.3817 4.01758H46.6723L43.5123 4.96484V5.47839L44.9123 6.12631V17.9897C44.9123 18.7973 44.4976 18.9769 43.4122 19.1126V19.9801H48.7871V19.1126C47.6977 18.9782 47.287 18.7986 47.287 17.9897V5.71787L47.2817 5.71254V5.71387ZM68.657 20.1823H69.0717L72.7064 19.4945V18.6071L72.1971 18.5671C71.3477 18.4873 71.1277 18.313 71.1277 17.6199V11.2937L71.2277 9.26346H70.653L67.2183 9.75705V10.6245L67.5529 10.6844C68.4823 10.8187 68.7583 11.0782 68.7583 11.7274V17.3644C67.869 18.0523 67.0183 18.4873 66.0089 18.4873C64.8889 18.4873 64.1942 17.9192 64.1942 16.5915V11.2977L64.2942 9.26745H63.7048L60.2647 9.76104V10.6285L60.6194 10.6883C61.5488 10.8227 61.8248 11.0822 61.8248 11.7314V16.9347C61.8248 19.1392 63.0742 20.1876 65.0649 20.1876C66.5849 20.1876 67.8303 19.38 68.765 18.2572L68.665 20.1876L68.6596 20.1823H68.657ZM58.6674 13.1629C58.6674 10.3438 57.1673 9.26213 54.4579 9.26213C52.0685 9.26213 50.3324 10.2493 50.3324 11.8857C50.3324 12.374 50.5071 12.7492 50.8618 13.0086L52.6819 12.7691C52.6018 12.221 52.5618 11.8857 52.5618 11.746C52.5618 10.8187 53.0565 10.3491 54.0619 10.3491C55.5473 10.3491 56.2966 11.3921 56.2966 13.0685V13.6166L52.5472 14.7395C51.2978 15.0788 50.5871 15.3728 50.1124 16.0619C49.8604 16.4837 49.7391 16.9693 49.7631 17.4589C49.7631 19.0554 50.8631 20.1823 52.7432 20.1823C54.1032 20.1823 55.3086 19.569 56.358 18.4062C56.7326 19.569 57.3073 20.1823 58.3327 20.1823C59.162 20.1823 59.9127 19.8483 60.5821 19.1951L60.3821 18.5073C60.0927 18.5871 59.8127 18.627 59.5167 18.627C58.942 18.627 58.6674 18.1733 58.6674 17.2846V13.1643V13.1629ZM53.8672 18.5858C52.8419 18.5858 52.2072 17.9924 52.2072 16.9493C52.2072 16.2416 52.5418 15.8265 53.2565 15.587L56.2966 14.6238V17.5374C55.3273 18.2705 54.7566 18.5844 53.8672 18.5844V18.5858ZM85.5161 19.4931V18.6057L85.0015 18.5658C84.1521 18.486 83.9361 18.3117 83.9361 17.6185V5.71521L84.0361 4.01891H83.3214L80.1613 4.96617V5.47972L81.5614 6.12764V10.0285C80.7733 9.48963 79.8306 9.21955 78.8759 9.2608C75.7359 9.2608 73.2864 11.6449 73.2864 15.2131C73.2864 18.152 75.0465 20.1823 77.9466 20.1823C79.4466 20.1823 80.752 19.4545 81.5614 18.3263L81.4613 20.1823H81.8814L85.5161 19.4945V19.4931ZM78.9359 10.4435C80.436 10.4435 81.5614 11.311 81.5614 12.9075V17.3977C80.8707 18.0842 79.9306 18.462 78.9559 18.4447C76.8066 18.4447 75.7158 16.7484 75.7158 14.4841C75.7158 11.9403 76.9612 10.4435 78.9359 10.4435ZM93.2017 12.6893C92.9217 11.3722 92.1123 10.6245 90.987 10.6245C89.3069 10.6245 88.1415 11.8871 88.1415 13.6978C88.1415 16.3773 89.5616 18.1135 91.8563 18.1135C93.387 18.0975 94.7951 17.2713 95.5511 15.9435L96.2204 16.1231C95.9204 18.4474 93.811 20.1836 91.2203 20.1836C88.1802 20.1836 86.0855 17.9392 86.0855 14.7462C86.0855 11.5531 88.3602 9.26346 91.4003 9.26346C93.6697 9.26346 95.2698 10.6258 95.7858 12.99L87.8655 15.414V14.347L93.2004 12.696V12.6906L93.2017 12.6893Z" fill="#FAFAFA"/>
</g>
<defs>
<clipPath id="clip0_1040_27507">
<rect width="92" height="19.7143" fill="white" transform="translate(4.22046 2.14258)"/>
</clipPath>
</defs>
</svg>
