<svg width="112" height="24" viewBox="0 0 112 24" fill="none" xmlns="http://www.w3.org/2000/svg">
<g clip-path="url(#clip0_35_970)">
<path d="M4.7155 15.9601L9.44561 13.3119L9.52515 13.0819L9.44561 12.954H9.21511L8.42459 12.9054L5.72191 12.8325L3.37795 12.7353L1.10705 12.6138L0.535668 12.4924L0 11.7878L0.0551907 11.4364L0.535668 11.1141L1.22392 11.174L2.74489 11.2776L5.02716 11.4347L6.68286 11.5319L9.13557 11.7862H9.52515L9.58034 11.6291L9.44723 11.5319L9.34334 11.4347L6.98154 9.83776L4.42494 8.15009L3.08577 7.1783L2.36181 6.68592L1.99658 6.22432L1.83913 5.2169L2.49654 4.49453L3.37958 4.55446L3.60521 4.61439L4.49961 5.30112L6.41016 6.77662L8.90507 8.61007L9.2703 8.91294L9.41639 8.80929L9.43425 8.7364L9.2703 8.46268L7.91327 6.01539L6.46535 3.52598L5.82092 2.49426L5.65048 1.87556C5.59042 1.62127 5.5466 1.40748 5.5466 1.14671L6.29491 0.132813L6.70883 0L7.70712 0.132813L8.12754 0.497234L8.74762 1.91281L9.7524 4.14145L11.3107 7.17182L11.7668 8.07072L12.0103 8.90323L12.1012 9.15751H12.2587V9.01175L12.3869 7.30463L12.6239 5.2088L12.8544 2.51208L12.9339 1.75246L13.3105 0.842219L14.0588 0.349845L14.6432 0.628426L15.1237 1.31516L15.0571 1.75894L14.7714 3.61182L14.2114 6.51424L13.8462 8.45782H14.0588L14.3023 8.21487L15.2876 6.90944L16.9433 4.84438L17.6738 4.02484L18.526 3.11945L19.073 2.68862H20.107L20.8683 3.81752L20.5274 4.98367L19.4626 6.33122L18.5796 7.47308L17.3134 9.17371L16.5229 10.5342L16.596 10.6427L16.7843 10.6249L19.6444 10.0175L21.1897 9.73897L23.0337 9.42313L23.8681 9.81185L23.959 10.207L23.6311 11.0153L21.6588 11.5012L19.3457 11.9628L15.9012 12.7758L15.859 12.8066L15.9077 12.8665L17.4595 13.0123L18.1234 13.0479H19.7483L22.774 13.273L23.5645 13.7946L24.0385 14.4327L23.959 14.9186L22.7415 15.5373L21.0988 15.1486L17.2647 14.2384L15.9499 13.9112H15.7681V14.0197L16.8638 15.0887L18.8717 16.8978L21.3861 19.2301L21.5144 19.8067L21.1913 20.2618L20.8505 20.2133L18.6412 18.5547L17.789 17.8081L15.859 16.1868H15.7308V16.3569L16.1755 17.0063L18.5244 20.5291L18.6461 21.6094L18.4757 21.9609L17.867 22.173L17.1982 22.0516L15.8233 20.1258L14.4046 17.9571L13.2602 16.0135L13.1206 16.0929L12.4453 23.3505L12.1288 23.7214L11.3984 24L10.7896 23.5384L10.4666 22.7917L10.7896 21.3162L11.1792 19.3905L11.4958 17.8599L11.7814 15.9584L11.9519 15.3268L11.9405 15.2847L11.8009 15.3025L10.3644 17.2703L8.17948 20.2165L6.45074 22.0629L6.03681 22.2265L5.31934 21.8556L5.3859 21.1931L5.78683 20.6036L8.17948 17.5667L9.62254 15.6847L10.5543 14.5979L10.5478 14.4408H10.4926L4.13763 18.558L3.00623 18.7037L2.51926 18.2486L2.57932 17.502L2.80982 17.259L4.72037 15.9471L4.71388 15.9536L4.7155 15.9601Z" fill="#FAFAFA"/>
<path d="M39.2449 20.3754C36.19 20.3754 34.1009 18.6747 33.1156 16.0574C32.601 14.6936 32.3462 13.2456 32.3673 11.788C32.3673 7.39709 34.3395 4.34728 38.6979 4.34728C41.6262 4.34728 43.4329 5.62195 44.462 8.66527H45.7152L45.5447 4.46876C43.7916 3.33986 41.6003 2.76812 38.9349 2.76812C35.1787 2.76812 31.9842 4.44446 30.2068 7.46835C29.288 9.06533 28.8221 10.881 28.8562 12.7225C28.8562 16.0817 30.4454 19.057 33.4273 20.709C35.0602 21.5788 36.8913 22.0112 38.7417 21.9594C41.6506 21.9594 43.9588 21.4071 46.0041 20.4418L46.5333 15.8144H45.2558C44.4896 17.9281 43.5757 19.1979 42.0596 19.8716C41.3178 20.2053 40.3796 20.3754 39.2482 20.3754H39.2449ZM52.4224 4.34728L52.5441 2.28223H51.6806L47.8335 3.43542V4.06061L49.5379 4.84938V19.2918C49.5379 20.2749 49.0331 20.4936 47.7117 20.6588V21.7148H54.255V20.6588C52.9288 20.4952 52.4289 20.2766 52.4289 19.2918V4.35214L52.4224 4.34566V4.34728ZM78.4445 21.961H78.9493L83.3742 21.1236V20.0433L82.7542 19.9947C81.7202 19.8976 81.4523 19.6854 81.4523 18.8415V11.1401L81.5741 8.66851H80.8744L76.693 9.26941V10.3254L77.1004 10.3983C78.2318 10.5619 78.5678 10.8777 78.5678 11.6681V18.5306C77.4851 19.3679 76.4495 19.8976 75.2207 19.8976C73.8572 19.8976 73.0115 19.206 73.0115 17.5896V11.145L73.1332 8.67337H72.4158L68.2278 9.27427V10.3303L68.6596 10.4032C69.791 10.5667 70.127 10.8826 70.127 11.673V18.0074C70.127 20.6912 71.648 21.9675 74.0715 21.9675C75.922 21.9675 77.4381 20.9843 78.5759 19.6174L78.4542 21.9675L78.4477 21.961H78.4445ZM66.2832 13.4157C66.2832 9.98367 64.457 8.6669 61.1586 8.6669C58.2498 8.6669 56.1363 9.86868 56.1363 11.8608C56.1363 12.4553 56.349 12.912 56.7808 13.2278L58.9965 12.9363C58.8991 12.269 58.8504 11.8608 58.8504 11.6908C58.8504 10.5619 59.4526 9.99015 60.6765 9.99015C62.4848 9.99015 63.3971 11.26 63.3971 13.3007V13.968L58.8325 15.335C57.3116 15.748 56.4464 16.106 55.8685 16.9449C55.5617 17.4584 55.414 18.0495 55.4432 18.6456C55.4432 20.5891 56.7824 21.961 59.0711 21.961C60.7268 21.961 62.1943 21.2143 63.4717 19.7988C63.9279 21.2143 64.6275 21.961 65.8757 21.961C66.8854 21.961 67.7993 21.5545 68.6141 20.7592L68.3707 19.9219C68.0184 20.019 67.6775 20.0676 67.3172 20.0676C66.6176 20.0676 66.2832 19.5153 66.2832 18.4334V13.4173V13.4157ZM60.4395 20.0174C59.1913 20.0174 58.4186 19.2951 58.4186 18.0252C58.4186 17.1636 58.826 16.6583 59.6961 16.3667L63.3971 15.1941V18.7411C62.217 19.6336 61.5222 20.0158 60.4395 20.0158V20.0174ZM98.9686 21.122V20.0417L98.3421 19.9931C97.3081 19.8959 97.0451 19.6838 97.0451 18.8399V4.3489L97.1669 2.28385H96.2968L92.4497 3.43704V4.06222L94.1541 4.85099V9.59981C93.1948 8.94385 92.0472 8.61507 90.8849 8.66527C87.0622 8.66527 84.0803 11.5677 84.0803 15.9116C84.0803 19.4894 86.223 21.961 89.7535 21.961C91.5797 21.961 93.1688 21.075 94.1541 19.7016L94.0324 21.961H94.5437L98.9686 21.1236V21.122ZM90.958 10.1051C92.7841 10.1051 94.1541 11.1612 94.1541 13.1047V18.5711C93.3133 19.4068 92.1689 19.8668 90.9823 19.8457C88.3657 19.8457 87.0379 17.7807 87.0379 15.024C87.0379 11.9273 88.554 10.1051 90.958 10.1051ZM108.325 12.8391C107.984 11.2357 106.999 10.3254 105.629 10.3254C103.584 10.3254 102.165 11.8625 102.165 14.0668C102.165 17.3288 103.894 19.4424 106.687 19.4424C108.551 19.423 110.265 18.4172 111.185 16.8008L112 17.0194C111.635 19.849 109.067 21.9626 105.913 21.9626C102.212 21.9626 99.6618 19.2303 99.6618 15.3431C99.6618 11.4559 102.431 8.66851 106.132 8.66851C108.895 8.66851 110.843 10.327 111.471 13.2052L101.829 16.1562V14.8572L108.323 12.8472V12.8407L108.325 12.8391Z" fill="#FAFAFA"/>
</g>
<defs>
<clipPath id="clip0_35_970">
<rect width="112" height="24" fill="white"/>
</clipPath>
</defs>
</svg>
