<svg width="28" height="28" viewBox="0 0 28 28" fill="none" xmlns="http://www.w3.org/2000/svg">
<g opacity="0.8">
<path d="M7.00064 3.5C5.112 3.5 3.39556 5.06748 3.65341 7.13944C4.77061 16.117 11.8837 23.23 20.8612 24.3472C22.9332 24.6051 24.5006 22.8886 24.5006 21V19.4694C24.5006 17.9238 23.4868 16.5611 22.0064 16.117L20.2207 15.5813C19.0593 15.2329 17.8004 15.5503 16.9431 16.4076C16.6321 16.7186 16.2323 16.7382 15.9786 16.5813C14.1284 15.4364 12.5642 13.8723 11.4194 12.022C11.2624 11.7684 11.282 11.3686 11.593 11.0576C12.4504 10.2002 12.7677 8.94133 12.4193 7.77997L11.8836 5.99428C11.4395 4.51384 10.0769 3.5 8.53123 3.5H7.00064Z" fill="#6938EF"/>
</g>
</svg>
