<svg width="48" height="48" viewBox="0 0 48 48" fill="none" xmlns="http://www.w3.org/2000/svg">
<path d="M12.9915 10C8.02563 10 4 14.0294 4 19C4 23.9706 8.02563 28 12.9915 28C14.2322 28 15.4142 27.7485 16.4894 27.2936C16.2751 27.6856 16.0423 28.0555 15.7935 28.4076C14.2234 30.6294 11.9018 32.3235 8.88597 34.3359L7.22345 35.4453L9.44015 38.7735L11.1027 37.6641C14.0812 35.6765 17.0046 33.6206 19.0561 30.7174C21.1648 27.7334 22.242 24.0328 21.9828 18.9451C21.9533 13.9998 17.939 10 12.9915 10Z" fill="#6938EF"/>
<path d="M34.9707 10C30.0048 10 25.9792 14.0294 25.9792 19C25.9792 23.9706 30.0048 28 34.9707 28C36.2114 28 37.3934 27.7485 38.4686 27.2936C38.2543 27.6856 38.0215 28.0555 37.7727 28.4076C36.2026 30.6294 33.881 32.3235 30.8652 34.3359L29.2026 35.4453L31.4193 38.7735L33.0819 37.6641C36.0604 35.6765 38.9838 33.6206 41.0353 30.7174C43.1439 27.7334 44.2212 24.0328 43.962 18.9451C43.9325 13.9998 39.9182 10 34.9707 10Z" fill="#6938EF"/>
</svg>
