<svg width="600" height="600" viewBox="0 0 600 600" fill="none" xmlns="http://www.w3.org/2000/svg">
<path d="M300.18 193.6C305.884 193.6 311.563 194.817 315.959 197.226L316.38 197.463L523.29 316.933L523.291 316.934C524.229 317.472 525.065 318.045 525.791 318.645L525.793 318.647C528.54 320.899 529.85 323.468 529.85 326C529.849 329.089 527.868 332.284 523.699 334.824L523.29 335.067L316.38 454.537C311.934 457.102 306.073 458.4 300.185 458.4C294.297 458.4 288.436 457.102 283.99 454.537L77.0693 335.067H77.0684C72.62 332.489 70.5099 329.198 70.5098 326C70.5098 323.478 71.8301 320.888 74.5762 318.647L74.5781 318.645C75.3021 318.047 76.139 317.482 77.0732 316.931L77.0723 316.93L283.979 197.463C288.431 194.897 294.292 193.6 300.18 193.6Z" fill="#0D081B" stroke="white"/>
<path d="M529.348 274.8C529.348 278.23 527.078 281.67 522.538 284.3L315.628 403.77C306.548 409.01 291.818 409.01 282.738 403.77L75.8177 284.3C71.2777 281.67 69.0078 278.24 69.0078 274.8C69.0078 272.09 70.4278 269.37 73.2578 267.06C74.0078 266.44 74.8677 265.86 75.8177 265.3L282.728 145.83C291.818 140.59 306.538 140.59 315.628 145.83L522.538 265.3C523.498 265.85 524.358 266.44 525.108 267.06C527.938 269.38 529.348 272.08 529.348 274.8Z" fill="#0D081B" stroke="white" stroke-width="1.2" stroke-linecap="round" stroke-linejoin="round"/>
<path d="M225.003 344.525L202.773 357.395" stroke="white" stroke-width="1.2" stroke-linecap="round" stroke-linejoin="round"/>
<path d="M235.291 332.425L227.441 336.955L219.471 337.075L193.551 352.075" stroke="white" stroke-width="1.2" stroke-linecap="round" stroke-linejoin="round"/>
<path d="M208.224 332.925L184.344 346.755" stroke="white" stroke-width="1.2" stroke-linecap="round" stroke-linejoin="round"/>
<path d="M309.07 372.12C309.07 372.5 309 372.87 308.86 373.24C308.5 374.18 307.69 375.07 306.42 375.8C302.89 377.84 297.17 377.84 293.65 375.8C292.38 375.07 291.57 374.18 291.21 373.24C291.07 372.87 291 372.49 291 372.12C291 370.79 291.88 369.45 293.65 368.43C297.18 366.39 302.9 366.39 306.42 368.43C308.18 369.45 309.07 370.78 309.07 372.12Z" fill="white" stroke="white" stroke-width="1.2" stroke-linecap="round" stroke-linejoin="round"/>
<path d="M309.07 372.12V379.98C309.07 381.31 308.19 382.65 306.42 383.67C302.89 385.71 297.17 385.71 293.65 383.67C291.88 382.65 291 381.32 291 379.98V372.12C291 372.5 291.07 372.87 291.21 373.24C291.57 374.18 292.38 375.07 293.65 375.8C297.18 377.84 302.9 377.84 306.42 375.8C307.69 375.07 308.5 374.18 308.86 373.24C309 372.87 309.07 372.49 309.07 372.12Z" fill="#0D081B" stroke="white" stroke-width="1.2" stroke-miterlimit="10"/>
<path d="M492.302 279.335H466.692C465.752 279.195 464.792 279.195 463.852 279.335H438.242V289.515C438.242 290.765 438.862 292.015 440.102 292.735L460.312 304.405C463.382 306.175 467.162 306.175 470.232 304.405L490.442 292.735C491.682 292.015 492.302 290.765 492.302 289.515V279.335Z" fill="#0D081B" stroke="white" stroke-width="1.2" stroke-linecap="round" stroke-linejoin="round"/>
<path d="M460.312 294.225L440.102 282.555C437.622 281.125 437.622 277.545 440.102 276.115L460.312 264.445C463.382 262.675 467.162 262.675 470.232 264.445L490.442 276.115C492.922 277.545 492.922 281.125 490.442 282.555L470.232 294.225C467.162 295.995 463.382 295.995 460.312 294.225Z" fill="#0D081B" stroke="white" stroke-width="1.2" stroke-linecap="round" stroke-linejoin="round"/>
<path d="M453.532 279.535L465.612 272.565" stroke="white" stroke-width="1.2" stroke-linecap="round" stroke-linejoin="round"/>
<path d="M459.242 282.826L471.312 275.855" stroke="white" stroke-width="1.2" stroke-linecap="round" stroke-linejoin="round"/>
<path d="M464.942 286.105L477.012 279.146" stroke="white" stroke-width="1.2" stroke-linecap="round" stroke-linejoin="round"/>
<path d="M179.76 256.26L171.57 251.53" stroke="white" stroke-width="1.2" stroke-linecap="round" stroke-linejoin="round"/>
<path d="M184.68 253.41L176.5 248.69" stroke="white" stroke-width="1.2" stroke-linecap="round" stroke-linejoin="round"/>
<path d="M189.612 250.57L181.422 245.84" stroke="white" stroke-width="1.2" stroke-linecap="round" stroke-linejoin="round"/>
<path d="M194.53 247.73L186.34 243" stroke="white" stroke-width="1.2" stroke-linecap="round" stroke-linejoin="round"/>
<path d="M199.449 244.89L191.27 240.16" stroke="white" stroke-width="1.2" stroke-linecap="round" stroke-linejoin="round"/>
<path d="M204.381 242.04L196.191 237.32" stroke="white" stroke-width="1.2" stroke-linecap="round" stroke-linejoin="round"/>
<path d="M252.292 351.979C252.978 351.979 253.636 352.131 254.111 352.407C254.59 352.684 254.717 352.978 254.717 353.169C254.717 353.361 254.59 353.654 254.111 353.931C253.636 354.206 252.978 354.359 252.292 354.359C251.606 354.359 250.948 354.206 250.473 353.931C249.994 353.654 249.867 353.361 249.867 353.169C249.867 352.978 249.994 352.684 250.473 352.407C250.948 352.131 251.606 351.979 252.292 351.979Z" fill="#0D081B" stroke="white"/>
<path d="M262.831 358.069C263.517 358.069 264.175 358.221 264.65 358.497C265.129 358.774 265.256 359.068 265.256 359.259C265.256 359.451 265.129 359.744 264.65 360.021C264.175 360.296 263.517 360.449 262.831 360.449C262.145 360.449 261.487 360.296 261.012 360.021C260.534 359.744 260.406 359.451 260.406 359.259C260.406 359.068 260.533 358.774 261.012 358.497C261.487 358.221 262.145 358.069 262.831 358.069Z" fill="#0D081B" stroke="white"/>
<path d="M273.37 364.149C274.056 364.149 274.714 364.301 275.189 364.577C275.668 364.854 275.795 365.148 275.795 365.339C275.795 365.531 275.668 365.824 275.189 366.101C274.714 366.376 274.056 366.529 273.37 366.529C272.684 366.529 272.026 366.376 271.551 366.101C271.073 365.824 270.945 365.531 270.945 365.339C270.945 365.148 271.072 364.854 271.551 364.577C272.026 364.301 272.684 364.149 273.37 364.149Z" fill="#0D081B" stroke="white"/>
<path d="M205.453 221.484V214.094C205.453 212.464 206.593 211.804 208.003 212.624L223.383 221.504C224.793 222.314 225.933 224.294 225.933 225.924V233.314" stroke="white" stroke-width="1.2" stroke-linecap="round" stroke-linejoin="round"/>
<path d="M212.414 217.474V210.084C212.414 208.454 213.554 207.794 214.964 208.614L230.344 217.494C231.754 218.304 232.894 220.284 232.894 221.914V229.304" stroke="white" stroke-width="1.2" stroke-linecap="round" stroke-linejoin="round"/>
<path d="M219.383 213.454V206.064C219.383 204.434 220.523 203.774 221.933 204.594L237.313 213.474C238.723 214.284 239.863 216.264 239.863 217.894V225.284" stroke="white" stroke-width="1.2" stroke-linecap="round" stroke-linejoin="round"/>
<path d="M226.352 209.444V202.054C226.352 200.424 227.491 199.764 228.901 200.584L244.281 209.464C245.691 210.274 246.832 212.254 246.832 213.884V221.274" stroke="white" stroke-width="1.2" stroke-linecap="round" stroke-linejoin="round"/>
<path d="M233.324 205.424V198.034C233.324 196.404 234.464 195.744 235.874 196.564L251.254 205.444C252.664 206.254 253.804 208.234 253.804 209.864V217.254" stroke="white" stroke-width="1.2" stroke-linecap="round" stroke-linejoin="round"/>
<path d="M240.293 201.404V194.014C240.293 192.384 241.433 191.724 242.843 192.544L258.223 201.424C259.633 202.234 260.773 204.214 260.773 205.844V213.234" stroke="white" stroke-width="1.2" stroke-linecap="round" stroke-linejoin="round"/>
<path d="M247.254 197.394V190.004C247.254 188.374 248.394 187.714 249.804 188.534L265.184 197.414C266.594 198.224 267.734 200.204 267.734 201.834V209.224" stroke="white" stroke-width="1.2" stroke-linecap="round" stroke-linejoin="round"/>
<path d="M254.223 193.375V185.985C254.223 184.355 255.363 183.695 256.773 184.515L272.153 193.395C273.563 194.205 274.703 196.184 274.703 197.814V205.205" stroke="white" stroke-width="1.2" stroke-linecap="round" stroke-linejoin="round"/>
<path d="M261.195 189.354V181.964C261.195 180.334 262.335 179.674 263.745 180.494L279.125 189.374C280.535 190.184 281.675 192.164 281.675 193.794V201.184" stroke="white" stroke-width="1.2" stroke-linecap="round" stroke-linejoin="round"/>
<path d="M268.164 185.344V177.954C268.164 176.324 269.304 175.664 270.714 176.484L286.094 185.364C287.504 186.174 288.644 188.154 288.644 189.784V197.174" stroke="white" stroke-width="1.2" stroke-linecap="round" stroke-linejoin="round"/>
<path d="M275.125 181.324V173.934C275.125 172.304 276.265 171.644 277.675 172.464L293.055 181.344C294.465 182.154 295.605 184.134 295.605 185.764V193.154" stroke="white" stroke-width="1.2" stroke-linecap="round" stroke-linejoin="round"/>
<path d="M307.27 152.786C307.27 153.916 306.53 155.046 305.03 155.906C303.54 156.766 301.58 157.196 299.62 157.196C297.66 157.196 295.7 156.766 294.21 155.906C292.72 155.046 291.97 153.916 291.97 152.786C291.97 151.656 292.71 150.526 294.21 149.656C297.2 147.936 302.04 147.936 305.03 149.656C306.52 150.516 307.27 151.646 307.27 152.786Z" fill="#0D081B" stroke="white" stroke-width="1.2" stroke-linecap="round" stroke-linejoin="round"/>
<path d="M91.3196 273.76C91.3196 274.89 90.5796 276.02 89.0796 276.88C87.5896 277.74 85.6294 278.17 83.6694 278.17C81.7094 278.17 79.7495 277.74 78.2595 276.88C76.7695 276.02 76.0195 274.89 76.0195 273.76C76.0195 272.63 76.7595 271.5 78.2595 270.63C81.2495 268.91 86.0896 268.91 89.0796 270.63C90.5696 271.49 91.3196 272.62 91.3196 273.76Z" fill="#0D081B" stroke="white" stroke-width="1.2" stroke-linecap="round" stroke-linejoin="round"/>
<path d="M307.269 396.716C307.269 397.846 306.529 398.976 305.029 399.836C303.539 400.696 301.579 401.126 299.619 401.126C297.659 401.126 295.699 400.696 294.209 399.836C292.719 398.976 291.969 397.846 291.969 396.716C291.969 395.586 292.709 394.456 294.209 393.586C297.199 391.866 302.039 391.866 305.029 393.586C306.519 394.446 307.269 395.576 307.269 396.716Z" fill="#0D081B" stroke="white" stroke-width="1.2" stroke-linecap="round" stroke-linejoin="round"/>
<path d="M522.191 273.756C522.191 274.886 521.451 276.016 519.951 276.876C518.461 277.736 516.501 278.166 514.541 278.166C512.581 278.166 510.621 277.736 509.131 276.876C507.641 276.016 506.891 274.886 506.891 273.756C506.891 272.626 507.631 271.496 509.131 270.626C512.121 268.906 516.961 268.906 519.951 270.626C521.441 271.486 522.191 272.616 522.191 273.756Z" fill="#0D081B" stroke="white" stroke-width="1.2" stroke-linecap="round" stroke-linejoin="round"/>
<path d="M343.059 275.204V275.394C343.039 276.414 342.519 277.394 341.519 277.974L303.889 299.704C301.599 301.024 298.779 301.024 296.479 299.704L258.849 277.974C257.819 277.384 257.309 276.344 257.309 275.304C257.309 274.264 257.819 273.224 258.849 272.624L296.479 250.904C298.779 249.574 301.599 249.574 303.889 250.904L341.519 272.624C342.519 273.204 343.039 274.194 343.059 275.204Z" fill="#6938EF" stroke="white" stroke-width="1.2" stroke-linecap="round" stroke-linejoin="round"/>
<path d="M343.059 275.394V288.204C343.039 289.224 342.519 290.204 341.519 290.784L303.889 312.514C301.599 313.834 298.779 313.834 296.479 312.514L258.849 290.784C257.819 290.194 257.309 289.154 257.309 288.114V275.304C257.309 276.344 257.819 277.384 258.849 277.974L296.479 299.704C298.779 301.024 301.599 301.024 303.889 299.704L341.519 277.974C342.519 277.394 343.039 276.414 343.059 275.394Z" fill="#0D081B" stroke="white" stroke-width="1.2" stroke-linecap="round" stroke-linejoin="round"/>
<g clip-path="url(#clip0_1153_27601)">
<path d="M291.418 280.524L285.403 283.996C284.767 284.364 285.058 284.992 285.928 285.126L305.62 288.174C306.427 288.298 307.289 288.165 307.88 287.824L313.896 284.351C314.533 283.983 314.241 283.355 313.371 283.221L293.678 280.174C292.871 280.049 292.009 280.183 291.418 280.524Z" fill="white"/>
<path d="M309.893 269.858L316.147 266.247C316.784 265.879 316.492 265.252 315.623 265.117L295.604 262.019C294.999 261.926 294.353 262.026 293.909 262.282L287.655 265.893C287.018 266.26 287.309 266.888 288.179 267.023L308.198 270.12C308.804 270.213 309.45 270.113 309.893 269.858Z" fill="white"/>
<path d="M280.325 275.006L318.587 280.926C319.193 281.019 319.839 280.919 320.282 280.663L323.015 279.086C323.458 278.83 323.631 278.457 323.469 278.107L322.437 275.886C322.275 275.537 321.802 275.264 321.196 275.17L283.041 269.272C282.436 269.178 281.79 269.278 281.347 269.534L278.538 271.156C278.094 271.412 277.921 271.785 278.084 272.135L279.084 274.29C279.247 274.639 279.72 274.912 280.325 275.006Z" fill="white"/>
</g>
<path d="M248.871 297.516L259.111 291.606" stroke="white" stroke-width="1.2" stroke-linecap="round" stroke-linejoin="round"/>
<path d="M285.801 318.826L296.031 312.926" stroke="white" stroke-width="1.2" stroke-linecap="round" stroke-linejoin="round"/>
<path d="M279.641 315.276L289.881 309.366" stroke="white" stroke-width="1.2" stroke-linecap="round" stroke-linejoin="round"/>
<path d="M273.492 311.726L283.722 305.816" stroke="white" stroke-width="1.2" stroke-linecap="round" stroke-linejoin="round"/>
<path d="M267.34 308.177L277.57 302.267" stroke="white" stroke-width="1.2" stroke-linecap="round" stroke-linejoin="round"/>
<path d="M261.18 304.616L271.41 298.706" stroke="white" stroke-width="1.2" stroke-linecap="round" stroke-linejoin="round"/>
<path d="M255.031 301.066L265.261 295.156" stroke="white" stroke-width="1.2" stroke-linecap="round" stroke-linejoin="round"/>
<path d="M392.938 268.597L308.958 220.127C303.848 217.157 297.558 217.157 292.418 220.127L208.438 268.597C206.138 269.927 205.008 272.247 205.008 274.567C205.008 276.687 205.948 278.807 207.868 280.177C208.048 280.297 208.238 280.417 208.438 280.527L214.798 284.217L215.058 284.367L217.058 285.507L224.248 289.657L292.418 329.027C297.558 331.967 303.848 331.967 308.958 329.027L377.128 289.657L384.318 285.507L386.318 284.357L386.578 284.217L392.938 280.527C393.128 280.407 393.318 280.287 393.488 280.177C395.348 278.857 396.328 276.857 396.358 274.767V274.347C396.318 272.097 395.158 269.897 392.928 268.597H392.938ZM385.608 276.607L383.028 278.107L380.798 279.377L379.418 280.167L305.418 322.907C303.978 323.727 302.358 324.167 300.698 324.167C299.038 324.167 297.388 323.727 295.938 322.897L221.948 280.187L220.598 279.397L218.328 278.087L215.768 276.617C215.488 276.457 215.248 276.227 215.058 275.997C214.258 274.927 214.488 273.277 215.768 272.547L295.948 226.267C297.398 225.417 299.038 224.987 300.698 224.987C302.358 224.987 303.968 225.427 305.398 226.257L385.608 272.537C386.878 273.277 387.118 274.927 386.318 275.997C386.128 276.237 385.898 276.457 385.608 276.617V276.607Z" fill="#6938EF" stroke="white" stroke-width="1.2" stroke-linecap="round" stroke-linejoin="round"/>
<path d="M385.819 275.514C385.629 275.754 385.399 275.974 385.109 276.134L382.529 277.634L380.299 278.904L378.919 279.694L304.899 236.984C303.469 236.144 301.849 235.714 300.199 235.714C298.549 235.714 296.899 236.154 295.449 236.994L221.449 279.704L220.099 278.914L217.829 277.604L215.269 276.134C214.989 275.974 214.749 275.744 214.559 275.514C213.759 274.444 213.989 272.794 215.269 272.064L295.449 225.784C296.899 224.934 298.539 224.504 300.199 224.504C301.859 224.504 303.469 224.944 304.899 225.774L385.109 272.054C386.379 272.794 386.619 274.444 385.819 275.514Z" fill="#0D081B" stroke="white" stroke-width="1.2" stroke-linecap="round" stroke-linejoin="round"/>
<path d="M396.36 274.767V285.977C396.32 288.267 395.16 290.437 392.93 291.737L386.57 295.427L384.31 296.727L377.12 300.877L308.95 340.247C303.84 343.187 297.55 343.187 292.41 340.247L224.24 300.877L217.05 296.727L214.79 295.427L208.43 291.737C206.13 290.417 205 288.097 205 285.777V274.567C205 276.687 205.94 278.807 207.86 280.177C208.04 280.297 208.23 280.417 208.43 280.527L214.79 284.217L215.05 284.367L217.05 285.507L224.24 289.657L292.41 329.027C297.55 331.967 303.84 331.967 308.95 329.027L377.12 289.657L384.31 285.507L386.31 284.357L386.57 284.217L392.93 280.527C393.12 280.407 393.31 280.287 393.48 280.177C395.34 278.857 396.32 276.857 396.35 274.767H396.36Z" fill="#0D081B" stroke="white" stroke-width="1.2" stroke-linecap="round" stroke-linejoin="round"/>
<path d="M398.147 333.364L359.5 311.059" stroke="white" stroke-width="1.2" stroke-linecap="round" stroke-linejoin="round"/>
<path d="M428.429 307.914L344.719 356.234" stroke="white" stroke-width="1.2" stroke-linecap="round" stroke-linejoin="round"/>
<path d="M446.801 311.334C446.801 311.884 446.461 312.424 445.771 312.824L443.311 314.254L431.911 320.834C430.401 321.714 427.751 321.604 426.001 320.584L403.521 307.614L401.481 306.434C400.561 305.904 400.071 305.234 400.041 304.584V304.394C400.081 303.874 400.411 303.384 401.061 303.014L414.931 295.004C416.441 294.134 419.101 294.244 420.841 295.254L445.361 309.414C446.321 309.964 446.811 310.674 446.811 311.344L446.801 311.334Z" fill="#0D081B" stroke="white" stroke-width="1.2" stroke-linecap="round" stroke-linejoin="round"/>
<path d="M423.618 302.192L417.775 305.565C419.185 306.38 421.515 306.36 422.968 305.522L424.048 304.898L425.049 305.475C426.459 306.29 428.79 306.27 430.242 305.432L424.616 302.184C424.337 302.023 423.905 302.026 423.618 302.192Z" fill="white"/>
<path d="M423.552 305.488L417.709 308.861C419.119 309.676 421.449 309.656 422.902 308.818L423.982 308.194L424.999 308.781C426.41 309.595 428.74 309.576 430.192 308.737L424.55 305.48C424.288 305.328 423.839 305.322 423.552 305.488Z" fill="url(#paint0_linear_1153_27601)"/>
<path d="M423.501 308.794L417.659 312.167C419.069 312.981 421.399 312.962 422.852 312.123L423.932 311.499L424.933 312.077C426.343 312.891 428.673 312.872 430.126 312.033L424.5 308.785C424.221 308.624 423.772 308.638 423.501 308.794Z" fill="url(#paint1_linear_1153_27601)"/>
<path d="M446.801 311.334V317.354C446.801 317.904 446.461 318.444 445.771 318.844L431.901 326.844C430.391 327.724 427.741 327.614 425.991 326.594L401.471 312.444C400.551 311.914 400.061 311.244 400.031 310.594V304.574C400.061 305.224 400.551 305.894 401.471 306.424L403.511 307.604L425.991 320.574C427.741 321.584 430.391 321.704 431.901 320.824L443.301 314.244L445.761 312.814C446.451 312.414 446.791 311.874 446.791 311.324L446.801 311.334Z" fill="#0D081B" stroke="white" stroke-width="1.2" stroke-linecap="round" stroke-linejoin="round"/>
<path d="M413.668 330.534C413.668 331.084 413.328 331.624 412.638 332.024L410.178 333.454L398.778 340.034C397.268 340.914 394.618 340.804 392.868 339.784L370.388 326.814L368.348 325.634C367.428 325.104 366.938 324.434 366.908 323.784V323.594C366.948 323.074 367.278 322.584 367.928 322.214L381.798 314.204C383.308 313.334 385.968 313.444 387.708 314.454L412.228 328.614C413.188 329.164 413.678 329.874 413.678 330.544L413.668 330.534Z" fill="#0D081B" stroke="white" stroke-width="1.2" stroke-linecap="round" stroke-linejoin="round"/>
<g clip-path="url(#clip1_1153_27601)">
<path fill-rule="evenodd" clip-rule="evenodd" d="M383.934 322.897C380.1 325.11 380.122 328.703 383.985 330.933C387.073 332.716 391.673 333.078 395.353 332.022C395.767 331.863 395.674 331.663 395.489 331.556C395.327 331.463 394.76 331.149 394.182 330.815C392.67 332.169 391.019 331.68 391.019 331.68C389.899 331.391 389.232 331.536 389.232 331.536C388.173 331.654 388.85 331.263 388.85 331.263C389.597 330.885 390.635 331.06 390.635 331.06C392.319 331.317 393.017 330.566 393.233 330.228C392.84 329.934 392.711 329.648 392.733 329.435C391.033 330.23 388.813 330.817 386.129 329.268C385.366 328.827 385.017 328.307 384.968 327.775C384.725 327.715 383.767 327.44 383.186 326.667C383.186 326.667 383.586 326.222 385.809 325.981C386.221 325.566 386.726 325.185 387.311 324.846C387.896 324.508 388.574 324.21 389.276 323.979C389.694 322.696 390.464 322.465 390.464 322.465C391.803 322.8 392.279 323.354 392.384 323.493C393.317 323.515 394.206 323.723 394.969 324.164C397.652 325.713 396.623 326.988 395.247 327.983C395.719 327.964 396.354 328.079 397.013 328.459C397.95 329 398.69 329.441 398.921 329.574C399.106 329.681 399.453 329.735 399.728 329.496C401.557 327.371 400.93 324.716 397.842 322.933C393.99 320.696 387.757 320.69 383.934 322.897Z" fill="white"/>
</g>
<path d="M413.668 330.534V336.554C413.668 337.104 413.328 337.644 412.638 338.044L398.768 346.044C397.258 346.924 394.609 346.814 392.859 345.794L368.339 331.644C367.419 331.114 366.928 330.444 366.898 329.794V323.774C366.928 324.424 367.419 325.094 368.339 325.624L370.379 326.804L392.859 339.774C394.609 340.784 397.258 340.904 398.768 340.024L410.168 333.444L412.629 332.014C413.319 331.614 413.658 331.074 413.658 330.524L413.668 330.534Z" fill="#0D081B" stroke="white" stroke-width="1.2" stroke-linecap="round" stroke-linejoin="round"/>
<path d="M380.551 349.734C380.551 350.284 380.211 350.824 379.521 351.224L377.061 352.654L365.661 359.234C364.151 360.114 361.501 360.004 359.751 358.984L337.271 346.014L335.231 344.834C334.311 344.304 333.821 343.634 333.791 342.984V342.794C333.831 342.274 334.161 341.784 334.811 341.414L348.681 333.404C350.191 332.534 352.851 332.644 354.591 333.654L379.111 347.814C380.071 348.364 380.561 349.074 380.561 349.744L380.551 349.734Z" fill="#0D081B" stroke="white" stroke-width="1.2" stroke-linecap="round" stroke-linejoin="round"/>
<path d="M353.081 345.883C352.437 346.255 351.384 346.255 350.739 345.883C350.094 345.511 350.094 344.903 350.739 344.531C351.384 344.159 352.437 344.159 353.081 344.531L354.253 345.207L353.081 345.883Z" fill="white"/>
<path d="M353.672 346.224C354.316 345.851 355.369 345.851 356.014 346.224C356.659 346.596 356.659 347.204 356.014 347.576L353.081 349.269C352.437 349.641 351.384 349.641 350.739 349.269C350.094 348.897 350.094 348.289 350.739 347.917L353.672 346.224Z" fill="white"/>
<path d="M359.546 344.184C358.901 343.812 358.901 343.204 359.546 342.832C360.191 342.46 361.244 342.46 361.888 342.832C362.533 343.204 362.533 343.812 361.888 344.184L360.717 344.861L359.546 344.184Z" fill="white"/>
<path d="M358.956 344.525C359.6 344.897 359.6 345.505 358.956 345.878C358.311 346.25 357.258 346.25 356.613 345.878L353.681 344.184C353.036 343.812 353.036 343.204 353.681 342.832C354.325 342.46 355.379 342.46 356.023 342.832L358.956 344.525Z" fill="white"/>
<path d="M362.488 347.917C363.132 347.545 364.185 347.545 364.83 347.917C365.475 348.289 365.475 348.897 364.83 349.269C364.185 349.642 363.132 349.642 362.488 349.269L361.316 348.593L362.488 347.917Z" fill="white"/>
<path d="M361.897 347.576C361.253 347.948 360.2 347.948 359.555 347.576C358.91 347.204 358.91 346.596 359.555 346.224L362.488 344.531C363.132 344.159 364.185 344.159 364.83 344.531C365.475 344.903 365.475 345.511 364.83 345.883L361.897 347.576Z" fill="white"/>
<path d="M356.023 349.615C356.668 349.987 356.668 350.595 356.023 350.968C355.379 351.34 354.325 351.34 353.681 350.968C353.036 350.595 353.036 349.987 353.681 349.615L354.852 348.939L356.023 349.615Z" fill="white"/>
<path d="M356.613 349.275C355.969 348.903 355.969 348.294 356.613 347.922C357.258 347.55 358.311 347.55 358.956 347.922L361.888 349.615C362.533 349.988 362.533 350.596 361.888 350.968C361.244 351.34 360.191 351.34 359.546 350.968L356.613 349.275Z" fill="white"/>
<path d="M380.551 349.734V355.754C380.551 356.304 380.211 356.844 379.521 357.244L365.651 365.244C364.141 366.124 361.491 366.014 359.741 364.994L335.221 350.844C334.301 350.314 333.811 349.644 333.781 348.994V342.974C333.811 343.624 334.301 344.294 335.221 344.824L337.261 346.004L359.741 358.974C361.491 359.984 364.141 360.104 365.651 359.224L377.051 352.644L379.511 351.214C380.201 350.814 380.541 350.274 380.541 349.724L380.551 349.734Z" fill="#0D081B" stroke="white" stroke-width="1.2" stroke-linecap="round" stroke-linejoin="round"/>
<path d="M522.54 284.3L315.91 403.6L315.62 403.77C311.08 406.4 305.13 407.7 299.18 407.7C293.23 407.7 287.28 406.4 282.74 403.77L75.8099 284.3C71.2699 281.67 69 278.24 69 274.81V302.01C69 305.44 71.2699 308.88 75.8099 311.5L282.74 430.96C287.28 433.59 293.23 434.9 299.18 434.9C305.13 434.9 311.08 433.59 315.62 430.96L315.91 430.79L522.54 311.5C527.08 308.87 529.35 305.44 529.35 302.01V274.81C529.35 278.25 527.08 281.68 522.54 284.3Z" fill="#0D081B" stroke="white" stroke-width="1.2" stroke-linecap="round" stroke-linejoin="round"/>
<path d="M402.02 230.422C402.02 230.892 402.11 231.362 402.28 231.832C402.73 233.012 403.74 234.122 405.32 235.042C409.73 237.592 416.88 237.592 421.29 235.042C422.87 234.132 423.89 233.012 424.33 231.832C424.51 231.372 424.59 230.902 424.59 230.422C424.59 228.752 423.49 227.082 421.28 225.812C416.87 223.262 409.72 223.262 405.31 225.812C403.1 227.082 402 228.752 402 230.422H402.02Z" fill="#0D081B" stroke="white" stroke-width="1.2" stroke-linecap="round" stroke-linejoin="round"/>
<path d="M402.02 230.422V248.242C402.02 249.912 403.12 251.582 405.33 252.852C409.74 255.402 416.89 255.402 421.3 252.852C423.51 251.582 424.61 249.912 424.61 248.242V230.422C424.61 230.892 424.52 231.362 424.35 231.832C423.9 233.012 422.89 234.122 421.31 235.042C416.9 237.592 409.75 237.592 405.34 235.042C403.76 234.132 402.74 233.012 402.3 231.832C402.12 231.372 402.04 230.902 402.04 230.422H402.02Z" fill="#0D081B" stroke="white" stroke-width="1.2" stroke-linecap="round" stroke-linejoin="round"/>
<path d="M402.02 255.922V248.242" stroke="white" stroke-width="1.2" stroke-linecap="round" stroke-linejoin="round"/>
<path d="M406.92 260.183V253.623" stroke="white" stroke-width="1.2" stroke-linecap="round" stroke-linejoin="round"/>
<path d="M419.71 260.183V253.623" stroke="white" stroke-width="1.2" stroke-linecap="round" stroke-linejoin="round"/>
<path d="M413.31 261.322V254.762" stroke="white" stroke-width="1.2" stroke-linecap="round" stroke-linejoin="round"/>
<path d="M424.61 255.922V248.242" stroke="white" stroke-width="1.2" stroke-linecap="round" stroke-linejoin="round"/>
<path d="M362.02 207.422C362.02 207.892 362.11 208.362 362.28 208.832C362.73 210.012 363.74 211.122 365.32 212.042C369.73 214.592 376.88 214.592 381.29 212.042C382.87 211.132 383.89 210.012 384.33 208.832C384.51 208.372 384.59 207.902 384.59 207.422C384.59 205.752 383.49 204.082 381.28 202.812C376.87 200.262 369.72 200.262 365.31 202.812C363.1 204.082 362 205.752 362 207.422H362.02Z" fill="#0D081B" stroke="white" stroke-width="1.2" stroke-linecap="round" stroke-linejoin="round"/>
<path d="M362.02 207.422V225.242C362.02 226.912 363.12 228.582 365.33 229.852C369.74 232.402 376.89 232.402 381.3 229.852C383.51 228.582 384.61 226.912 384.61 225.242V207.422C384.61 207.892 384.52 208.362 384.35 208.832C383.9 210.012 382.89 211.122 381.31 212.042C376.9 214.592 369.75 214.592 365.34 212.042C363.76 211.132 362.74 210.012 362.3 208.832C362.12 208.372 362.04 207.902 362.04 207.422H362.02Z" fill="#0D081B" stroke="white" stroke-width="1.2" stroke-linecap="round" stroke-linejoin="round"/>
<path d="M362.02 232.922V225.242" stroke="white" stroke-width="1.2" stroke-linecap="round" stroke-linejoin="round"/>
<path d="M366.92 237.172V230.612" stroke="white" stroke-width="1.2" stroke-linecap="round" stroke-linejoin="round"/>
<path d="M379.71 237.172V230.612" stroke="white" stroke-width="1.2" stroke-linecap="round" stroke-linejoin="round"/>
<path d="M373.32 238.322V231.762" stroke="white" stroke-width="1.2" stroke-linecap="round" stroke-linejoin="round"/>
<path d="M384.61 232.922V225.242" stroke="white" stroke-width="1.2" stroke-linecap="round" stroke-linejoin="round"/>
<path d="M322.02 184.422C322.02 184.892 322.11 185.362 322.28 185.832C322.73 187.012 323.74 188.122 325.32 189.042C329.73 191.592 336.88 191.592 341.29 189.042C342.87 188.132 343.89 187.012 344.33 185.832C344.51 185.372 344.59 184.902 344.59 184.422C344.59 182.752 343.49 181.082 341.28 179.812C336.87 177.262 329.72 177.262 325.31 179.812C323.1 181.082 322 182.752 322 184.422H322.02Z" fill="#0D081B" stroke="white" stroke-width="1.2" stroke-linecap="round" stroke-linejoin="round"/>
<path d="M322.02 184.422V202.242C322.02 203.912 323.12 205.582 325.33 206.852C329.74 209.402 336.89 209.402 341.3 206.852C343.51 205.582 344.61 203.912 344.61 202.242V184.422C344.61 184.892 344.52 185.362 344.35 185.832C343.9 187.012 342.89 188.122 341.31 189.042C336.9 191.592 329.75 191.592 325.34 189.042C323.76 188.132 322.74 187.012 322.3 185.832C322.12 185.372 322.04 184.902 322.04 184.422H322.02Z" fill="#0D081B" stroke="white" stroke-width="1.2" stroke-linecap="round" stroke-linejoin="round"/>
<path d="M322.02 209.922V202.242" stroke="white" stroke-width="1.2" stroke-linecap="round" stroke-linejoin="round"/>
<path d="M326.92 214.172V207.612" stroke="white" stroke-width="1.2" stroke-linecap="round" stroke-linejoin="round"/>
<path d="M339.71 214.172V207.612" stroke="white" stroke-width="1.2" stroke-linecap="round" stroke-linejoin="round"/>
<path d="M333.32 215.322V208.762" stroke="white" stroke-width="1.2" stroke-linecap="round" stroke-linejoin="round"/>
<path d="M344.61 209.922V202.242" stroke="white" stroke-width="1.2" stroke-linecap="round" stroke-linejoin="round"/>
<path d="M111.35 318.12L103.25 313.44" stroke="white" stroke-width="1.2" stroke-linecap="round" stroke-linejoin="round"/>
<path d="M152.59 341.93L120.69 323.51" stroke="white" stroke-width="1.2" stroke-linecap="round" stroke-linejoin="round"/>
<path d="M179.07 357.22L160.8 346.67" stroke="white" stroke-width="1.2" stroke-linecap="round" stroke-linejoin="round"/>
<path d="M169.132 294.03C169.132 294.68 169.012 295.33 168.772 295.97C168.152 297.59 166.762 299.13 164.572 300.39C158.492 303.9 148.632 303.9 142.552 300.39C140.372 299.13 138.972 297.59 138.352 295.97C138.112 295.33 137.992 294.68 137.992 294.03C137.992 291.73 139.512 289.43 142.552 287.67C148.632 284.16 158.492 284.16 164.572 287.67C167.612 289.43 169.132 291.73 169.132 294.03Z" fill="#0D081B" stroke="white" stroke-width="1.2" stroke-miterlimit="10" stroke-linecap="round"/>
<path d="M162.212 280.02C162.212 275.24 158.342 271.37 153.562 271.37C148.782 271.37 144.912 275.24 144.912 280.02V294.02C144.912 294.26 144.982 294.51 145.112 294.75C145.452 295.36 146.232 295.94 147.442 296.41C150.822 297.73 156.292 297.73 159.672 296.41C160.882 295.94 161.662 295.36 162.002 294.75C162.132 294.51 162.202 294.27 162.202 294.02V280.02H162.212Z" fill="#0D081B" stroke="white" stroke-width="1.2" stroke-linecap="round" stroke-linejoin="round"/>
<path d="M153.562 280.11V297.41" stroke="white" stroke-width="1.2" stroke-linecap="round" stroke-linejoin="round"/>
<path d="M141.132 278.03C141.132 278.68 141.012 279.33 140.772 279.97C140.152 281.59 138.762 283.13 136.572 284.39C130.492 287.9 120.632 287.9 114.552 284.39C112.372 283.13 110.972 281.59 110.352 279.97C110.112 279.33 109.992 278.68 109.992 278.03C109.992 275.73 111.512 273.43 114.552 271.67C120.632 268.16 130.492 268.16 136.572 271.67C139.612 273.43 141.132 275.73 141.132 278.03Z" fill="#0D081B" stroke="white" stroke-width="1.2" stroke-miterlimit="10" stroke-linecap="round"/>
<path d="M134.202 264.02C134.202 259.24 130.332 255.37 125.552 255.37C120.772 255.37 116.902 259.24 116.902 264.02V278.02C116.902 278.26 116.972 278.51 117.102 278.75C117.442 279.36 118.222 279.94 119.432 280.41C122.812 281.73 128.282 281.73 131.662 280.41C132.872 279.94 133.652 279.36 133.992 278.75C134.122 278.51 134.192 278.27 134.192 278.02V264.02H134.202Z" fill="#0D081B" stroke="white" stroke-width="1.2" stroke-linecap="round" stroke-linejoin="round"/>
<path d="M125.562 264.11V281.41" stroke="white" stroke-width="1.2" stroke-linecap="round" stroke-linejoin="round"/>
<path d="M182.992 322.373L211.852 305.713C214.952 303.923 218.772 303.923 221.862 305.713L250.732 322.383C252.012 323.113 252.672 324.383 252.732 325.683V326.063C252.662 327.343 252.002 328.583 250.742 329.313L221.872 345.983C218.772 347.773 214.962 347.763 211.862 345.983L187.082 331.673L182.992 329.313C181.762 328.603 181.102 327.403 181.002 326.173V325.503C181.112 324.273 181.772 323.083 182.992 322.383V322.373Z" fill="#0D081B" stroke="white" stroke-width="1.2" stroke-linecap="round" stroke-linejoin="round"/>
<path d="M206.452 319.833C212.202 316.513 221.522 316.503 227.272 319.823C231.182 322.083 232.432 325.303 231.012 328.173C230.852 328.503 230.662 328.823 230.422 329.143C229.702 330.133 228.662 331.043 227.272 331.853C221.512 335.173 212.192 335.173 206.432 331.853C204.592 330.793 203.332 329.523 202.702 328.163C202.612 327.983 202.532 327.803 202.462 327.613C201.442 324.903 202.782 321.953 206.442 319.833H206.452Z" fill="white" stroke="white" stroke-width="1.2" stroke-linecap="round" stroke-linejoin="round"/>
<path d="M180.992 326.173C181.092 327.413 181.752 328.602 182.982 329.312L187.072 331.673L211.852 345.983C214.952 347.763 218.772 347.773 221.862 345.983L250.732 329.312C252.002 328.582 252.652 327.332 252.722 326.062V337.333C252.722 337.463 252.732 337.593 252.722 337.713C252.652 338.993 251.992 340.233 250.732 340.963L221.862 357.633C218.762 359.423 214.952 359.413 211.852 357.633L182.982 340.963C181.752 340.263 181.102 339.063 181.002 337.833V337.153V326.173H180.992Z" fill="#0D081B" stroke="white" stroke-width="1.2" stroke-linecap="round" stroke-linejoin="round"/>
<path d="M193.368 324.448C194.141 324.448 194.887 324.62 195.433 324.936C195.982 325.254 196.142 325.597 196.143 325.837C196.143 326.077 195.983 326.422 195.433 326.74C194.887 327.055 194.141 327.228 193.368 327.228C192.596 327.228 191.849 327.056 191.303 326.74C190.753 326.422 190.593 326.077 190.593 325.837C190.593 325.597 190.753 325.254 191.303 324.936C191.849 324.62 192.596 324.448 193.368 324.448Z" fill="#0D081B" stroke="white"/>
<path d="M217.418 339.357C218.19 339.357 218.936 339.53 219.482 339.846C220.032 340.164 220.192 340.507 220.192 340.747C220.192 340.987 220.032 341.331 219.482 341.649C218.936 341.965 218.19 342.138 217.418 342.138C216.645 342.138 215.899 341.965 215.353 341.649C214.803 341.331 214.643 340.987 214.643 340.747C214.643 340.507 214.803 340.164 215.353 339.846C215.899 339.53 216.645 339.357 217.418 339.357Z" fill="#0D081B" stroke="white"/>
<path d="M217.418 309.627C218.19 309.628 218.936 309.8 219.482 310.116C220.032 310.434 220.192 310.777 220.192 311.017C220.192 311.257 220.032 311.601 219.482 311.919C218.936 312.235 218.19 312.408 217.418 312.408C216.645 312.408 215.899 312.235 215.353 311.919C214.803 311.601 214.643 311.257 214.643 311.017C214.643 310.777 214.803 310.434 215.353 310.116C215.899 309.8 216.645 309.627 217.418 309.627Z" fill="#0D081B" stroke="white"/>
<path d="M241.058 324.448C241.83 324.448 242.576 324.62 243.122 324.936C243.672 325.254 243.832 325.597 243.832 325.837C243.832 326.077 243.672 326.422 243.122 326.74C242.576 327.055 241.83 327.228 241.058 327.228C240.285 327.228 239.538 327.056 238.992 326.74C238.442 326.422 238.282 326.077 238.282 325.837C238.282 325.597 238.443 325.254 238.992 324.936C239.538 324.62 240.285 324.448 241.058 324.448Z" fill="#0D081B" stroke="white"/>
<defs>
<linearGradient id="paint0_linear_1153_27601" x1="423.948" y1="305.275" x2="423.998" y2="308.145" gradientUnits="userSpaceOnUse">
<stop offset="0.176" stop-color="white"/>
<stop offset="1" stop-color="white"/>
</linearGradient>
<linearGradient id="paint1_linear_1153_27601" x1="424.065" y1="308.49" x2="424.067" y2="311.715" gradientUnits="userSpaceOnUse">
<stop offset="0.176" stop-color="white"/>
<stop offset="1" stop-color="white"/>
</linearGradient>
<clipPath id="clip0_1153_27601">
<rect width="38.808" height="38.808" fill="white" transform="matrix(-0.866025 -0.5 0.866025 -0.5 300.775 294.526)"/>
</clipPath>
<clipPath id="clip1_1153_27601">
<rect width="16" height="16" fill="white" transform="matrix(0.866025 -0.5 0.866025 0.5 377 326.9)"/>
</clipPath>
</defs>
</svg>
