<svg width="616" height="616" viewBox="0 0 616 616" fill="none" xmlns="http://www.w3.org/2000/svg">
<g clip-path="url(#clip0_911_29683)">
<path d="M309.666 -154.278L-490.061 307.444" stroke="#6938EF" stroke-opacity="0.35" stroke-width="1.10991"/>
<path d="M309.666 769.167L-490.061 307.444" stroke="#6938EF" stroke-opacity="0.35" stroke-width="1.10991"/>
<path d="M371.183 733.649L-428.543 271.927" stroke="#6938EF" stroke-opacity="0.35" stroke-width="1.10991"/>
<path d="M432.701 698.133L-367.026 236.41" stroke="#6938EF" stroke-opacity="0.35" stroke-width="1.10991"/>
<path d="M494.219 662.615L-305.508 200.893" stroke="#6938EF" stroke-opacity="0.35" stroke-width="1.10991"/>
<path d="M555.736 627.098L-243.991 165.375" stroke="#6938EF" stroke-opacity="0.35" stroke-width="1.10991"/>
<path d="M617.254 591.581L-182.473 129.859" stroke="#6938EF" stroke-opacity="0.35" stroke-width="1.10991"/>
<path d="M678.772 556.063L-120.955 94.3409" stroke="#6938EF" stroke-opacity="0.35" stroke-width="1.10991"/>
<path d="M740.287 520.547L-59.4399 58.8243" stroke="#6938EF" stroke-opacity="0.35" stroke-width="1.10991"/>
<path d="M801.805 485.029L2.07779 23.3067" stroke="#6938EF" stroke-opacity="0.35" stroke-width="1.10991"/>
<path d="M863.322 449.513L63.5954 -12.2099" stroke="#6938EF" stroke-opacity="0.35" stroke-width="1.10991"/>
<path d="M924.84 413.995L125.113 -47.7274" stroke="#6938EF" stroke-opacity="0.35" stroke-width="1.10991"/>
<path d="M986.358 378.479L186.631 -83.244" stroke="#6938EF" stroke-opacity="0.35" stroke-width="1.10991"/>
<path d="M1047.88 342.961L248.148 -118.762" stroke="#6938EF" stroke-opacity="0.35" stroke-width="1.10991"/>
<path d="M1109.39 307.444L309.666 -154.278" stroke="#6938EF" stroke-opacity="0.35" stroke-width="1.10991"/>
<path d="M371.183 -118.762L-428.543 342.961" stroke="#6938EF" stroke-opacity="0.35" stroke-width="1.10991"/>
<path d="M432.701 -83.2441L-367.026 378.478" stroke="#6938EF" stroke-opacity="0.35" stroke-width="1.10991"/>
<path d="M494.219 -47.7275L-305.508 413.995" stroke="#6938EF" stroke-opacity="0.35" stroke-width="1.10991"/>
<path d="M555.736 -12.21L-243.991 449.513" stroke="#6938EF" stroke-opacity="0.35" stroke-width="1.10991"/>
<path d="M617.254 23.3076L-182.473 485.03" stroke="#6938EF" stroke-opacity="0.35" stroke-width="1.10991"/>
<path d="M678.772 58.8242L-120.955 520.547" stroke="#6938EF" stroke-opacity="0.35" stroke-width="1.10991"/>
<path d="M740.287 94.3418L-59.4399 556.064" stroke="#6938EF" stroke-opacity="0.35" stroke-width="1.10991"/>
<path d="M801.805 129.858L2.07779 591.581" stroke="#6938EF" stroke-opacity="0.35" stroke-width="1.10991"/>
<path d="M863.322 165.376L63.5954 627.099" stroke="#6938EF" stroke-opacity="0.35" stroke-width="1.10991"/>
<path d="M924.84 200.893L125.113 662.615" stroke="#6938EF" stroke-opacity="0.35" stroke-width="1.10991"/>
<path d="M986.358 236.41L186.631 698.133" stroke="#6938EF" stroke-opacity="0.35" stroke-width="1.10991"/>
<path d="M1047.88 271.927L248.148 733.649" stroke="#6938EF" stroke-opacity="0.35" stroke-width="1.10991"/>
<path d="M1109.39 307.444L309.666 769.167" stroke="#6938EF" stroke-opacity="0.35" stroke-width="1.10991"/>
<path d="M446.447 232.625C446.447 234.366 445.495 235.968 443.965 236.8L384.046 269.364C383.13 269.862 382.076 270.045 381.046 269.885L198.325 241.462C196.011 241.102 194.304 239.108 194.304 236.766V222.548L446.447 218.369V232.625Z" fill="#6938EF" stroke="#6938EF" stroke-width="1.71624"/>
<path d="M253.425 184.161L196.393 217.937C191.863 220.62 193.19 227.502 198.393 228.308L380.186 256.474C381.419 256.665 382.68 256.439 383.77 255.834L443.544 222.626C448.212 220.033 446.959 213 441.682 212.178L257.147 183.445C255.861 183.244 254.545 183.497 253.425 184.161Z" fill="#050011" stroke="#6938EF" stroke-width="1.71624"/>
<path d="M426.111 388.37C426.111 390.012 425.264 391.537 423.87 392.404L367.435 427.531C366.473 428.13 365.328 428.365 364.208 428.194L176.601 399.622C174.279 399.268 172.565 397.272 172.565 394.924V383.132L426.111 376.863V388.37Z" fill="#6938EF" stroke="#6938EF" stroke-width="1.71624"/>
<path d="M235.219 342.601L175.213 377.05C170.597 379.699 171.92 386.687 177.186 387.465L363.277 414.963C364.558 415.152 365.865 414.892 366.976 414.228L423.435 380.463C427.944 377.767 426.604 370.906 421.411 370.104L238.868 341.922C237.61 341.728 236.323 341.967 235.219 342.601Z" fill="#050011" stroke="#6938EF" stroke-width="1.71624"/>
<path d="M508.161 329.04V340.568C508.161 342.263 507.26 343.83 505.794 344.68L475.237 362.402C474.299 362.946 473.203 363.153 472.131 362.988L121.167 308.993C119.76 308.776 118.523 307.941 117.799 306.715L110.814 294.894C110.381 294.162 110.153 293.327 110.153 292.477V271.085L508.161 329.04Z" fill="#6938EF" stroke="#6938EF" stroke-width="1.71624"/>
<path d="M493.482 301.21L144.181 248.642C142.933 248.455 141.658 248.693 140.563 249.319L112.412 265.405C109.863 266.862 108.868 270.038 110.13 272.688L120.643 294.766C121.441 296.44 123.013 297.612 124.846 297.897L471.282 351.834C472.558 352.032 473.863 351.785 474.978 351.133L505.931 333.028C508.464 331.546 509.428 328.363 508.141 325.726L497.689 304.299C496.88 302.64 495.307 301.485 493.482 301.21Z" fill="#050011" stroke="#6938EF" stroke-width="1.71624"/>
</g>
<defs>
<clipPath id="clip0_911_29683">
<rect width="616" height="616" fill="white"/>
</clipPath>
</defs>
</svg>
