<svg width="32" height="32" viewBox="0 0 32 32" fill="none" xmlns="http://www.w3.org/2000/svg">
<path fill-rule="evenodd" clip-rule="evenodd" d="M14.6997 3.03757C15.5424 2.74789 16.4576 2.74789 17.3003 3.03757L25.3003 5.78757C26.9155 6.34279 28 7.86234 28 9.57031V15.8836C28 19.6259 26.4681 22.3229 24.25 24.4229C22.1534 26.4077 19.4069 27.8888 16.8425 29.2716L16.6331 29.3845C16.2379 29.5977 15.7621 29.5977 15.3669 29.3845L15.1575 29.2716C12.5931 27.8888 9.84658 26.4077 7.75 24.4228C5.53188 22.3229 4 19.6259 4 15.8836V9.57031C4 7.86234 5.08447 6.34279 6.69968 5.78757L14.6997 3.03757ZM20.2762 13.9428C20.7969 13.4221 20.7969 12.5779 20.2762 12.0572C19.7555 11.5365 18.9112 11.5365 18.3905 12.0572L14.6667 15.7811L13.6095 14.7239C13.0888 14.2032 12.2446 14.2032 11.7239 14.7239C11.2032 15.2446 11.2032 16.0888 11.7239 16.6095L13.7239 18.6095C13.9739 18.8595 14.3131 19 14.6667 19C15.0203 19 15.3594 18.8595 15.6095 18.6095L20.2762 13.9428Z" fill="#FAFAFA"/>
</svg>
