<svg width="20" height="20" viewBox="6 6 20 20" fill="none" xmlns="http://www.w3.org/2000/svg">
<g clip-path="url(#clip0_1153_28494)">
<path d="M0 16C0 7.16347 7.16347 0 16 0C24.8365 0 32 7.16347 32 16C32 24.8365 24.8365 32 16 32C7.16347 32 0 24.8365 0 16Z" fill="white"/>
<path d="M11.0236 18.2647C11.0236 19.2572 10.2128 20.0679 9.22038 20.0679C8.22791 20.0679 7.41718 19.2572 7.41718 18.2647C7.41718 17.2722 8.22791 16.4614 9.22038 16.4614H11.0236V18.2647Z" fill="#E01E5A"/>
<path d="M11.9323 18.2647C11.9323 17.2722 12.743 16.4614 13.7355 16.4614C14.7279 16.4614 15.5387 17.2722 15.5387 18.2647V22.7797C15.5387 23.7722 14.7279 24.583 13.7355 24.583C12.743 24.583 11.9323 23.7722 11.9323 22.7797V18.2647Z" fill="#E01E5A"/>
<path d="M13.7355 11.0239C12.743 11.0239 11.9323 10.2131 11.9323 9.22068C11.9323 8.22821 12.743 7.41748 13.7355 7.41748C14.7279 7.41748 15.5387 8.22821 15.5387 9.22068V11.0239H13.7355Z" fill="#36C5F0"/>
<path d="M13.7354 11.9321C14.7279 11.9321 15.5387 12.7429 15.5387 13.7354C15.5387 14.7279 14.7279 15.5386 13.7354 15.5386H9.22038C8.22791 15.5386 7.41718 14.7279 7.41718 13.7354C7.41718 12.7429 8.22791 11.9321 9.22038 11.9321H13.7354Z" fill="#36C5F0"/>
<path d="M20.9763 13.7354C20.9763 12.7429 21.7871 11.9321 22.7795 11.9321C23.7721 11.9321 24.5828 12.7429 24.5828 13.7354C24.5828 14.7279 23.7721 15.5386 22.7795 15.5386H20.9763V13.7354Z" fill="#2EB67D"/>
<path d="M20.0677 13.7357C20.0677 14.7282 19.257 15.5389 18.2645 15.5389C17.272 15.5389 16.4612 14.7282 16.4612 13.7357V9.22068C16.4612 8.22821 17.272 7.41748 18.2645 7.41748C19.257 7.41748 20.0677 8.22821 20.0677 9.22068V13.7357Z" fill="#2EB67D"/>
<path d="M18.2645 20.9766C19.257 20.9766 20.0677 21.7873 20.0677 22.7798C20.0677 23.7722 19.257 24.583 18.2645 24.583C17.272 24.583 16.4612 23.7722 16.4612 22.7798V20.9766H18.2645Z" fill="#ECB22E"/>
<path d="M18.2645 20.0679C17.272 20.0679 16.4612 19.2572 16.4612 18.2647C16.4612 17.2722 17.272 16.4614 18.2645 16.4614H22.7795C23.772 16.4614 24.5828 17.2722 24.5828 18.2647C24.5828 19.2572 23.772 20.0679 22.7795 20.0679H18.2645Z" fill="#ECB22E"/>
</g>
</svg>
