<svg width="63" height="16" viewBox="0 0 63 16" fill="none" xmlns="http://www.w3.org/2000/svg">
<g clip-path="url(#clip0_100_533)">
<path d="M20.0945 12.5354L20.8756 10.7212C21.7197 11.3512 22.841 11.6787 23.9497 11.6787C24.7686 11.6787 25.2851 11.3638 25.2851 10.885C25.2725 9.54959 20.3843 10.5953 20.3465 7.24408C20.3339 5.54329 21.8457 4.23305 23.9875 4.23305C25.2599 4.23305 26.5323 4.54801 27.4394 5.26612L26.7087 7.11809C25.8772 6.58896 24.8441 6.211 23.8615 6.211C23.1938 6.211 22.7528 6.52597 22.7528 6.92911C22.7654 8.23935 27.6914 7.52124 27.7418 10.7212C27.7418 12.4598 26.2678 13.6819 24.1512 13.6819C22.6016 13.6819 21.178 13.3165 20.0945 12.5354ZM50.0662 10.0661C49.6756 10.7464 48.9449 11.2126 48.1008 11.2126C46.8536 11.2126 45.8457 10.2047 45.8457 8.95746C45.8457 7.71022 46.8536 6.70234 48.1008 6.70234C48.9449 6.70234 49.6756 7.16848 50.0662 7.8488L52.2205 6.65195C51.4142 5.21573 49.8646 4.23305 48.1008 4.23305C45.493 4.23305 43.3764 6.34959 43.3764 8.95746C43.3764 11.5653 45.493 13.6819 48.1008 13.6819C49.8772 13.6819 51.4142 12.7118 52.2205 11.263L50.0662 10.0661ZM28.8253 0.314941H31.5213V13.5055H28.8253V0.314941ZM53.2788 0.314941V13.5055H55.9749V9.54959L59.1749 13.5055H62.6268L58.5575 8.80628L62.3245 4.42203H59.0237L55.9749 8.06297V0.314941H53.2788ZM39.5339 10.0913C39.1434 10.7338 38.3371 11.2126 37.43 11.2126C36.1827 11.2126 35.1749 10.2047 35.1749 8.95746C35.1749 7.71022 36.1827 6.70234 37.43 6.70234C38.3371 6.70234 39.1434 7.20628 39.5339 7.8614V10.0913ZM39.5339 4.42203V5.49289C39.093 4.74959 37.9969 4.23305 36.8504 4.23305C34.4819 4.23305 32.6174 6.32439 32.6174 8.94486C32.6174 11.5653 34.4819 13.6819 36.8504 13.6819C37.9969 13.6819 39.093 13.1653 39.5339 12.422V13.4929H42.23V4.42203H39.5339Z" fill="black"/>
<path d="M3.42688 10.0788C3.42688 10.9984 2.68357 11.7418 1.76388 11.7418C0.844198 11.7418 0.100891 10.9984 0.100891 10.0788C0.100891 9.15908 0.844198 8.41577 1.76388 8.41577H3.42688V10.0788ZM4.25837 10.0788C4.25837 9.15908 5.00168 8.41577 5.92136 8.41577C6.84105 8.41577 7.58436 9.15908 7.58436 10.0788V14.2362C7.58436 15.1559 6.84105 15.8992 5.92136 15.8992C5.00168 15.8992 4.25837 15.1559 4.25837 14.2362V10.0788Z" fill="#E01E5A"/>
<path d="M5.9213 3.40155C5.00161 3.40155 4.25831 2.65824 4.25831 1.73855C4.25831 0.818869 5.00161 0.0755615 5.9213 0.0755615C6.84098 0.0755615 7.58429 0.818869 7.58429 1.73855V3.40155H5.9213ZM5.9213 4.24564C6.84098 4.24564 7.58429 4.98895 7.58429 5.90863C7.58429 6.82832 6.84098 7.57162 5.9213 7.57162H1.75122C0.831533 7.57162 0.0882263 6.82832 0.0882263 5.90863C0.0882263 4.98895 0.831533 4.24564 1.75122 4.24564H5.9213Z" fill="#36C5F0"/>
<path d="M12.5859 5.90863C12.5859 4.98895 13.3292 4.24564 14.2489 4.24564C15.1686 4.24564 15.9119 4.98895 15.9119 5.90863C15.9119 6.82832 15.1686 7.57162 14.2489 7.57162H12.5859V5.90863ZM11.7544 5.90863C11.7544 6.82832 11.0111 7.57162 10.0914 7.57162C9.17171 7.57162 8.42841 6.82832 8.42841 5.90863V1.73855C8.42841 0.818869 9.17171 0.0755615 10.0914 0.0755615C11.0111 0.0755615 11.7544 0.818869 11.7544 1.73855V5.90863Z" fill="#2EB67D"/>
<path d="M10.0914 12.5733C11.0111 12.5733 11.7544 13.3166 11.7544 14.2362C11.7544 15.1559 11.0111 15.8992 10.0914 15.8992C9.17171 15.8992 8.42841 15.1559 8.42841 14.2362V12.5733H10.0914ZM10.0914 11.7418C9.17171 11.7418 8.42841 10.9984 8.42841 10.0788C8.42841 9.15908 9.17171 8.41577 10.0914 8.41577H14.2615C15.1812 8.41577 15.9245 9.15908 15.9245 10.0788C15.9245 10.9984 15.1812 11.7418 14.2615 11.7418H10.0914Z" fill="#ECB22E"/>
</g>
<defs>
<clipPath id="clip0_100_533">
<rect width="62.7402" height="16" fill="white"/>
</clipPath>
</defs>
</svg>
