<svg width="17" height="16" viewBox="0 0 17 16" fill="none" xmlns="http://www.w3.org/2000/svg">
<g clip-path="url(#clip0_686_46602)">
<path d="M11.8577 6H16.2488C16.6637 6 17 6.34026 17 6.76V10.8068C17 12.3494 15.764 13.6 14.2393 13.6H14.2262C12.7015 13.6002 11.4653 12.3498 11.4651 10.8072C11.4651 10.8071 11.4651 10.8069 11.4651 10.8068V6.3972C11.4651 6.17783 11.6409 6 11.8577 6Z" fill="#5059C9"/>
<path d="M14.8256 5.19998C15.8081 5.19998 16.6046 4.39409 16.6046 3.39998C16.6046 2.40586 15.8081 1.59998 14.8256 1.59998C13.843 1.59998 13.0465 2.40586 13.0465 3.39998C13.0465 4.39409 13.843 5.19998 14.8256 5.19998Z" fill="#5059C9"/>
<path d="M9.29072 5.20001C10.71 5.20001 11.8605 4.03594 11.8605 2.6C11.8605 1.16406 10.71 0 9.29072 0C7.87147 0 6.72095 1.16406 6.72095 2.6C6.72095 4.03594 7.87147 5.20001 9.29072 5.20001Z" fill="#7B83EB"/>
<path d="M12.7172 6H5.46888C5.05897 6.01026 4.7347 6.35445 4.74421 6.7692V11.3848C4.68697 13.8737 6.63317 15.9391 9.09305 16C11.5529 15.9391 13.4991 13.8737 13.4419 11.3848V6.7692C13.4514 6.35445 13.1271 6.01026 12.7172 6Z" fill="#7B83EB"/>
<path opacity="0.1" d="M9.48836 6V12.468C9.48639 12.7646 9.30874 13.0311 9.03766 13.144C8.95135 13.1809 8.85858 13.2 8.76487 13.2H5.09207C5.04068 13.068 4.99324 12.936 4.9537 12.8C4.81531 12.341 4.7447 11.8639 4.74416 11.384V6.768C4.73466 6.35391 5.05839 6.01026 5.46765 6H9.48836Z" fill="black"/>
<path opacity="0.2" d="M9.09301 6V12.868C9.09299 12.9628 9.07417 13.0567 9.03766 13.144C8.92604 13.4183 8.66268 13.598 8.36952 13.6H5.27789C5.21068 13.468 5.14742 13.336 5.09207 13.2C5.03672 13.064 4.99324 12.936 4.9537 12.8C4.81531 12.341 4.7447 11.8639 4.74416 11.384V6.768C4.73466 6.35391 5.05839 6.01026 5.46765 6H9.09301Z" fill="black"/>
<path opacity="0.2" d="M9.093 6V12.068C9.08999 12.471 8.76783 12.797 8.36951 12.8H4.9537C4.81531 12.341 4.7447 11.8639 4.74416 11.384V6.768C4.73466 6.35391 5.05839 6.01026 5.46765 6H9.093Z" fill="black"/>
<path opacity="0.2" d="M8.69765 6V12.068C8.69464 12.471 8.37248 12.797 7.97416 12.8H4.9537C4.81531 12.341 4.7447 11.8639 4.74416 11.384V6.768C4.73466 6.35391 5.05839 6.01026 5.46765 6H8.69765Z" fill="black"/>
<path opacity="0.1" d="M9.4884 3.93194V5.19194C9.42119 5.19594 9.35793 5.19995 9.29072 5.19995C9.22351 5.19995 9.16026 5.19595 9.09305 5.19194C8.9596 5.18298 8.82725 5.16156 8.6977 5.12795C7.89711 4.93612 7.2357 4.36806 6.91863 3.59995C6.86407 3.47096 6.82172 3.33702 6.79211 3.19995H8.7649C9.16385 3.20148 9.48688 3.5283 9.4884 3.93194Z" fill="black"/>
<path opacity="0.2" d="M9.09306 4.33197V5.19197C8.95961 5.18301 8.82726 5.16159 8.69771 5.12797C7.89712 4.93615 7.23572 4.36808 6.91864 3.59998H8.36957C8.76851 3.6015 9.09154 3.92834 9.09306 4.33197Z" fill="black"/>
<path opacity="0.2" d="M9.09306 4.33197V5.19197C8.95961 5.18301 8.82726 5.16159 8.69771 5.12797C7.89712 4.93615 7.23572 4.36808 6.91864 3.59998H8.36957C8.76851 3.6015 9.09154 3.92834 9.09306 4.33197Z" fill="black"/>
<path opacity="0.2" d="M8.69765 4.33198V5.12797C7.89706 4.93615 7.23565 4.36808 6.91858 3.59998H7.97416C8.37311 3.60151 8.69613 3.92834 8.69765 4.33198Z" fill="black"/>
<path d="M0.724671 3.59998H7.973C8.37322 3.59998 8.69767 3.92824 8.69767 4.33317V11.6668C8.69767 12.0717 8.37322 12.4 7.973 12.4H0.724671C0.324443 12.4 0 12.0717 0 11.6668V4.33317C0 3.92824 0.324451 3.59998 0.724671 3.59998Z" fill="url(#paint0_linear_686_46602)"/>
<path d="M6.25598 6.39122H4.80702V10.3832H3.88388V6.39122H2.44165V5.61682H6.25598V6.39122Z" fill="white"/>
</g>
<defs>
<linearGradient id="paint0_linear_686_46602" x1="1.51096" y1="3.02707" x2="7.28687" y2="12.9144" gradientUnits="userSpaceOnUse">
<stop stop-color="#5A62C3"/>
<stop offset="0.5" stop-color="#4D55BD"/>
<stop offset="1" stop-color="#3940AB"/>
</linearGradient>
<clipPath id="clip0_686_46602">
<rect width="17" height="16" fill="white"/>
</clipPath>
</defs>
</svg>
