<svg width="20" height="20" viewBox="0 0 20 20" fill="none" xmlns="http://www.w3.org/2000/svg">
<path d="M10.6248 6.66676C12.2357 6.66676 13.5416 5.36083 13.5416 3.74988C13.5416 2.13894 12.2357 0.833008 10.6248 0.833008C9.01382 0.833008 7.70789 2.13894 7.70789 3.74988C7.70789 5.36083 9.01382 6.66676 10.6248 6.66676Z" fill="#7B83EB"/>
<path opacity="0.1" d="M10.4169 4.375H7.77502L7.78815 4.43312L7.7894 4.43812L7.80315 4.49187C7.99511 5.21982 8.46086 5.84546 9.10315 6.23817C9.74543 6.63088 10.5146 6.76029 11.25 6.59938V5.20813C11.2494 4.98737 11.1614 4.77584 11.0053 4.61975C10.8492 4.46365 10.6377 4.37566 10.4169 4.375Z" fill="black"/>
<path opacity="0.2" d="M9.79225 5H7.98975C8.22631 5.49877 8.59955 5.92016 9.0661 6.21523C9.53265 6.51029 10.0733 6.66691 10.6254 6.66687V5.83313C10.6247 5.61237 10.5367 5.40084 10.3806 5.24475C10.2245 5.08865 10.013 5.00066 9.79225 5Z" fill="black"/>
<path d="M17.1879 6.875C18.396 6.875 19.3754 5.89562 19.3754 4.6875C19.3754 3.47938 18.396 2.5 17.1879 2.5C15.9797 2.5 15.0004 3.47938 15.0004 4.6875C15.0004 5.89562 15.9797 6.875 17.1879 6.875Z" fill="#5059C9"/>
<path d="M19.0625 7.5H14.1493C14.0432 7.5 13.9415 7.54214 13.8665 7.61716C13.7915 7.69217 13.7493 7.79391 13.7493 7.9V12.9688C13.7358 13.7023 13.9747 14.4183 14.4261 14.9968C14.8774 15.5752 15.5138 15.981 16.2287 16.1463C16.684 16.2418 17.1549 16.2346 17.6071 16.1252C18.0592 16.0158 18.4813 15.8069 18.8426 15.5138C19.2038 15.2206 19.4952 14.8506 19.6954 14.4307C19.8956 14.0108 19.9996 13.5515 20 13.0863V8.4375C20 8.18886 19.9012 7.9504 19.7254 7.77459C19.5495 7.59877 19.3111 7.5 19.0625 7.5Z" fill="#5059C9"/>
<path d="M15.6248 8.4375V14.375C15.6254 15.4753 15.2628 16.5451 14.5932 17.4183C13.9237 18.2915 12.9846 18.9193 11.9218 19.2042C10.859 19.4892 9.73188 19.4153 8.71533 18.9942C7.69877 18.573 6.84966 17.8281 6.29976 16.875C6.17949 16.6751 6.075 16.4661 5.98726 16.25C5.90545 16.0462 5.83657 15.8375 5.78101 15.625C5.67797 15.2163 5.62549 14.7965 5.62476 14.375V8.4375C5.62459 8.31434 5.64873 8.19236 5.69578 8.07854C5.74284 7.96472 5.81189 7.86131 5.89898 7.77422C5.98607 7.68713 6.08948 7.61808 6.2033 7.57103C6.31711 7.52397 6.4391 7.49984 6.56226 7.5H14.6873C14.8104 7.49984 14.9324 7.52397 15.0462 7.57103C15.16 7.61808 15.2634 7.68713 15.3505 7.77422C15.4376 7.86131 15.5067 7.96472 15.5537 8.07854C15.6008 8.19236 15.6249 8.31434 15.6248 8.4375Z" fill="#7B83EB"/>
<path opacity="0.2" d="M9.79225 5H7.98975C8.22631 5.49877 8.59955 5.92016 9.0661 6.21523C9.53265 6.51029 10.0733 6.66691 10.6254 6.66687V5.83313C10.6247 5.61237 10.5367 5.40084 10.3806 5.24475C10.2245 5.08865 10.013 5.00066 9.79225 5Z" fill="black"/>
<path opacity="0.1" d="M11.2498 7.5V15.4188C11.2498 15.6072 11.1853 15.7899 11.067 15.9366C10.9488 16.0833 10.7839 16.185 10.5998 16.225C10.541 16.2425 10.4798 16.2509 10.4185 16.25H5.98726C5.90545 16.0462 5.83657 15.8375 5.78101 15.625C5.67797 15.2163 5.62549 14.7965 5.62476 14.375V8.4375C5.62459 8.31434 5.64873 8.19236 5.69578 8.07854C5.74284 7.96472 5.81189 7.86131 5.89898 7.77422C5.98607 7.68713 6.08948 7.61808 6.2033 7.57103C6.31711 7.52397 6.4391 7.49984 6.56226 7.5H11.2498Z" fill="black"/>
<path opacity="0.2" d="M10.6248 7.5V16.0438C10.6257 16.1051 10.6172 16.1662 10.5998 16.225C10.5598 16.4091 10.458 16.574 10.3113 16.6923C10.1647 16.8105 9.98192 16.875 9.79351 16.875H6.29976C6.17949 16.6751 6.075 16.4661 5.98726 16.25C5.90545 16.0462 5.83657 15.8375 5.78101 15.625C5.67797 15.2163 5.62549 14.7965 5.62476 14.375V8.4375C5.62459 8.31434 5.64873 8.19236 5.69578 8.07854C5.74284 7.96472 5.81189 7.86131 5.89898 7.77422C5.98607 7.68713 6.08948 7.61808 6.2033 7.57103C6.31711 7.52397 6.4391 7.49984 6.56226 7.5H10.6248Z" fill="black"/>
<path opacity="0.2" d="M10.6248 7.5V14.7937C10.6238 15.0139 10.5359 15.2248 10.3802 15.3804C10.2245 15.5361 10.0137 15.624 9.79351 15.625H5.78101C5.67797 15.2163 5.62549 14.7965 5.62476 14.375V8.4375C5.62459 8.31434 5.64873 8.19236 5.69578 8.07854C5.74284 7.96472 5.81189 7.86131 5.89898 7.77422C5.98607 7.68713 6.08948 7.61808 6.2033 7.57103C6.31711 7.52397 6.4391 7.49984 6.56226 7.5H10.6248Z" fill="black"/>
<path opacity="0.2" d="M6.56226 7.5C6.4391 7.49984 6.31711 7.52397 6.2033 7.57103C6.08948 7.61808 5.98607 7.68713 5.89898 7.77422C5.81189 7.86131 5.74284 7.96472 5.69578 8.07854C5.64873 8.19236 5.62459 8.31434 5.62476 8.4375V14.375C5.62549 14.7965 5.67797 15.2163 5.78101 15.625H9.16851C9.38866 15.624 9.59952 15.5361 9.7552 15.3804C9.91088 15.2248 9.99877 15.0139 9.99976 14.7937V7.5H6.56226Z" fill="black"/>
<path d="M0.833125 5H9.16687C9.38783 5 9.59974 5.08778 9.75598 5.24402C9.91222 5.40026 10 5.61217 10 5.83313V14.1669C10 14.3878 9.91222 14.5997 9.75598 14.756C9.59974 14.9122 9.38783 15 9.16687 15H0.833125C0.612166 15 0.400258 14.9122 0.244017 14.756C0.0877754 14.5997 0 14.3878 0 14.1669L0 5.83313C0 5.61217 0.0877754 5.40026 0.244017 5.24402C0.400258 5.08778 0.612166 5 0.833125 5Z" fill="#4B53BC"/>
<path d="M7.48757 8.10967H5.61882V13.1222H4.39257V8.10967H2.51257V6.87842H7.48757V8.10967Z" fill="white"/>
</svg>
