<svg width="24" height="24" viewBox="0 0 24 24" fill="none" xmlns="http://www.w3.org/2000/svg">
<path fill-rule="evenodd" clip-rule="evenodd" d="M3 6C3 4.34315 4.34315 3 6 3H18C19.6569 3 21 4.34315 21 6V18C21 19.6569 19.6569 21 18 21H6C4.34315 21 3 19.6569 3 18V6ZM6.79289 7.29289C7.18342 6.90237 7.81658 6.90237 8.20711 7.29289L9.95711 9.04289C10.3476 9.43342 10.3476 10.0666 9.95711 10.4571L8.20711 12.2071C7.81658 12.5976 7.18342 12.5976 6.79289 12.2071C6.40237 11.8166 6.40237 11.1834 6.79289 10.7929L7.83579 9.75L6.79289 8.70711C6.40237 8.31658 6.40237 7.68342 6.79289 7.29289ZM11 11.5C11 10.9477 11.4477 10.5 12 10.5H14C14.5523 10.5 15 10.9477 15 11.5C15 12.0523 14.5523 12.5 14 12.5H12C11.4477 12.5 11 12.0523 11 11.5Z" fill="#FAFAFA"/>
</svg>
