<svg width="118" height="32" viewBox="0 0 118 32" fill="none" xmlns="http://www.w3.org/2000/svg">
<g clip-path="url(#clip0_151_11266)">
<path d="M40.8529 15.7391C41.3196 16.0307 42.0179 16.2641 42.8928 16.439C43.7678 16.6723 44.6994 16.7307 45.6327 16.7307C46.5659 16.7307 47.3809 16.614 48.1392 16.3807C48.8975 16.1474 49.5375 15.7974 50.1208 15.3891C50.7041 14.9808 51.1124 14.3976 51.4024 13.8159C51.6941 13.2326 51.869 12.5342 51.869 11.776C51.869 10.8427 51.5774 10.0277 51.0524 9.26942C50.5275 8.56949 49.5958 7.98778 48.3126 7.57949L45.8061 6.7629C44.8728 6.47126 44.1745 6.12129 43.8245 5.77132C43.4745 5.42135 43.2996 5.07138 43.2996 4.48968C43.2996 3.78974 43.5912 3.20804 44.1161 2.9164C44.6411 2.62476 45.4561 2.39145 46.506 2.39145C47.7877 2.39145 48.8959 2.62476 49.9442 3.09138C50.2359 3.20804 50.4692 3.3247 50.6441 3.3247C50.9358 3.3247 51.0524 3.14971 51.0524 2.74142V1.92482C51.0524 1.69151 50.9941 1.4582 50.8775 1.34155C50.7608 1.22489 50.5858 1.0499 50.3525 0.87492C50.1775 0.758264 49.8859 0.64161 49.5942 0.583282C49.3026 0.466626 48.9526 0.408297 48.6027 0.291641C48.2527 0.233313 47.8444 0.116658 47.4377 0.0583296C47.0294 1.6354e-06 46.6211 0 46.2144 0C45.4561 0 44.6994 0.116657 43.9995 0.291641C43.2996 0.524953 42.6595 0.816593 42.1346 1.22489C41.6096 1.69151 41.143 2.15814 40.8529 2.73984C40.5613 3.32312 40.3863 3.96315 40.3863 4.72142C40.3863 5.65466 40.6779 6.52801 41.2612 7.28627C41.8445 8.10286 42.7762 8.68456 44.1177 9.09286L46.6826 9.90946C47.5575 10.2011 48.1392 10.4927 48.4892 10.8427C48.8391 11.1927 48.9558 11.601 48.9558 12.066C48.9558 12.766 48.6642 13.3477 48.0225 13.7559C47.3809 14.1642 46.5659 14.3392 45.3994 14.3392C44.6994 14.3392 44.0011 14.2809 43.3011 14.1059C42.6012 13.9309 41.9612 13.7559 41.3196 13.4643C41.1446 13.406 40.9696 13.3477 40.8529 13.2893C40.7363 13.231 40.6196 13.231 40.503 13.231C40.2113 13.231 40.0947 13.406 40.0947 13.8143V14.6892C40.0947 14.8642 40.153 15.0392 40.2113 15.2141C40.328 15.4475 40.5613 15.5641 40.8529 15.7391ZM10.7762 7.11286C10.1346 6.99621 9.49454 6.99621 8.91126 6.99621C7.10467 6.99621 5.64804 7.46283 4.53981 8.3945C3.48991 9.32775 2.9082 10.5511 2.9082 12.066C2.9082 13.5226 3.3165 14.6309 4.18984 15.5042C5.06476 16.3791 6.22975 16.7859 7.7447 16.7859C9.84293 16.7859 11.5912 15.9693 12.9911 14.3377C13.166 14.7459 13.341 15.0959 13.516 15.3876C13.691 15.6792 13.9243 15.9708 14.1576 16.2041C14.3326 16.3791 14.5076 16.4375 14.6826 16.4375C14.7992 16.4375 14.9742 16.3791 15.1492 16.2625L16.2559 15.5042C16.4892 15.3292 16.6058 15.1542 16.6058 14.9793C16.6058 14.8626 16.5475 14.7459 16.4892 14.571C16.2559 14.1043 16.0225 13.696 15.9059 13.2893C15.7892 12.881 15.6726 12.3561 15.6726 11.716V5.88798C15.6726 3.96473 15.1476 2.50811 14.216 1.51653C13.2827 0.524954 11.6511 0.0599052 9.55287 0.0599052C8.56129 0.0599052 7.62962 0.176561 6.7547 0.409873C5.87978 0.643185 5.12309 0.934827 4.53981 1.22647C4.3065 1.34312 4.13151 1.45978 4.07319 1.57643C4.01486 1.69309 3.95653 1.9264 3.95653 2.21804V3.09296C3.95653 3.44293 4.07319 3.67624 4.3065 3.67624C4.36483 3.67624 4.48148 3.67624 4.59814 3.61791C4.71479 3.55959 4.94811 3.50126 5.23975 3.3846C5.88135 3.15129 6.52139 2.91798 7.16299 2.80132C7.8046 2.62634 8.44463 2.56801 9.08624 2.56801C10.4262 2.56801 11.4178 2.85965 12.0011 3.3846C12.5843 3.90955 12.8177 4.89955 12.8177 6.2411V7.52274C12.0578 7.34617 11.4178 7.22952 10.7762 7.11286ZM12.8161 10.261C12.8161 10.8443 12.7578 11.3677 12.6411 11.776C12.5244 12.1842 12.3495 12.5925 12.0578 12.9409C11.5912 13.4659 11.0079 13.8742 10.3679 14.0476C9.72627 14.2226 9.08624 14.3976 8.50296 14.3976C7.68637 14.3976 7.04634 14.1642 6.63804 13.7559C6.17142 13.3477 5.99643 12.706 5.99643 11.891C5.99643 11.0161 6.28807 10.3178 6.87135 9.85113C7.45463 9.3845 8.32798 9.15119 9.49454 9.15119C10.0195 9.15119 10.6012 9.20952 11.1845 9.26785C11.7678 9.32617 12.2911 9.44283 12.8161 9.55949V10.261ZM21.734 15.4475C21.8506 15.7974 21.9673 16.0307 22.0839 16.1474C22.2006 16.2641 22.4339 16.3224 22.7839 16.3224H24.2988C24.6488 16.3224 24.8821 16.2641 24.9987 16.1474C25.1154 16.0307 25.2321 15.7974 25.3487 15.4475L28.0886 3.96473L30.8867 15.4475C30.9451 15.7974 31.0617 16.0307 31.2367 16.1474C31.4117 16.2641 31.645 16.3224 31.9366 16.3224H33.4516C33.7432 16.3224 33.9765 16.2641 34.1515 16.1474C34.2682 16.0307 34.4432 15.7974 34.5015 15.4475L38.8146 1.69151C38.8729 1.51653 38.9313 1.34154 38.9313 1.22489C38.9313 1.10823 38.9896 1.04991 38.9896 0.93325C38.9896 0.64161 38.8729 0.466625 38.523 0.466625H36.8914C36.5414 0.466625 36.3081 0.524953 36.1914 0.641609C36.0748 0.758265 35.9581 0.991577 35.8414 1.34155L32.7516 13.2893L29.9535 1.39987C29.8951 1.0499 29.7785 0.816592 29.6035 0.699936C29.4869 0.58328 29.1952 0.524952 28.9036 0.524952H27.4469C27.097 0.524952 26.8637 0.58328 26.747 0.699936C26.6304 0.816592 26.4554 0.991577 26.397 1.39987L23.5989 13.1742L20.6257 1.34155C20.5091 0.991577 20.3924 0.758265 20.2758 0.641609C20.1591 0.524953 19.9258 0.466625 19.5758 0.466625H17.8276C17.5359 0.466625 17.3609 0.583282 17.3609 0.93325C17.3609 1.04991 17.4193 1.28322 17.5359 1.63318C17.5375 1.63476 21.734 15.4475 21.734 15.4475Z" fill="white"/>
<path d="M48.138 24.074C41.5517 26.8722 34.4404 28.2121 27.9124 28.2121C18.2946 28.2121 8.96995 25.5889 1.45037 21.1592C0.808765 20.7509 0.28539 21.4508 0.867093 21.9174C7.86172 28.2121 17.0697 32.0003 27.3291 32.0003C34.6154 32.0003 43.1249 29.7271 49.0113 25.3556C49.9462 24.7156 49.1296 23.6657 48.138 24.074Z" fill="#F49819"/>
<path d="M44.4672 21.6253C43.9422 21.9753 44.0589 22.5003 44.5838 22.4419C46.4487 22.2086 50.6452 21.742 51.4035 22.6753C52.1617 23.6668 50.5869 27.5717 49.8885 29.3782C49.6552 29.9032 50.1218 30.1365 50.5884 29.7282C53.7366 27.105 54.5516 21.5686 53.91 20.8103C53.3267 19.9354 47.7903 19.2355 44.4672 21.6253Z" fill="#F49819"/>
<path d="M68.0146 12.6491C67.8979 12.6491 67.7812 12.5908 67.7812 12.4158V2.798C67.7812 2.68135 67.8396 2.56469 68.0146 2.56469H68.3062C68.4812 2.56469 68.5395 2.62302 68.5395 2.798L68.5978 3.38129C69.0061 3.03132 69.4728 2.79801 69.8795 2.62302C70.2862 2.44804 70.6961 2.38971 71.1611 2.38971C72.0944 2.38971 72.7927 2.73968 73.3177 3.38129C73.8426 4.02289 74.1343 4.95456 74.1343 6.0628C74.1343 7.22778 73.8426 8.16103 73.3177 8.86096C72.7927 9.5609 72.036 9.91086 71.0445 9.91086C70.1695 9.91086 69.4129 9.5609 68.6546 8.91929V12.4158C68.6546 12.5325 68.5963 12.6491 68.4213 12.6491H68.0146ZM70.9278 9.1526C71.6861 9.1526 72.2678 8.91929 72.6761 8.39434C73.0844 7.86939 73.2593 7.1127 73.2593 6.12112C73.2593 4.13955 72.5011 3.14797 70.9861 3.14797C70.2279 3.14797 69.4129 3.43961 68.6546 4.02289V8.16103C69.0629 8.51099 69.4129 8.74431 69.7612 8.86096C70.1128 9.03595 70.5195 9.09427 70.9278 9.1526ZM77.5725 9.85254C76.9309 9.85254 76.4075 9.67756 75.9992 9.26926C75.6492 8.91929 75.4159 8.39434 75.4159 7.75431C75.4159 7.05437 75.6492 6.531 76.1158 6.1227C76.5825 5.71441 77.2225 5.53942 78.0391 5.53942C78.6807 5.53942 79.3207 5.65608 80.079 5.88939V4.7244C80.079 4.14112 79.9623 3.73283 79.6707 3.50109C79.3791 3.26778 78.9708 3.15113 78.3307 3.15113C77.6891 3.15113 76.9908 3.26778 76.2908 3.50109C76.2325 3.50109 76.1158 3.55942 76.0575 3.55942C75.9409 3.55942 75.9409 3.50109 75.9409 3.38444V3.15113C75.9409 3.0928 75.9409 3.03447 75.9992 2.97614L76.1158 2.85949C76.8741 2.56785 77.6308 2.39286 78.5057 2.39286C79.3806 2.39286 79.9623 2.56785 80.3706 2.91781C80.7789 3.26778 80.9539 3.79273 80.9539 4.49109V9.50415C80.9539 9.6208 80.8956 9.73746 80.7206 9.73746H80.429C80.3123 9.73746 80.1956 9.67913 80.1956 9.50415L80.1373 8.92087C79.3207 9.5609 78.4474 9.91087 77.5725 9.85254ZM77.6891 9.1526C78.0391 9.1526 78.4474 9.09427 78.8541 8.91929C79.2624 8.74431 79.6707 8.56932 80.1357 8.27768V6.52942C79.5272 6.36547 78.8998 6.28823 78.2708 6.29611C76.9309 6.29611 76.2893 6.82106 76.2893 7.81106C76.2893 8.27768 76.4059 8.56932 76.6392 8.80264C76.8725 9.03595 77.2225 9.09427 77.6891 9.1526ZM83.3422 9.73588C83.2256 9.73588 83.1089 9.67755 83.1089 9.50257V2.79958C83.1089 2.68293 83.1672 2.56627 83.3422 2.56627H83.6338C83.8088 2.56627 83.8672 2.6246 83.8672 2.79958L83.9255 3.61617C84.2755 3.20788 84.6254 2.91624 84.9754 2.79958C85.3254 2.6246 85.7337 2.56627 86.1404 2.56627H86.4903C86.607 2.56627 86.7237 2.6246 86.7237 2.79958V3.14955C86.7237 3.20788 86.7237 3.20788 86.6653 3.2662C86.6653 3.32453 86.607 3.32453 86.5487 3.32453H86.0237C85.6154 3.32453 85.2071 3.38286 84.8587 3.55785C84.5088 3.73283 84.2171 3.96614 83.8672 4.31611V9.50415C83.8672 9.6208 83.8088 9.73746 83.6338 9.73746L83.3422 9.73588ZM90.4535 9.79421C89.8702 9.79421 89.4619 9.67756 89.1719 9.32759C88.8802 9.03595 88.7052 8.62765 88.7052 8.04595V3.32453H87.5986C87.4819 3.32453 87.3653 3.2662 87.3653 3.09122V2.97457C87.3653 2.91624 87.3653 2.85791 87.4236 2.79958C87.4819 2.74125 87.4819 2.74125 87.5986 2.74125L88.7636 2.6246L88.8802 0.759678C88.8802 0.70135 88.9385 0.643022 88.9385 0.584694C88.9385 0.526366 88.9969 0.526367 89.1135 0.526367H89.3468C89.4635 0.526367 89.5802 0.584695 89.5802 0.759678V2.6246H91.6201C91.7367 2.6246 91.8534 2.68293 91.8534 2.85791V3.14955C91.8534 3.26621 91.795 3.38286 91.6201 3.38286H89.5802V7.98762C89.5802 8.39592 89.6385 8.62923 89.8135 8.80421C89.9884 8.9792 90.2801 9.03753 90.6301 9.03753C90.9217 9.03753 91.155 9.03752 91.33 8.9792C91.4466 8.9792 91.505 8.92087 91.5633 8.92087H91.68C91.7966 8.92087 91.8549 8.9792 91.8549 9.09585V9.32916C91.8549 9.50415 91.7966 9.56247 91.68 9.6208C91.3284 9.73588 90.9201 9.79421 90.4535 9.79421ZM93.6016 9.73588C93.485 9.73588 93.3683 9.67755 93.3683 9.50257V2.79958C93.3683 2.68293 93.4267 2.56627 93.6016 2.56627H93.8933C94.0683 2.56627 94.1266 2.6246 94.1266 2.79958L94.1849 3.38286C94.6515 3.03289 95.1182 2.79958 95.6415 2.6246C96.1665 2.44961 96.6331 2.33296 97.1565 2.33296C97.8564 2.33296 98.3798 2.50794 98.7298 2.85791C99.0797 3.20788 99.2547 3.73283 99.2547 4.48952V9.44424C99.2547 9.5609 99.1964 9.67756 99.0214 9.67756H98.6714C98.5548 9.67756 98.4381 9.61923 98.4381 9.44424V4.83949C98.4381 4.25621 98.3215 3.78958 98.0882 3.49952C97.8548 3.20788 97.4466 3.09122 96.9815 3.09122C96.0483 3.09122 95.1166 3.38286 94.2417 3.96614V9.44424C94.2417 9.5609 94.1833 9.67756 94.0083 9.67756L93.6016 9.73588ZM104.443 9.91086C103.336 9.91086 102.461 9.61923 101.878 8.97762C101.295 8.33601 101.003 7.40434 101.003 6.12112C101.003 4.95614 101.295 4.02289 101.878 3.32296C102.461 2.68135 103.276 2.33138 104.268 2.33138C105.143 2.33138 105.783 2.56469 106.249 3.08964C106.716 3.55627 106.949 4.31296 106.949 5.18788C106.949 5.59617 106.949 5.82948 106.891 6.0628C106.833 6.17945 106.774 6.29611 106.658 6.29611H101.878C101.878 7.28768 102.111 8.04437 102.52 8.51099C102.928 8.97762 103.626 9.21093 104.501 9.21093C105.201 9.21093 105.841 9.09428 106.424 8.86096C106.541 8.80264 106.658 8.80264 106.658 8.80264C106.716 8.80264 106.716 8.80264 106.774 8.86096C106.833 8.91929 106.833 8.91929 106.833 8.97762V9.1526C106.833 9.32759 106.774 9.38591 106.658 9.44424C106.018 9.73588 105.259 9.91086 104.443 9.91086ZM106.193 5.65608V5.18945C106.193 4.48952 106.018 3.96614 105.668 3.61617C105.318 3.2662 104.851 3.09122 104.211 3.09122C102.696 3.09122 101.938 3.96614 101.821 5.59775H106.193V5.65608ZM108.989 9.73588C108.873 9.73588 108.756 9.67755 108.756 9.50257V2.79958C108.756 2.68293 108.814 2.56627 108.989 2.56627H109.281C109.456 2.56627 109.514 2.6246 109.514 2.79958L109.572 3.61617C109.922 3.20788 110.272 2.91624 110.622 2.79958C110.972 2.6246 111.381 2.56627 111.787 2.56627H112.137C112.254 2.56627 112.371 2.6246 112.371 2.79958V3.14955C112.371 3.20788 112.371 3.20788 112.312 3.2662C112.312 3.32453 112.254 3.32453 112.196 3.32453H111.671C111.262 3.32453 110.854 3.38286 110.506 3.55785C110.156 3.73283 109.864 3.96614 109.514 4.31611V9.50415C109.514 9.6208 109.456 9.73746 109.281 9.73746C109.279 9.73588 108.989 9.73588 108.989 9.73588ZM68.0146 25.4151C67.8979 25.4151 67.7812 25.3568 67.7812 25.1818V18.5371C67.7812 18.4204 67.8396 18.3038 68.0146 18.3038H68.3062C68.4812 18.3038 68.5395 18.3621 68.5395 18.5371L68.5978 19.1204C69.0645 18.7704 69.5311 18.5371 70.0545 18.3621C70.5794 18.1871 71.046 18.0705 71.5694 18.0705C72.2694 18.0705 72.7927 18.2455 73.1427 18.5954C73.4927 18.9454 73.6676 19.4704 73.6676 20.227V25.1818C73.6676 25.2984 73.6093 25.4151 73.4343 25.4151H73.026C72.9094 25.4151 72.7927 25.3568 72.7927 25.1818V20.577C72.7927 19.9354 72.6761 19.5271 72.4428 19.237C72.2094 18.9454 71.8012 18.8287 71.3361 18.8287C70.4029 18.8287 69.4712 19.1204 68.5963 19.762V25.2401C68.5963 25.3568 68.5379 25.4734 68.363 25.4734C68.4213 25.4151 68.0146 25.4151 68.0146 25.4151ZM78.8541 25.6468C77.7475 25.6468 76.8725 25.3552 76.2893 24.7136C75.706 24.072 75.4143 23.1403 75.4143 21.8571C75.4143 20.6921 75.706 19.7588 76.2893 19.0589C76.8725 18.4173 77.6875 18.0673 78.6791 18.0673C79.554 18.0673 80.1941 18.3006 80.6607 18.8256C81.1273 19.2922 81.3606 19.9906 81.3606 20.9238C81.3606 21.3321 81.3606 21.5654 81.3023 21.7987C81.244 21.9154 81.1857 22.0321 81.069 22.0321H76.2893C76.2893 23.0236 76.5226 23.7803 76.9309 24.2469C77.3392 24.7136 78.0375 24.9469 78.9124 24.9469C79.6124 24.9469 80.2524 24.8302 80.8357 24.5969C80.9523 24.5386 81.069 24.5386 81.069 24.5386C81.1273 24.5386 81.1273 24.5386 81.1857 24.5969C81.244 24.6552 81.244 24.6552 81.244 24.7136V24.9469C81.244 25.1219 81.1857 25.1802 81.069 25.2385C80.429 25.4718 79.6707 25.6468 78.8541 25.6468ZM80.6039 21.3337V20.8671C80.6039 20.1671 80.429 19.6438 80.079 19.2938C79.729 18.9438 79.2624 18.7688 78.6224 18.7688C77.1074 18.7688 76.3492 19.5854 76.2325 21.2754L80.6039 21.3337ZM85.3821 25.5302C84.7988 25.5302 84.3905 25.4135 84.1005 25.0635C83.8088 24.7719 83.6338 24.3636 83.6338 23.7819V19.0022H82.5272C82.4105 19.0022 82.2939 18.9438 82.2939 18.7688V18.6522C82.2939 18.5939 82.2939 18.5355 82.3522 18.4772C82.4105 18.4189 82.4105 18.4189 82.5272 18.4189L83.6922 18.3022L83.8088 16.4373C83.8088 16.379 83.8672 16.3206 83.8672 16.2623C83.9255 16.204 83.9255 16.204 84.0421 16.204H84.2755C84.3921 16.204 84.5088 16.2623 84.5088 16.4373V18.3022H86.5487C86.6653 18.3022 86.782 18.3605 86.782 18.5355V18.8272C86.782 18.9438 86.7237 19.0605 86.5487 19.0605H84.5088V23.7236C84.5088 24.1319 84.5671 24.3652 84.7421 24.5402C84.9171 24.7151 85.2087 24.7735 85.5587 24.7735C85.8503 24.7735 86.0836 24.7735 86.2586 24.7151C86.3753 24.7151 86.4336 24.6568 86.4919 24.6568H86.6086C86.7252 24.6568 86.7836 24.7151 86.7836 24.8318V25.0651C86.7836 25.2401 86.7252 25.2984 86.6086 25.3567C86.257 25.4734 85.8487 25.5302 85.3821 25.5302ZM89.9869 25.4151C89.8702 25.4151 89.7536 25.3568 89.6952 25.2401L87.4803 18.6538C87.422 18.5371 87.422 18.4788 87.422 18.4204C87.422 18.3038 87.4803 18.3038 87.597 18.3038H88.0636C88.1803 18.3038 88.2969 18.3621 88.2969 18.4788L90.2202 24.4818L91.9101 18.4788C91.9684 18.3621 92.0268 18.3038 92.2018 18.3038H92.7267C92.8434 18.3038 92.96 18.3621 93.0184 18.4788L94.7083 24.4818L96.6899 18.4204C96.7482 18.3038 96.8065 18.2455 96.9232 18.2455H97.3315C97.4481 18.2455 97.5065 18.3038 97.5065 18.3621C97.5065 18.4204 97.5065 18.4788 97.4481 18.5954L95.1166 25.1818C95.0583 25.2984 94.9999 25.3567 94.8249 25.3567H94.3583C94.2417 25.3567 94.125 25.2984 94.0667 25.1818L92.3767 19.1787L90.6868 25.1818C90.6285 25.2984 90.5702 25.3567 90.3952 25.3567L89.9869 25.4151ZM101.703 25.6468C100.653 25.6468 99.838 25.2968 99.313 24.6552C98.7881 24.0136 98.4381 23.082 98.4381 21.8571C98.4381 20.6322 98.7298 19.7588 99.313 19.0589C99.8963 18.359 100.711 18.0673 101.703 18.0673C102.694 18.0673 103.568 18.4173 104.093 19.0589C104.676 19.7005 104.968 20.6322 104.968 21.8571C104.968 23.082 104.676 23.9553 104.093 24.6552C103.568 25.2984 102.751 25.6468 101.703 25.6468ZM101.703 24.8901C103.335 24.8901 104.151 23.8985 104.151 21.8586C104.151 19.8187 103.335 18.8272 101.703 18.8272C100.071 18.8272 99.2547 19.8187 99.2547 21.8586C99.2547 23.8985 100.071 24.8901 101.703 24.8901ZM107.066 25.4151C106.949 25.4151 106.833 25.3568 106.833 25.1818V18.5371C106.833 18.4204 106.891 18.3038 107.066 18.3038H107.358C107.533 18.3038 107.591 18.3621 107.591 18.5371L107.649 19.3537C107.999 18.9454 108.349 18.6538 108.699 18.5371C109.049 18.3621 109.457 18.3038 109.864 18.3038H110.214C110.331 18.3038 110.447 18.3621 110.447 18.5371V18.8871C110.447 18.9454 110.447 18.9454 110.389 19.0037C110.389 19.0037 110.331 19.0621 110.272 19.0621H109.747C109.339 19.0621 108.931 19.1204 108.582 19.2954C108.232 19.4704 107.941 19.7037 107.591 20.0536V25.2417C107.591 25.3583 107.533 25.475 107.358 25.475C107.358 25.4718 107.066 25.4151 107.066 25.4151ZM111.902 25.4151C111.786 25.4151 111.669 25.3568 111.669 25.1818V15.1572C111.669 15.0406 111.727 14.9239 111.902 14.9239H112.311C112.427 14.9239 112.544 14.9822 112.544 15.1572V21.4519L115.924 18.4204C116.041 18.3038 116.157 18.3038 116.274 18.3038H116.799C116.915 18.3038 116.974 18.3621 116.974 18.4204C116.974 18.4788 116.915 18.5371 116.799 18.6538L113.361 21.6852L117.09 25.1234C117.149 25.1818 117.207 25.2401 117.207 25.2984C117.207 25.4151 117.149 25.4151 117.032 25.4151H116.449C116.332 25.4151 116.216 25.3568 116.157 25.2984L112.544 21.9769V25.2401C112.544 25.3568 112.486 25.4734 112.311 25.4734L111.902 25.4151Z" fill="white"/>
</g>
<defs>
<clipPath id="clip0_151_11266">
<rect width="118" height="32" fill="white"/>
</clipPath>
</defs>
</svg>
