<svg width="180" height="60" viewBox="0 0 180 60" fill="none" xmlns="http://www.w3.org/2000/svg">
<path d="M13.6035 18.6439V12.1792H15.7879C16.2929 12.1792 16.7075 12.2655 17.0316 12.4381C17.3556 12.6085 17.5955 12.8432 17.7513 13.142C17.907 13.4408 17.9849 13.7807 17.9849 14.1615C17.9849 14.5424 17.907 14.8802 17.7513 15.1748C17.5955 15.4694 17.3567 15.7009 17.0347 15.8692C16.7128 16.0355 16.3014 16.1186 15.8005 16.1186H14.0328V15.4115H15.7753C16.1204 15.4115 16.3982 15.361 16.6086 15.26C16.8211 15.159 16.9748 15.0159 17.0695 14.8307C17.1663 14.6434 17.2147 14.4204 17.2147 14.1615C17.2147 13.9027 17.1663 13.6765 17.0695 13.4829C16.9726 13.2893 16.818 13.1399 16.6054 13.0347C16.3929 12.9273 16.112 12.8737 15.7626 12.8737H14.3864V18.6439H13.6035ZM16.6465 15.7398L18.2374 18.6439H17.3283L15.7626 15.7398H16.6465ZM19.2893 18.6439V12.1792H23.1908V12.8737H20.0721V15.058H22.9888V15.7525H20.0721V17.9494H23.2413V18.6439H19.2893ZM24.867 12.1792L26.7861 17.6211H26.8619L28.7811 12.1792H29.6018L27.2281 18.6439H26.42L24.0462 12.1792H24.867ZM31.3916 12.1792V18.6439H30.6087V12.1792H31.3916ZM32.9612 18.6439V12.1792H36.8627V12.8737H33.744V15.058H36.6607V15.7525H33.744V17.9494H36.9132V18.6439H32.9612ZM39.4479 18.6439L37.6802 12.1792H38.4757L39.8267 17.4444H39.8898L41.2661 12.1792H42.1499L43.5262 17.4444H43.5893L44.9403 12.1792H45.7358L43.9681 18.6439H43.16L41.7333 13.4924H41.6828L40.256 18.6439H39.4479ZM46.7112 18.6439V12.1792H50.6127V12.8737H47.494V15.058H50.4107V15.7525H47.494V17.9494H50.6632V18.6439H46.7112ZM54.0186 18.6439H52.0237V12.1792H54.107C54.7341 12.1792 55.2707 12.3086 55.7169 12.5675C56.163 12.8242 56.505 13.1935 56.7427 13.6754C56.9805 14.1552 57.0994 14.7297 57.0994 15.3989C57.0994 16.0723 56.9795 16.6521 56.7396 17.1382C56.4997 17.6222 56.1504 17.9947 55.6916 18.2556C55.2329 18.5145 54.6752 18.6439 54.0186 18.6439ZM52.8065 17.9494H53.9681C54.5026 17.9494 54.9456 17.8463 55.297 17.6401C55.6485 17.4339 55.9105 17.1403 56.083 16.7594C56.2556 16.3785 56.3419 15.925 56.3419 15.3989C56.3419 14.877 56.2566 14.4278 56.0862 14.0511C55.9157 13.6723 55.6611 13.3819 55.3223 13.1799C54.9835 12.9757 54.5616 12.8737 54.0565 12.8737H52.8065V17.9494ZM66.3671 15.4115C66.3671 16.0934 66.244 16.6826 65.9978 17.1792C65.7516 17.6759 65.4138 18.0589 64.9845 18.3282C64.5552 18.5976 64.0649 18.7323 63.5136 18.7323C62.9622 18.7323 62.4719 18.5976 62.0426 18.3282C61.6133 18.0589 61.2756 17.6759 61.0294 17.1792C60.7832 16.6826 60.66 16.0934 60.66 15.4115C60.66 14.7297 60.7832 14.1405 61.0294 13.6439C61.2756 13.1472 61.6133 12.7642 62.0426 12.4949C62.4719 12.2255 62.9622 12.0908 63.5136 12.0908C64.0649 12.0908 64.5552 12.2255 64.9845 12.4949C65.4138 12.7642 65.7516 13.1472 65.9978 13.6439C66.244 14.1405 66.3671 14.7297 66.3671 15.4115ZM65.6095 15.4115C65.6095 14.8518 65.5159 14.3794 65.3286 13.9942C65.1434 13.6091 64.8919 13.3177 64.5742 13.1199C64.2585 12.9221 63.905 12.8232 63.5136 12.8232C63.1222 12.8232 62.7676 12.9221 62.4498 13.1199C62.1342 13.3177 61.8827 13.6091 61.6954 13.9942C61.5102 14.3794 61.4176 14.8518 61.4176 15.4115C61.4176 15.9713 61.5102 16.4437 61.6954 16.8288C61.8827 17.2139 62.1342 17.5054 62.4498 17.7032C62.7676 17.901 63.1222 17.9999 63.5136 17.9999C63.905 17.9999 64.2585 17.901 64.5742 17.7032C64.8919 17.5054 65.1434 17.2139 65.3286 16.8288C65.5159 16.4437 65.6095 15.9713 65.6095 15.4115ZM72.8097 12.1792V18.6439H72.0521L68.5294 13.5681H68.4662V18.6439H67.6834V12.1792H68.441L71.9763 17.2676H72.0395V12.1792H72.8097Z" fill="white"/>
<path d="M32.3506 28.7549H35.806V50.0882H32.3506V28.7549Z" fill="white"/>
<path d="M47.8251 43.328C47.8251 46.6332 45.1208 46.9336 44.2194 46.9336C42.1161 46.9336 41.8158 44.9806 41.8158 43.9289V35.666H38.3604V43.7787C38.3604 45.7317 38.9613 47.5346 40.1632 48.5862C41.2148 49.6379 42.5668 50.0886 44.2194 50.0886C45.4213 50.0886 46.9237 49.7881 47.8251 48.8867V50.0886H51.2805V35.666H47.8251V43.328Z" fill="white"/>
<path d="M58.0406 30.4082H54.5853V35.6664H52.0312V38.9715H54.5853V50.0889H58.0406V38.9715H60.5947V35.6664H58.0406V30.4082Z" fill="white"/>
<path d="M71.4123 45.7314C70.6611 46.3324 69.6095 46.7831 68.5578 46.7831C66.1541 46.7831 64.5015 44.9803 64.5015 42.5765C64.5015 40.1727 66.1541 38.5202 68.5578 38.5202C69.6095 38.5202 70.6611 38.8206 71.4123 39.5718L71.863 40.0225L74.2668 37.769L73.6658 37.3183C72.3137 36.1164 70.5109 35.3652 68.5578 35.3652C64.3513 35.3652 61.1963 38.5202 61.1963 42.7267C61.1963 46.9333 64.3513 50.0882 68.5578 50.0882C70.5109 50.0882 72.3137 49.3371 73.6658 48.1352L74.2668 47.6845L71.863 45.2807L71.4123 45.7314Z" fill="white"/>
<path d="M86.435 36.8676C85.384 35.8159 84.332 35.3652 82.68 35.3652C81.478 35.3652 80.276 35.6657 79.3743 36.5671V28.7549H75.9189V50.0882H79.3743V42.1258C79.3743 38.8206 81.628 38.5201 82.529 38.5201C84.633 38.5201 84.482 40.4732 84.482 41.5248V49.938H87.938V41.6751C87.938 39.722 87.487 37.9192 86.435 36.8676Z" fill="white"/>
<path d="M68.4067 45.1308C69.7342 45.1308 70.8104 44.0546 70.8104 42.727C70.8104 41.3994 69.7342 40.3232 68.4067 40.3232C67.0791 40.3232 66.0029 41.3994 66.0029 42.727C66.0029 44.0546 67.0791 45.1308 68.4067 45.1308Z" fill="#EF4335"/>
<path d="M27.5433 44.8295C26.3414 46.0314 24.5386 46.7826 22.5856 46.7826C18.8297 46.7826 16.1255 43.7779 16.1255 39.7216C16.1255 35.6652 18.8297 32.6605 22.7358 32.6605C24.5386 32.6605 26.3414 33.4117 27.6936 34.7638L28.1443 35.2145L30.3978 32.961L29.9471 32.5103C27.994 30.5572 25.44 29.5056 22.7358 29.5056C17.0269 29.3554 12.8203 33.8624 12.8203 39.7216C12.8203 45.5807 17.0269 50.0878 22.5856 50.0878C25.2898 50.0878 27.994 49.0361 29.7968 47.0831L30.2475 46.6324L27.994 44.3788L27.5433 44.8295Z" fill="white"/>
<path d="M110.296 11.7239L111.339 13.8098C111.481 14.1002 111.861 14.3787 112.181 14.432L114.071 14.7461C115.28 14.9476 115.564 15.8246 114.693 16.6898L113.224 18.1594C112.975 18.4083 112.838 18.8883 112.915 19.232L113.336 21.0513C113.668 22.4913 112.904 23.0483 111.63 22.2957L109.858 21.2468C109.538 21.0572 109.01 21.0572 108.684 21.2468L106.912 22.2957C105.644 23.0483 104.874 22.4854 105.206 21.0513L105.627 19.232C105.704 18.8883 105.567 18.4083 105.318 18.1594L103.849 16.6898C102.984 15.8246 103.262 14.9476 104.471 14.7461L106.361 14.432C106.675 14.3787 107.055 14.1002 107.197 13.8098L108.24 11.7239C108.809 10.592 109.733 10.592 110.296 11.7239Z" fill="#EF4335"/>
<path d="M124.518 11.7239L125.561 13.8098C125.704 14.1002 126.083 14.3787 126.403 14.432L128.293 14.7461C129.502 14.9476 129.786 15.8246 128.915 16.6898L127.446 18.1594C127.197 18.4083 127.061 18.8883 127.138 19.232L127.558 21.0513C127.89 22.4913 127.126 23.0483 125.852 22.2957L124.08 21.2468C123.76 21.0572 123.232 21.0572 122.906 21.2468L121.135 22.2957C119.866 23.0483 119.096 22.4854 119.428 21.0513L119.849 19.232C119.926 18.8883 119.789 18.4083 119.541 18.1594L118.071 16.6898C117.206 15.8246 117.484 14.9476 118.693 14.7461L120.584 14.432C120.898 14.3787 121.277 14.1002 121.419 13.8098L122.462 11.7239C123.031 10.592 123.955 10.592 124.518 11.7239Z" fill="#EF4335"/>
<path d="M138.741 11.7239L139.783 13.8098C139.926 14.1002 140.305 14.3787 140.625 14.432L142.515 14.7461C143.724 14.9476 144.009 15.8246 143.138 16.6898L141.668 18.1594C141.419 18.4083 141.283 18.8883 141.36 19.232L141.781 21.0513C142.112 22.4913 141.348 23.0483 140.074 22.2957L138.302 21.2468C137.982 21.0572 137.455 21.0572 137.129 21.2468L135.357 22.2957C134.089 23.0483 133.318 22.4854 133.65 21.0513L134.071 19.232C134.148 18.8883 134.012 18.4083 133.763 18.1594L132.293 16.6898C131.428 15.8246 131.706 14.9476 132.915 14.7461L134.806 14.432C135.12 14.3787 135.499 14.1002 135.641 13.8098L136.684 11.7239C137.253 10.592 138.178 10.592 138.741 11.7239Z" fill="#EF4335"/>
<path d="M152.963 11.7239L154.006 13.8098C154.148 14.1002 154.527 14.3787 154.847 14.432L156.738 14.7461C157.946 14.9476 158.231 15.8246 157.36 16.6898L155.89 18.1594C155.641 18.4083 155.505 18.8883 155.582 19.232L156.003 21.0513C156.335 22.4913 155.57 23.0483 154.296 22.2957L152.524 21.2468C152.204 21.0572 151.677 21.0572 151.351 21.2468L149.579 22.2957C148.311 23.0483 147.54 22.4854 147.872 21.0513L148.293 19.232C148.37 18.8883 148.234 18.4083 147.985 18.1594L146.515 16.6898C145.65 15.8246 145.929 14.9476 147.138 14.7461L149.028 14.432C149.342 14.3787 149.721 14.1002 149.863 13.8098L150.906 11.7239C151.475 10.592 152.4 10.592 152.963 11.7239Z" fill="#EF4335"/>
<path d="M167.185 11.7239L168.228 13.8098C168.37 14.1002 168.749 14.3787 169.069 14.432L170.96 14.7461C172.169 14.9476 172.453 15.8246 171.582 16.6898L170.112 18.1594C169.863 18.4083 169.727 18.8883 169.804 19.232L170.225 21.0513C170.557 22.4913 169.792 23.0483 168.518 22.2957L166.746 21.2468C166.426 21.0572 165.899 21.0572 165.573 21.2468L163.801 22.2957C162.533 23.0483 161.763 22.4854 162.094 21.0513L162.515 19.232C162.592 18.8883 162.456 18.4083 162.207 18.1594L160.737 16.6898C159.872 15.8246 160.151 14.9476 161.36 14.7461L163.25 14.432C163.564 14.3787 163.943 14.1002 164.086 13.8098L165.129 11.7239C165.697 10.592 166.622 10.592 167.185 11.7239Z" fill="#EF4335"/>
</svg>
