<svg width="145" height="40" viewBox="0 0 145 40" fill="none" xmlns="http://www.w3.org/2000/svg">
<g clip-path="url(#clip0_151_11271)">
<mask id="mask0_151_11271" style="mask-type:luminance" maskUnits="userSpaceOnUse" x="0" y="0" width="145" height="40">
<path d="M145 0H0V40H145V0Z" fill="white"/>
</mask>
<g mask="url(#mask0_151_11271)">
<path d="M19.4024 4.72754H4.90543C4.87029 4.72754 4.8418 4.75603 4.8418 4.79118V19.2124C4.8418 19.2475 4.87029 19.276 4.90543 19.276H19.4024C19.4375 19.276 19.466 19.2475 19.466 19.2124V4.79118C19.466 4.75603 19.4375 4.72754 19.4024 4.72754Z" fill="#EB5321"/>
<path d="M35.5084 4.72949H21.0872C21.0336 4.72949 20.9902 4.77291 20.9902 4.82646V19.1628C20.9902 19.2164 21.0336 19.2598 21.0872 19.2598H35.5084C35.562 19.2598 35.6054 19.2164 35.6054 19.1628V4.82646C35.6054 4.77291 35.562 4.72949 35.5084 4.72949Z" fill="#7FBA00"/>
<path d="M19.3885 20.792H4.91277C4.86926 20.792 4.83398 20.8273 4.83398 20.8708V35.2617C4.83398 35.3052 4.86926 35.3405 4.91277 35.3405H19.3885C19.432 35.3405 19.4673 35.3052 19.4673 35.2617V20.8708C19.4673 20.8273 19.432 20.792 19.3885 20.792Z" fill="#08A1EF"/>
<path d="M35.4851 20.8281H21.1306C21.0703 20.8281 21.0215 20.877 21.0215 20.9372V35.2039C21.0215 35.2641 21.0703 35.313 21.1306 35.313H35.4851C35.5454 35.313 35.5942 35.2641 35.5942 35.2039V20.9372C35.5942 20.877 35.5454 20.8281 35.4851 20.8281Z" fill="#FCBD0A"/>
<path d="M114.84 5.31172C114.374 5.52353 113.824 5.90479 113.612 6.13779C113.061 6.75205 112.638 8.02293 112.616 9.082V9.99279H111.769H110.922V10.946V11.8991H111.769H112.616V16.0295V20.1599H113.887H115.158V16.0295V11.9203H116.959L118.759 11.9415V14.9916C118.759 18.3595 118.95 19.1432 119.924 19.9057C120.348 20.2446 120.792 20.3717 121.597 20.3717C123.44 20.3717 123.631 20.2446 123.631 19.1643V18.2324L122.911 18.3595C122.339 18.4865 122.084 18.4018 121.746 18.0629C121.343 17.6605 121.301 17.3851 121.301 14.7586V11.8991H122.466H123.631V10.946V9.99279H122.466H121.301V8.5101C121.301 7.68403 121.237 7.0274 121.152 7.0274C121.089 7.0274 120.517 7.19685 119.882 7.38749L118.759 7.74757V8.87018V9.99279H116.959H115.158V9.06081C115.158 8.44655 115.306 7.95938 115.624 7.55694C116.027 7.04859 116.175 6.98504 117.001 7.09095L117.912 7.19685V6.18015C117.912 5.31172 117.848 5.14226 117.446 5.03636C116.598 4.82454 115.709 4.90927 114.84 5.31172Z" fill="white"/>
<path d="M60.7649 6.09508C60.2353 6.45517 60.1506 7.36596 60.5742 7.93786C60.9767 8.48858 62.0358 8.61566 62.5653 8.14967C63.2431 7.5566 63.3278 6.96352 62.8195 6.32808C62.3111 5.67146 61.485 5.58673 60.7649 6.09508Z" fill="white"/>
<path d="M42.7188 13.0645V20.1603H43.7778H44.8369L44.8581 14.6955C44.8581 10.9252 44.9216 9.35777 45.0699 9.56958C45.197 9.73903 46.2349 12.1749 47.3575 14.9708L49.4332 20.0543H50.344H51.2337L53.3941 14.6743L55.5335 9.29423L55.597 14.7167L55.6394 20.1603H56.9103H58.1811V13.0645V5.96875H56.4443H54.6862L52.5681 11.1582C51.4031 14.0177 50.4076 16.3476 50.344 16.3476C50.2805 16.3476 49.3273 14.0177 48.2259 11.1582L46.2137 5.96875H44.4768H42.7188V13.0645Z" fill="white"/>
<path d="M68.0925 10.0772C66.9699 10.4796 66.3556 10.9244 65.6778 11.7928C63.5808 14.5676 64.5128 18.7827 67.5418 20.0324C68.4737 20.4348 70.3165 20.4772 71.6509 20.1383L72.5829 19.9053V18.7615V17.6389L71.6086 18.0837C69.8929 18.825 68.2407 18.3167 67.457 16.7493C66.4615 14.8218 67.457 12.4706 69.4904 11.9199C70.2741 11.7081 70.7401 11.7928 72.2228 12.4283C72.5406 12.5554 72.5829 12.4495 72.5829 11.4328V10.2678L71.7568 10.0348C70.6978 9.69586 69.0668 9.73822 68.0925 10.0772Z" fill="white"/>
<path d="M78.6841 10.0359C78.2393 10.1418 77.6463 10.523 77.3497 10.8831L76.8202 11.5186V10.756V9.99351H75.6552H74.4902V15.077V20.1606H75.6552H76.8202V17.3434C76.8202 14.1239 77.032 13.1707 77.8369 12.5141C78.3029 12.154 78.6206 12.0905 79.4255 12.1752L80.421 12.2599V11.1373C80.421 10.5019 80.3363 9.99351 80.2304 9.99351C80.1245 9.99351 79.9127 9.95115 79.7432 9.90878C79.5949 9.86642 79.1078 9.92996 78.6841 10.0359Z" fill="white"/>
<path d="M83.9583 10.0773C81.8613 10.8398 80.6328 12.6614 80.6328 15.0549C80.6328 16.94 80.9929 17.9991 82.0308 19.037C83.111 20.1172 84.2125 20.4561 86.2459 20.3291C89.3595 20.1172 91.0752 18.2533 91.0752 15.0761C91.0752 12.5343 90.1221 10.9881 87.9827 10.0985C87.0508 9.71725 85.0385 9.69607 83.9583 10.0773ZM87.3473 12.2166C88.5546 13.0215 88.9571 15.4362 88.1522 17.0883C87.8133 17.7449 87.5379 17.9991 86.8389 18.2533C86.0341 18.5286 85.8222 18.5286 85.0385 18.2533C83.7041 17.7873 83.1746 16.8765 83.1746 15.0549C83.1746 13.8052 83.2381 13.5298 83.7465 12.9368C84.7844 11.7082 86.14 11.4329 87.3473 12.2166Z" fill="white"/>
<path d="M94.1895 10.2473C92.3891 11.1581 91.7749 12.9797 92.7704 14.4624C93.0669 14.9284 93.7659 15.4367 94.6979 15.9239C96.4771 16.8135 96.8796 17.3219 96.3924 17.9997C95.9899 18.5927 94.825 18.6139 93.3423 18.0632L92.2832 17.6608V18.7834C92.2832 19.8636 92.3256 19.9272 92.9398 20.139C93.3211 20.2661 94.2531 20.372 95.0156 20.372C97.5362 20.3508 99.0612 19.2282 99.0612 17.3642C99.0612 15.9663 98.5105 15.2673 96.5407 14.2506C94.9944 13.4457 94.825 13.2974 94.825 12.7467C94.825 12.3231 94.9732 12.0477 95.2698 11.8783C95.7993 11.6029 97.1337 11.7724 98.0233 12.2383L98.6376 12.5561V11.3911C98.6376 10.2897 98.6164 10.2261 97.981 10.0143C96.8584 9.63304 95.2274 9.73893 94.1895 10.2473Z" fill="white"/>
<path d="M103.382 10.1837C101.306 11.1368 100.268 12.7678 100.247 15.1613C100.226 16.8346 100.776 18.2326 101.814 19.1857C102.767 20.033 103.763 20.3719 105.415 20.3719C107.067 20.3719 108.063 20.033 109.058 19.1434C110.287 18.0419 110.71 17.004 110.71 15.0554C110.71 11.6875 108.783 9.78125 105.415 9.78125C104.737 9.78125 103.89 9.9507 103.382 10.1837ZM106.813 12.2171C107.83 12.8101 108.169 13.5303 108.169 15.0977C108.169 17.4065 107.004 18.6562 105.097 18.3808C104.589 18.2961 103.953 18.0208 103.657 17.7454C103.127 17.2582 102.661 16.0509 102.661 15.1825C102.661 14.314 103.149 13.1067 103.678 12.5983C104.779 11.5604 105.542 11.4757 106.813 12.2171Z" fill="white"/>
<path d="M60.5117 15.0767V20.1603H61.6767H62.8417V15.0767V9.99316H61.6767H60.5117V15.0767Z" fill="white"/>
<path d="M56.9082 29.6912V34.3511H57.6496H58.3909V29.6912V25.0312H57.6496H56.9082V29.6912Z" fill="white"/>
<path d="M72.5836 25.3499C72.0329 26.0278 72.859 27.0656 73.6003 26.5996C74.3205 26.1337 74.0663 25.0322 73.219 25.0322C73.0072 25.0322 72.7319 25.1805 72.5836 25.3499Z" fill="white"/>
<path d="M43.5231 25.8989C42.57 26.3861 42.2946 26.8521 42.2946 27.9323C42.2946 28.9278 42.9724 29.6692 44.7728 30.6435C45.4295 30.9824 46.1073 31.4908 46.2767 31.745C46.5521 32.1686 46.5309 32.2533 46.0225 32.7617C45.3871 33.3759 44.2009 33.4818 43.0148 32.9735L42.2734 32.6769L42.337 33.4395C42.4005 34.1385 42.4853 34.2444 43.1419 34.4138C44.1162 34.668 46.0861 34.4774 46.891 34.0749C47.2511 33.8843 47.6535 33.4395 47.8018 33.1006C48.3737 31.6814 47.4205 30.1352 45.4295 29.2879C43.0995 28.2924 43.4596 26.5979 45.959 26.6826C46.4038 26.7038 46.9545 26.8309 47.1875 26.9368C47.5476 27.1486 47.59 27.0851 47.59 26.4284C47.59 25.56 47.357 25.4541 45.6201 25.4541C44.7305 25.4753 44.0527 25.6024 43.5231 25.8989Z" fill="white"/>
<path d="M100.332 29.9032V34.3513H101.073H101.815V32.7627V31.1741H102.874C104.907 31.1741 106.263 30.0303 106.263 28.3146C106.263 26.3659 104.928 25.4763 102.09 25.4551H100.332V29.9032ZM103.933 27.0013C104.547 27.3191 104.78 28.0816 104.505 28.9077C104.272 29.5855 103.933 29.7973 102.726 30.0091L101.815 30.1574V28.4417V26.726H102.62C103.043 26.726 103.636 26.8531 103.933 27.0013Z" fill="white"/>
<path d="M68.5165 26.4496C68.2411 26.5132 68.1352 26.7674 68.1352 27.2757C68.1352 27.9111 68.0717 27.9959 67.6057 27.9959C67.1609 27.9959 67.0762 28.1018 67.0762 28.6313C67.0762 29.1608 67.1609 29.2668 67.6057 29.2668C68.1352 29.2668 68.1352 29.2879 68.1352 31.0672C68.1352 33.4395 68.4741 34.2656 69.4908 34.4774C70.6346 34.6892 71.3124 34.435 71.3124 33.8207C71.3124 33.3971 71.2065 33.3124 70.6558 33.3336C70.2957 33.3548 69.9145 33.2277 69.8086 33.0582C69.7027 32.8888 69.6179 31.978 69.6179 31.0036V29.2668H70.4652C71.2701 29.2668 71.3124 29.2244 71.3124 28.6313C71.3124 28.0382 71.2701 27.9959 70.4652 27.9959H69.6179V27.1486C69.6179 26.2802 69.4908 26.1955 68.5165 26.4496Z" fill="white"/>
<path d="M119.987 26.4506C119.712 26.5141 119.606 26.7683 119.606 27.2766C119.606 27.9121 119.542 27.9968 119.076 27.9968C118.632 27.9968 118.547 28.1027 118.547 28.6322C118.547 29.1618 118.632 29.2677 119.076 29.2677H119.606V31.3858C119.606 33.3769 119.648 33.5675 120.135 34.0335C120.983 34.8807 122.571 34.7113 122.571 33.7793C122.571 33.3769 122.487 33.271 122.232 33.3769C122.063 33.4404 121.724 33.398 121.491 33.2921C121.131 33.1015 121.089 32.8261 121.089 31.174V29.2677H121.83C122.508 29.2677 122.571 29.2253 122.571 28.6322C122.571 28.0392 122.508 27.9968 121.83 27.9968C121.11 27.9968 121.089 27.9756 121.089 27.1495C121.089 26.2811 120.962 26.1964 119.987 26.4506Z" fill="white"/>
<path d="M50.1726 28.5478C49.2406 29.2891 48.8594 30.094 48.8594 31.3225C48.8594 33.1865 50.1938 34.5633 52.0366 34.5633C54.07 34.5633 55.4256 33.2289 55.4256 31.2378C55.4256 29.0773 54.3242 27.9971 52.1213 27.9971C51.1046 27.9971 50.7445 28.103 50.1726 28.5478ZM53.3286 29.6704C54.07 30.4329 54.1547 31.5555 53.5405 32.5934C52.5237 34.2456 50.3421 33.2289 50.3421 31.1107C50.3421 30.1152 51.274 29.0561 52.1425 29.0561C52.4814 29.0561 52.9474 29.3103 53.3286 29.6704Z" fill="white"/>
<path d="M60.1296 30.4743C60.1932 31.8511 60.3626 33.2279 60.5109 33.5244C60.9981 34.5835 62.7561 34.9224 63.7517 34.1387C64.3871 33.6303 64.5354 33.6091 64.5354 34.0328C64.5354 34.2446 64.7684 34.3505 65.2767 34.3505H66.0181V31.1733V27.9961H65.2767H64.5354V29.7329C64.5354 32.0841 64.26 32.9737 63.4975 33.249C62.7138 33.5244 61.9512 33.1643 61.7606 32.4442C61.6759 32.1476 61.6123 31.025 61.5912 29.9448L61.57 27.9961H60.8075H60.0449L60.1296 30.4743Z" fill="white"/>
<path d="M72.3711 31.1743V34.3515H73.1124H73.8538V31.1743V27.9971H73.1124H72.3711V31.1743Z" fill="white"/>
<path d="M76.8623 28.4419C75.4855 29.3315 74.9984 31.3225 75.8033 32.8688C76.3752 34.0126 77.3495 34.5633 78.7263 34.5633C80.0395 34.5633 81.0562 33.9702 81.6281 32.8688C82.4542 31.3013 82.1577 29.6704 80.8656 28.569C80.2725 28.0818 79.976 27.9971 78.8746 27.9971C77.9002 27.9971 77.3707 28.1241 76.8623 28.4419ZM79.5735 29.3738C80.209 29.7127 80.442 30.1576 80.4632 31.1531C80.5055 32.6358 79.5312 33.6101 78.3238 33.3136C76.7988 32.9323 76.4599 30.1364 77.8367 29.3738C78.5568 28.9926 78.8322 28.9926 79.5735 29.3738Z" fill="white"/>
<path d="M83.5977 31.1743V34.3515H84.339H85.0804V32.2333C85.0804 30.2423 85.1227 30.0517 85.6099 29.5857C86.2453 28.929 86.796 28.9079 87.3256 29.5009C87.6645 29.861 87.7492 30.3482 87.7916 32.1486L87.8763 34.3515H88.5965H89.3166V32.424C89.3166 30.1364 88.9989 28.7384 88.4058 28.3148C87.728 27.8488 86.3089 27.9123 85.6311 28.4419L85.0804 28.8655V28.4419C85.0804 28.0818 84.9533 27.9971 84.339 27.9971H83.5977V31.1743Z" fill="white"/>
<path d="M91.4987 28.3996C90.0372 29.3104 90.4184 30.7295 92.3883 31.7039C93.2991 32.1487 93.6592 32.4664 93.6592 32.7629C93.6592 33.4196 92.6637 33.6737 91.5199 33.2501L90.5879 32.9112V33.6314C90.5879 34.2668 90.6514 34.3515 91.3504 34.4786C92.473 34.6904 93.9981 34.4151 94.5488 33.8855C95.7138 32.7841 95.3325 31.6403 93.5321 30.8142C92.24 30.2212 91.9011 29.8187 92.3036 29.3527C92.6001 28.9927 93.8286 28.9715 94.4217 29.2892C94.8242 29.501 94.8453 29.4586 94.7818 28.802L94.7183 28.103L93.4474 28.0395C92.473 27.9971 92.007 28.0819 91.4987 28.3996Z" fill="white"/>
<path d="M108.021 28.2508C107.682 28.4203 107.534 28.6744 107.534 29.0769C107.534 29.6488 107.555 29.6488 108.127 29.3523C109.207 28.7804 110.711 29.0981 110.711 29.903C110.711 30.3266 110.478 30.4325 108.974 30.6443C107.64 30.8138 106.898 31.5127 106.898 32.6142C106.898 33.758 107.428 34.351 108.551 34.4993C109.292 34.6052 109.588 34.5205 110.097 34.1604C110.584 33.8003 110.711 33.758 110.711 34.0333C110.711 34.2663 110.923 34.351 111.452 34.351H112.194V31.9152C112.194 29.3099 112.003 28.5897 111.198 28.2296C110.563 27.9331 108.635 27.9543 108.021 28.2508ZM110.796 31.9576C110.648 32.6777 109.779 33.5038 109.228 33.5038C108.72 33.5038 108.106 32.6354 108.296 32.1694C108.445 31.7669 109.292 31.428 110.245 31.4068C110.881 31.3857 110.923 31.428 110.796 31.9576Z" fill="white"/>
<path d="M114.1 31.1733V34.3505H114.714H115.328L115.413 32.4442C115.519 30.1777 115.942 29.3729 117.044 29.3729C117.637 29.3729 117.7 29.3093 117.7 28.6951C117.7 28.0596 117.637 27.9961 117.065 27.9961C116.663 27.9961 116.26 28.1867 115.9 28.568L115.37 29.161V28.568C115.37 28.0808 115.286 27.9961 114.735 27.9961H114.1V31.1733Z" fill="white"/>
<path d="M123.842 31.1743V34.3515H124.583H125.324V32.2333C125.324 30.2423 125.367 30.0517 125.854 29.5857C126.447 28.9926 126.934 28.929 127.549 29.395C127.909 29.6704 127.972 30.0093 128.036 32.0215L128.12 34.3515H128.841H129.561V32.1274C129.561 29.7128 129.264 28.6113 128.544 28.2301C127.824 27.8488 126.489 27.9547 125.875 28.4419L125.324 28.8655V28.4419C125.324 28.0818 125.197 27.9971 124.583 27.9971H123.842V31.1743Z" fill="white"/>
<path d="M131.913 28.5694C130.621 29.5861 130.261 31.3653 131.045 32.9751C131.743 34.4154 133.141 34.9026 135.133 34.3307C135.81 34.1401 135.916 34.0342 135.916 33.5046V32.8904L135.133 33.2081C133.819 33.78 132.591 33.2928 132.231 32.0643C132.082 31.5983 132.082 31.5983 134.306 31.5983H136.552V30.9629C136.552 29.9673 135.959 28.76 135.302 28.3576C134.328 27.7857 132.781 27.8916 131.913 28.5694ZM134.645 29.4802C134.878 29.7132 135.069 30.0944 135.069 30.3274C135.069 30.7087 134.921 30.7511 133.735 30.7511C132.993 30.7511 132.337 30.6875 132.252 30.624C132.082 30.4333 132.654 29.3319 132.993 29.2048C133.586 28.9718 134.243 29.0777 134.645 29.4802Z" fill="white"/>
<path d="M137.822 31.1733V34.3505H138.542H139.263L139.347 32.3382C139.411 30.5802 139.496 30.2837 139.94 29.7965C140.322 29.394 140.618 29.267 141.042 29.3093C141.593 29.394 141.635 29.3517 141.635 28.6951C141.635 28.0596 141.571 27.9961 140.999 27.9961C140.555 27.9961 140.173 28.1867 139.834 28.5468L139.305 29.1187V28.5468C139.305 28.0596 139.22 27.9961 138.564 27.9961H137.822V31.1733Z" fill="white"/>
</g>
</g>
<defs>
<clipPath id="clip0_151_11271">
<rect width="145" height="40" fill="white"/>
</clipPath>
</defs>
</svg>
